<?xml version="1.0" standalone="no"?>
<!DOCTYPE svg PUBLIC "-//W3C//DTD SVG 1.1//EN" "http://www.w3.org/Graphics/SVG/1.1/DTD/svg11.dtd" >
<svg xmlns="http://www.w3.org/2000/svg" xmlns:xlink="http://www.w3.org/1999/xlink" version="1.1">
<metadata>
Created by FontForge 20200427 at Fri Jan 15 11:01:38 2016
 By www
(c) 2012 Klim Type Foundry. All Rights Reserved.
</metadata>
<defs>
<font id="Pitch-Semibold" horiz-adv-x="614" >
  <font-face 
    font-family="Copyright Klim Type Foundry"
    font-weight="600"
    font-stretch="normal"
    units-per-em="1000"
    panose-1="2 6 7 9 3 2 6 6 2 3"
    ascent="800"
    descent="-200"
    x-height="424"
    cap-height="570"
    bbox="0 -306 714 993"
    underline-thickness="75"
    underline-position="-97"
    unicode-range="U+000D-2265"
  />
<missing-glyph 
 />
    <glyph glyph-name=".notdef" 
 />
    <glyph glyph-name=".null" horiz-adv-x="0" 
 />
    <glyph glyph-name="nonmarkingreturn" unicode="&#xd;" 
 />
    <glyph glyph-name="NULL" horiz-adv-x="0" 
 />
    <glyph glyph-name="NULL" horiz-adv-x="0" 
 />
    <glyph glyph-name="space" unicode=" " 
 />
    <glyph glyph-name="exclam" unicode="!" 
d="M307 -13q-15 0 -28.5 6t-24 16.5t-16.5 24.5t-6 29t6 28.5t16.5 24t24 16.5t28.5 6t29 -6t24.5 -16.5t16 -24t5.5 -28.5t-5.5 -29t-16 -24.5t-24.5 -16.5t-29 -6zM284 197l-46 299q-3 18 0.5 33.5t12.5 28t23.5 19.5t32.5 7t32.5 -7t23.5 -19.5t12.5 -28t0.5 -33.5
l-46 -299h-46z" />
    <glyph glyph-name="quotedbl" unicode="&#x22;" 
d="M397 310l-37 176q-2 10 -4.5 21t-4 21t-2.5 19t-1 14q0 14 4 26t12 21t20 14t27 5t26.5 -5t19 -14t11.5 -21t4 -26q0 -6 -0.5 -14.5t-2 -19t-3.5 -21.5t-4 -20l-38 -176h-27zM191 310l-37 176q-2 10 -4.5 21t-4 21t-2.5 19t-1 14q0 14 4 26t12 21t20 14t27 5t26.5 -5
t19 -14t11.5 -21t4 -26q0 -6 -0.5 -14.5t-2 -19t-3.5 -21.5t-4 -20l-38 -176h-27z" />
    <glyph glyph-name="numbersign" unicode="#" 
d="M387 337h-133l-27 -104h133zM167 0h-71l44 170h-107l18 63h105l26 104h-111l17 64h111l43 169h72l-44 -169h133l44 169h71l-43 -169h107l-18 -64h-106l-26 -104h111l-17 -63h-110l-44 -170h-72l44 170h-133z" />
    <glyph glyph-name="dollar" unicode="$" 
d="M265 510q-25 -3 -45 -10.5t-34.5 -18.5t-22 -25.5t-7.5 -31.5q0 -16 6.5 -28.5t18.5 -21t29.5 -15t40.5 -12.5l14 -3v166zM341 58q27 4 49 13t38.5 22.5t25 30.5t8.5 36q0 18 -6.5 30.5t-17 21t-23.5 13.5t-31 9l-48 11v-188zM265 -146v132q-47 3 -87 14.5t-69.5 31
t-45.5 45.5t-16 58q0 16 5.5 30.5t15 25t23 16.5t28.5 6t27 -5t21 -13.5t14 -20t5 -24.5q0 -9 -2 -17t-6.5 -15t-11.5 -12t-16 -8q6 -7 17 -14t26 -12.5t33.5 -9t38.5 -5.5v205l-28 6q-41 9 -71 22t-51 31.5t-32 43.5t-11 59q0 32 14 60t40 48.5t61.5 33.5t77.5 17v121h71
v-122q43 -4 80 -17t63.5 -33.5t41 -45.5t14.5 -53q0 -15 -5 -28t-14 -23.5t-21 -16t-26 -5.5q-13 0 -24.5 4.5t-20.5 13t-13.5 19t-4.5 22.5q0 8 2 15.5t6 14t10 11.5t15 8q-6 8 -14.5 14.5t-21 12t-29.5 9.5t-38 6v-182l68 -16q33 -7 58.5 -19.5t44.5 -31t29 -43.5t10 -58
q0 -34 -15.5 -64t-43.5 -53.5t-66.5 -38t-84.5 -18.5v-132h-71z" />
    <glyph glyph-name="percent" unicode="%" 
d="M458 53q14 0 26.5 5.5t22 15t14.5 22t5 26.5t-5 26t-14.5 21.5t-22 14.5t-26.5 5t-26 -5t-21.5 -14.5t-15 -21.5t-5.5 -26t5.5 -26.5t15 -22t21.5 -15t26 -5.5zM458 253q27 0 51.5 -10t42.5 -28t28 -42t10 -51t-10 -51.5t-28 -43t-42.5 -28.5t-51.5 -10t-51 10
t-42.5 28.5t-28.5 43t-10 51.5t10 51t28.5 42t42.5 28t51 10zM156 520q-14 0 -26.5 -5.5t-22 -15t-14.5 -21.5t-5 -26t5 -26.5t14.5 -22t22 -14.5t26.5 -5t26 5t21.5 14.5t15 22t5.5 26.5t-5.5 26t-15 21.5t-21.5 15t-26 5.5zM573 547l-489 -557l-43 37l489 556zM156 584
q27 0 51 -10t42.5 -28.5t28.5 -42.5t10 -51t-10 -51.5t-28.5 -42.5t-42.5 -28t-51 -10t-51.5 10t-42.5 28t-28 42.5t-10 51.5t10 51t28 42.5t42.5 28.5t51.5 10z" />
    <glyph glyph-name="ampersand" unicode="&#x26;" 
d="M240 356q21 12 35.5 22t23.5 20t13 21t4 25q0 13 -4.5 25t-13 21.5t-21.5 15t-29 5.5q-13 0 -24.5 -5t-20.5 -13.5t-13.5 -20.5t-4.5 -26q0 -10 2 -19.5t6.5 -18t11 -17t16.5 -19.5l15 -18zM197 65q18 0 34 4.5t30.5 13.5t28.5 21t30 29l1 2l-111 128q-27 -16 -45.5 -30
t-30 -27.5t-16.5 -27.5t-5 -30q0 -18 7 -33.5t19 -26.5t27 -17t31 -6zM370 79q-23 -23 -42.5 -39.5t-39.5 -28.5t-42.5 -18t-48.5 -6q-33 0 -63 11t-53 32.5t-36.5 51.5t-13.5 66q0 29 8.5 52.5t24.5 43t40.5 37t58.5 36.5l-1 1q-14 16 -23 28t-17.5 27.5t-14 34t-5.5 38.5
q0 29 10.5 54t30.5 44t47 29.5t58 10.5q35 0 63 -10.5t47 -30t28.5 -45t9.5 -54.5q0 -26 -10 -48t-26 -39.5t-35.5 -30.5t-42.5 -25l94 -109l130 138l54 -54l-135 -140l54 -63h108v-73h-186v43z" />
    <glyph glyph-name="quotesingle" unicode="'" 
d="M294 310l-37 176q-2 10 -4.5 21t-4 21t-2.5 19t-1 14q0 14 4 26t12 21t20 14t27 5t26.5 -5t19 -14t11.5 -21t4 -26q0 -6 -0.5 -14.5t-2 -19t-3.5 -21.5t-4 -20l-38 -176h-27z" />
    <glyph glyph-name="parenleft" unicode="(" 
d="M245 256q0 -53 15.5 -102.5t43.5 -93.5t67.5 -81t87.5 -66l-43 -61q-53 32 -98 72t-79.5 90t-54 111t-19.5 131t19.5 131t54 111t79.5 90t98 72l43 -61q-48 -29 -87.5 -66t-67.5 -81t-43.5 -93.5t-15.5 -102.5z" />
    <glyph glyph-name="parenright" unicode=")" 
d="M369.015 256q0 -53 -15.499 -102.5t-43.4971 -93.5t-67.4961 -81q-39.4971 -37 -87.4941 -66l42.9971 -61q52.9971 32 97.9941 72t79.4951 90t53.9971 111q19.498 61 19.498 131t-19.498 131q-19.499 61 -53.9971 111t-79.4951 90t-97.9941 72l-42.9971 -61
q47.9971 -29 87.4941 -66q39.498 -37 67.4961 -81t43.4971 -93.5t15.499 -102.5z" />
    <glyph glyph-name="asterisk" unicode="*" 
d="M248 445l-132 76l29 51l132 -75v154h60v-154l132 75l30 -51l-132 -76l132 -76l-30 -51l-132 75v-154h-60v154l-132 -75l-29 51z" />
    <glyph glyph-name="plus" unicode="+" 
d="M344 63h-73v190h-192v73h192v192h73v-192h191v-73h-191v-190z" />
    <glyph glyph-name="comma" unicode="," 
d="M218 78q0 18 7 34t19 28t28 18.5t34 6.5t34.5 -7t28.5 -19.5t19 -29t7 -34.5q0 -8 -1.5 -16t-5 -16t-8.5 -16.5t-11 -17.5l-143 -185l-45 31l92 145q-11 4 -21 11.5t-18 17.5t-12 22.5t-4 26.5z" />
    <glyph glyph-name="hyphen" unicode="-" 
d="M185 321h244v-95h-244v95z" />
    <glyph glyph-name="period" unicode="." 
d="M218 76q0 18 7 34.5t19 28.5t28.5 19t34.5 7t34.5 -7t28.5 -19t19 -28.5t7 -34.5t-7 -34.5t-19 -28.5t-28.5 -19t-34.5 -7t-34.5 7t-28.5 19t-19 28.5t-7 34.5z" />
    <glyph glyph-name="slash" unicode="/" 
d="M487 646l69 -39l-429 -746l-69 40z" />
    <glyph glyph-name="zero" unicode="0" 
d="M69 285q0 63 16.5 117.5t48 95.5t76 63.5t97.5 22.5t97.5 -22.5t76 -63.5t48.5 -95.5t17 -117.5q0 -62 -17 -116.5t-48.5 -96t-76 -64t-97.5 -22.5t-97.5 22.5t-76 63.5t-48 96t-16.5 117zM458 285q0 45 -10 85t-29 70.5t-47.5 47.5t-64.5 17t-64.5 -17t-47.5 -47.5
t-28.5 -70t-9.5 -85.5q0 -45 9.5 -85t28.5 -70t47.5 -47t64.5 -17t64.5 17t47.5 47t29 70t10 85z" />
    <glyph glyph-name="one" unicode="1" 
d="M260 570h106v-466l31 -31h167v-73h-488v73h175l31 31v384l-160 -108l-44 66z" />
    <glyph glyph-name="two" unicode="2" 
d="M66 438q20 31 47 57.5t60 46.5t69.5 31t74.5 11q45 0 79.5 -12.5t58 -35t35.5 -53t12 -65.5q0 -32 -13.5 -60.5t-35.5 -53t-45 -43t-65 -49.5l-182 -139h256l33 31v73h77v-177h-458v97l217 172q66 53 71.5 57.5t21 21t24 34.5t8.5 39q0 18 -6.5 33t-18.5 26.5t-29.5 17.5
t-39.5 6q-26 0 -51.5 -8.5t-50 -24t-46 -36.5t-38.5 -46z" />
    <glyph glyph-name="three" unicode="3" 
d="M160 303l238 191h-303v76h385v-97l-166 -127q3 1 6.5 2l7 2t6.5 1h6q37 0 67.5 -12.5t52 -35t32.5 -52.5t11 -63q0 -62 -32.5 -112t-88.5 -86t-126.5 -58.5t-148.5 -33.5l-16 75q71 12 130.5 31t104.5 45.5t70 61.5t25 77q0 22 -8 40.5t-22 32t-34 20.5t-43 7
q-16 0 -30 -2.5t-28 -7t-28 -11.5t-29 -17z" />
    <glyph glyph-name="four" unicode="4" 
d="M468 131l-31 -31v-100h-82v100l-31 31h-272v101q33 39 69.5 87.5t72.5 102.5t66.5 109t50.5 103l85 -26q-22 -52 -55 -107.5t-68.5 -106.5t-83.5 -116t-55 -74h221v136h82v-136h137v-73h-106z" />
    <glyph glyph-name="five" unicode="5" 
d="M104 -28q72 12 130 29.5t101 43t66.5 60t23.5 77.5q0 19 -6.5 36t-20 29.5t-32.5 19.5t-43 7q-16 0 -31 -4t-28.5 -11.5t-24.5 -17.5t-20 -23h-104l15 352h356v-78h-282l-11 -198q9 12 23 22t32 18t38 12t40 4q46 0 81 -14.5t57.5 -38.5t33 -54t10.5 -61
q0 -62 -32 -111.5t-86.5 -84.5t-124 -57t-146.5 -33z" />
    <glyph glyph-name="six" unicode="6" 
d="M320 403q45 0 84 -15.5t68 -43.5t44.5 -66.5t15.5 -83.5q0 -43 -17 -81t-47 -66.5t-70 -44.5t-85 -16q-28 0 -55 6t-51 18t-44.5 30t-35.5 41q-9 14 -16 31t-11.5 35t-7 37t-2.5 38q0 70 25.5 134t74 117.5t118 94t156.5 64.5l23 -74q-59 -17 -104 -38.5t-78 -47
t-56.5 -54t-41.5 -62.5q10 11 23 19.5t27.5 14.5t30.5 9.5t32 3.5zM449 194q0 28 -10.5 52t-29.5 42.5t-43.5 28.5t-52.5 10t-52.5 -10t-43.5 -28.5t-29.5 -42.5t-10.5 -52t10.5 -52t29.5 -42.5t43.5 -28.5t52.5 -10t52.5 10t43.5 28.5t29.5 42.5t10.5 52z" />
    <glyph glyph-name="seven" unicode="7" 
d="M159 462v-104h-76v212h466v-91l-296 -584l-74 33l285 565h-274z" />
    <glyph glyph-name="eight" unicode="8" 
d="M307 348q25 0 46 6.5t36 19.5t23.5 31t8.5 41q0 24 -8 42.5t-23.5 31t-36.5 19t-46 6.5t-46 -6.5t-36 -19t-23.5 -31t-8.5 -42.5q0 -23 8.5 -41t23.5 -31t36 -19.5t46 -6.5zM307 65q27 0 51 6.5t41.5 19.5t27.5 32.5t10 43.5q0 25 -9.5 44.5t-27 32t-41 19t-52.5 6.5
q-28 0 -52 -6.5t-41.5 -19t-27 -32t-9.5 -44.5q0 -24 10 -43.5t28 -32.5t41.5 -19.5t50.5 -6.5zM307 -13q-44 0 -83.5 12.5t-69.5 36t-46.5 57t-16.5 74.5q0 25 7.5 47t21 39.5t31.5 30.5t38 20v11q-16 6 -30.5 18t-25.5 29t-17 38.5t-6 45.5q0 39 14.5 71.5t41.5 56t63 36
t78 12.5t78.5 -12.5t63 -36t41 -56t14.5 -71.5q0 -24 -6 -45.5t-17 -38.5t-25.5 -29t-30.5 -18v-11q20 -7 38 -20t31.5 -30.5t21 -39.5t7.5 -47q0 -41 -16.5 -74.5t-46.5 -57t-69.5 -36t-83.5 -12.5z" />
    <glyph glyph-name="nine" unicode="9" 
d="M300 168q-45 0 -84 15.5t-68 43.5t-44.5 66.5t-15.5 83.5q0 43 17 80.5t47 66t70 44.5t85 16q28 0 55 -6t51.5 -18t45 -30t35.5 -41q9 -15 15.5 -31.5t11 -34.5t7 -37t2.5 -38q0 -72 -27.5 -141.5t-80 -130.5t-126 -106.5t-162.5 -69.5l-23 74q60 17 109 43.5t86.5 58.5
t63.5 67.5t44 71.5q-10 -11 -23 -19.5t-27.5 -15t-31 -9.5t-32.5 -3zM171 377q0 -28 10.5 -52.5t29.5 -42.5t43.5 -28t52.5 -10t53 10t43.5 28t29 42.5t10.5 52.5q0 27 -10.5 51.5t-29 42.5t-43.5 28t-53 10t-52.5 -10t-43.5 -28t-29.5 -42.5t-10.5 -51.5z" />
    <glyph glyph-name="colon" unicode=":" 
d="M218 76q0 18 7 34.5t19 28.5t28.5 19t34.5 7t34.5 -7t28.5 -19t19 -28.5t7 -34.5t-7 -34.5t-19 -28.5t-28.5 -19t-34.5 -7t-34.5 7t-28.5 19t-19 28.5t-7 34.5zM218 342q0 18 7 34.5t19 28.5t28.5 19t34.5 7t34.5 -7t28.5 -19t19 -28.5t7 -34.5t-7 -34.5t-19 -28.5
t-28.5 -19t-34.5 -7t-34.5 7t-28.5 19t-19 28.5t-7 34.5z" />
    <glyph glyph-name="semicolon" unicode=";" 
d="M218 78q0 18 7 34t19 28t28 18.5t34 6.5t34.5 -7t28.5 -19.5t19 -29t7 -34.5q0 -8 -1.5 -16t-5 -16t-8.5 -16.5t-11 -17.5l-143 -185l-45 31l92 145q-11 4 -21 11.5t-18 17.5t-12 22.5t-4 26.5zM218 342q0 18 7 34.5t19 28.5t28.5 19t34.5 7t34.5 -7t28.5 -19t19 -28.5
t7 -34.5t-7 -34.5t-19 -28.5t-28.5 -19t-34.5 -7t-34.5 7t-28.5 19t-19 28.5t-7 34.5z" />
    <glyph glyph-name="less" unicode="&#x3c;" 
d="M104 328l391 172v-84l-321 -136l321 -134v-85l-391 173v94z" />
    <glyph glyph-name="equal" unicode="=" 
d="M81 238h452v-68h-452v68zM81 397h452v-70h-452v70z" />
    <glyph glyph-name="greater" unicode="&#x3e;" 
d="M510.006 320l-390.976 172v-84l320.98 -136l-320.98 -134v-85l390.976 173v94z" />
    <glyph glyph-name="question" unicode="?" 
d="M248 188v109q46 8 78.5 17t57 21.5t37.5 31t13 44.5q0 25 -10.5 44.5t-29 31.5t-42.5 18t-52 6q-22 0 -42 -4.5t-35.5 -11.5t-26.5 -16.5t-16 -19.5q11 -4 19 -10t13.5 -13t8.5 -15t3 -16q0 -12 -5 -23.5t-14.5 -21t-22 -14.5t-27.5 -5t-29 6t-24.5 17t-16 25.5
t-5.5 31.5q0 33 16.5 62.5t46.5 52.5t70.5 35.5t86.5 12.5q49 0 89.5 -12t70 -34.5t45 -54.5t15.5 -72q0 -36 -12.5 -63t-36 -46.5t-55.5 -33t-74 -24.5v-56h-94zM216 63q0 15 6 28.5t16.5 24t24 16.5t28.5 6t29 -6t24.5 -16.5t16 -24t5.5 -28.5t-5.5 -29t-16 -24.5
t-24.5 -16.5t-29 -6t-28.5 6t-24 16.5t-16.5 24.5t-6 29z" />
    <glyph glyph-name="at" unicode="@" 
d="M434 179q-8 -9 -18 -16.5t-23 -12.5t-28 -8t-32 -3q-30 0 -56.5 9.5t-46 27.5t-30 41.5t-10.5 51.5t10.5 51.5t30 41t46 27t56.5 9.5q17 0 31.5 -2.5t26.5 -7.5t22 -12t17 -16v7q0 42 -7.5 75.5t-24.5 57t-44.5 36.5t-66.5 13t-69 -14t-50 -40t-30.5 -63.5t-10.5 -84.5
v-148q0 -47 12.5 -84t35 -62t53 -38t66.5 -13q21 0 41.5 3.5t41 11t40.5 18.5t40 26l32 -63q-17 -15 -39.5 -27.5t-49 -22t-54 -14.5t-52.5 -5q-55 0 -100 18t-77 53t-49.5 85t-17.5 114v148q0 64 16.5 114.5t47.5 86t74.5 53.5t98.5 18q54 0 94.5 -17t67.5 -50.5t40 -81.5
t13 -110v-122q0 -8 2 -14.5t5.5 -11t8.5 -6.5t11 -2q5 0 10.5 1.5t10.5 5t10 7.5t13 11l24 -55q-9 -8 -18.5 -14.5t-20.5 -12t-22.5 -8.5t-23.5 -3t-23 2.5t-20.5 8t-18 13.5t-16.5 19zM427 283q-6 11 -14.5 20t-18.5 16t-22.5 11t-27.5 4q-17 0 -32 -4.5t-25.5 -13.5
t-16 -21t-5.5 -26t5.5 -26t16 -21t25.5 -14t32 -5q14 0 27 4t23 11t18.5 16t14.5 20v29z" />
    <glyph glyph-name="A" unicode="A" 
d="M303 488l-81 -225h164zM249 0h-239v73h62l188 497h94l188 -497h62v-73h-245v73h57l30 25l-34 92h-217l-33 -92l30 -25h57v-73z" />
    <glyph glyph-name="B" unicode="B" 
d="M214 261v-188h111q38 0 66 6.5t46.5 18.5t27 29.5t8.5 39.5t-8.5 39.5t-27 29.5t-46.5 18.5t-66 6.5h-111zM313 331q35 0 60.5 5.5t42 16.5t24.5 26.5t8 35.5t-8 35t-24.5 25.5t-42 16t-60.5 5.5h-99v-166h99zM434 301q24 -2 46 -14t39 -31.5t27 -42.5t10 -46
q0 -41 -14.5 -72.5t-43.5 -52.5t-72 -31.5t-99 -10.5h-300v73h78l31 31v362l-31 31h-78v73h289q53 0 93 -10t67 -30t41 -49t14 -66q0 -20 -6 -38.5t-18.5 -33.5t-31 -26t-41.5 -16z" />
    <glyph glyph-name="C" unicode="C" 
d="M553 99q-23 -27 -50 -48t-56.5 -35.5t-61 -22t-62.5 -7.5q-61 0 -110.5 22.5t-85 63.5t-54 96t-18.5 117q0 63 18.5 117.5t53 95.5t84 63.5t110.5 22.5q19 0 38 -4t37 -12t32.5 -19t24.5 -24l16 6v39h74v-206h-59q-9 28 -25 53.5t-37 45.5t-47 31t-55 11q-44 0 -77.5 -17
t-55.5 -47t-33 -70t-11 -86t12 -85.5t35 -69.5t56.5 -47t76.5 -17q24 0 48 6t46.5 17.5t43.5 28.5t39 38z" />
    <glyph glyph-name="D" unicode="D" 
d="M260 73q54 0 96 16t69.5 45t41.5 67.5t14 83.5t-14 83.5t-41.5 67.5t-69.5 45t-96 16h-62v-424h62zM30 0v73h59l31 30v363l-31 31h-59v73h230q73 0 131 -21t98 -59.5t60 -91t20 -113.5t-20 -113.5t-60 -91t-98 -59.5t-131 -21h-230z" />
    <glyph glyph-name="E" unicode="E" 
d="M442 73l31 31v103h76v-207h-522v73h78l31 31v362l-31 31h-78v73h518v-212h-76v108l-31 31h-224v-174h83l31 31v61h64v-250h-64v60l-31 31h-83v-183h228z" />
    <glyph glyph-name="F" unicode="F" 
d="M51 0v73h86l31 31v362l-31 31h-86v73h521v-212h-76v108l-31 31h-219v-174h85l31 31v53h64v-235h-64v53l-31 31h-85v-152l31 -31h114v-73h-340z" />
    <glyph glyph-name="G" unicode="G" 
d="M305 505q-43 0 -76 -16.5t-55 -46.5t-33 -70t-11 -86t11 -85.5t33.5 -70t55.5 -47.5t75 -17q21 0 41 6.5t37.5 18.5t33.5 27t32 34v47l-22 24h-75v73h236v-73h-36l-28 -29v-194h-75v43l-14 10q-14 -17 -31.5 -30t-36.5 -21t-38 -12t-37 -4q-55 0 -101.5 23t-80 64
t-51.5 96t-18 117t18 116.5t52.5 95.5t83 63.5t107.5 22.5q19 0 37.5 -4t36 -12t31.5 -19t24 -24l14 6v39h74v-192h-59q-10 27 -25 50t-35 40.5t-44 27t-51 9.5z" />
    <glyph glyph-name="H" unicode="H" 
d="M396 497h-48v73h236v-73h-48l-31 -31v-362l31 -31h48v-73h-236v73h48l31 31v157h-240v-157l31 -31h49v-73h-237v73h49l31 31v362l-31 31h-49v73h237v-73h-49l-31 -31v-132h240v132z" />
    <glyph glyph-name="I" unicode="I" 
d="M234 497h-135v73h416v-73h-135l-31 -31v-362l31 -31h135v-73h-416v73h135l31 31v362z" />
    <glyph glyph-name="J" unicode="J" 
d="M395 466l-31 31h-185v73h403v-73h-72l-31 -31v-254q0 -52 -16.5 -94t-46 -71.5t-68.5 -45t-83 -15.5q-47 0 -85.5 16t-66.5 43.5t-42.5 63.5t-14.5 76q0 20 6.5 38t18.5 31t28.5 20.5t34.5 7.5q17 0 31.5 -6t25 -15.5t16 -22t5.5 -25.5q0 -14 -6 -28t-16.5 -24.5
t-24.5 -15.5t-29 -2q4 -18 13 -33.5t23 -27t35 -18t48 -6.5q32 0 56 9.5t40.5 29t25 49.5t8.5 71v249z" />
    <glyph glyph-name="K" unicode="K" 
d="M267 0h-237v73h49l31 31v362l-31 31h-49v73h237v-73h-49l-31 -31v-207l209 213l-30 25h-31v73h229v-73h-54l-162 -165l189 -259h54v-73h-244v73h48l29 25l-131 178l-106 -107v-65l31 -31h49v-73z" />
    <glyph glyph-name="L" unicode="L" 
d="M321 570v-73h-69l-31 -31v-393h228l31 31v138h76v-242h-512v73h69l31 31v362l-31 31h-69v73h277z" />
    <glyph glyph-name="M" unicode="M" 
d="M263 195l-80 295h-23v-386l31 -31h49v-73h-221v73h36l31 31v362l-31 31h-36v73h214l75 -305l77 305h211v-73h-36l-31 -31v-362l31 -31h36v-73h-221v73h48l31 31v386h-22l-81 -295h-88z" />
    <glyph glyph-name="N" unicode="N" 
d="M423 0l-238 464v-360l31 -31h48v-73h-234v73h49l31 31v362l-31 31h-49v73h188l212 -429v325l-31 31h-49v73h234v-73h-48l-31 -31v-466h-82z" />
    <glyph glyph-name="O" unicode="O" 
d="M569 285q0 -62 -18.5 -117t-53 -96t-83 -63.5t-107.5 -22.5t-107.5 22.5t-83 63.5t-52.5 96t-18 117q0 63 18 117.5t52.5 95.5t83 63.5t107.5 22.5t107.5 -22.5t83 -63.5t53 -95.5t18.5 -117.5zM481 285q0 46 -11 86t-33 70t-55 47t-75 17t-74.5 -17t-54.5 -47t-33 -70
t-11 -86t11 -85.5t33 -70t54.5 -47t74.5 -16.5t75 16.5t55 47t33 70t11 85.5z" />
    <glyph glyph-name="P" unicode="P" 
d="M229 321h116q38 0 65.5 6t45 17t25.5 27.5t8 37.5t-8 37.5t-25.5 27.5t-45 17t-65.5 6h-116v-176zM229 248v-144l31 -31h130v-73h-363v73h93l31 31v362l-31 31h-93v73h320q56 0 99 -10.5t71.5 -30.5t43 -50.5t14.5 -69.5q0 -40 -14.5 -70t-43 -50.5t-71 -30.5t-99.5 -10
h-118z" />
    <glyph glyph-name="Q" unicode="Q" 
d="M417 10q-12 -6 -25.5 -10.5t-27 -7.5t-28 -4.5t-29.5 -1.5q-59 0 -107.5 22.5t-83 63.5t-52.5 96t-18 117q0 63 18 117.5t52.5 95.5t83 63.5t107.5 22.5t107.5 -22.5t83 -63.5t53 -95.5t18.5 -117.5q0 -34 -5.5 -66.5t-16.5 -61.5t-27 -54.5t-37 -45.5l68 -93l-66 -48z
M134 285q0 -46 11 -85.5t33 -70t54.5 -47t74.5 -16.5q8 0 16 0.5t16 2t15 3.5t14 5l-69 94l66 48l68 -94q12 15 21 33t15 38.5t9 42.5t3 46q0 46 -11 86t-33 70t-55 47t-75 17t-74.5 -17t-54.5 -47t-33 -70t-11 -86z" />
    <glyph glyph-name="R" unicode="R" 
d="M184 321h108q38 0 65.5 6t45 17t25.5 27.5t8 37.5t-8 37.5t-25.5 27.5t-45 17t-65.5 6h-108v-176zM30 0v73h46l31 31v362l-31 31h-46v73h264q56 0 99 -10.5t71.5 -30.5t43 -50.5t14.5 -69.5q0 -34 -10.5 -60.5t-31 -46.5t-51.5 -32.5t-72 -17.5l140 -176h88v-76h-190v73
l-135 175h-76v-144l31 -31h68v-73h-253z" />
    <glyph glyph-name="S" unicode="S" 
d="M339 62q27 0 48.5 6.5t36 19.5t22 30.5t7.5 38.5q0 18 -7 31.5t-18 23t-25 15.5t-30 10l-134 35q-38 10 -66.5 22.5t-49 30t-31.5 43t-11 60.5q0 34 13.5 63t38.5 50t59.5 32t76.5 11q22 0 42.5 -4.5t39 -12.5t34.5 -20t30 -26l19 9v40h77v-198h-66q-13 36 -33 62
t-43.5 42.5t-48.5 24t-51 7.5q-24 0 -43.5 -5.5t-33.5 -16t-21.5 -25t-7.5 -31.5t6.5 -29.5t19 -21t28.5 -14.5t39 -12l135 -37q33 -9 59 -22t45 -31.5t29.5 -43.5t10.5 -57q0 -39 -13.5 -71.5t-39 -56t-62 -36t-81.5 -12.5q-24 0 -48 5.5t-46 15t-41 23t-32 28.5l-18 -11
v-47h-77v220h66q13 -39 35 -69.5t49 -50t55.5 -29t56.5 -9.5z" />
    <glyph glyph-name="T" unicode="T" 
d="M562 570v-242h-76v138l-31 31h-106v-393l31 -31h115v-73h-376v73h115l31 31v393h-106l-31 -31v-138h-76v242h510z" />
    <glyph glyph-name="U" unicode="U" 
d="M307 -14q-43 0 -81 15t-66.5 42.5t-44 65t-15.5 80.5v277l-31 31h-49v73h237v-73h-49l-31 -31v-276q0 -28 10.5 -52t28.5 -41.5t41.5 -26.5t49.5 -9t49.5 9t41.5 26.5t28.5 41.5t10.5 52v276l-31 31h-48v73h236v-73h-48l-31 -31v-277q0 -43 -16 -80.5t-44.5 -65
t-66.5 -42.5t-81 -15z" />
    <glyph glyph-name="V" unicode="V" 
d="M260 0l-188 497h-62v73h249v-73h-58l-29 -25l139 -382l138 382l-29 25h-58v73h242v-73h-62l-188 -497h-94z" />
    <glyph glyph-name="W" unicode="W" 
d="M415 73h21l40 399l-20 25h-88v73h238v-73h-50l-55 -497h-137l-55 356l-54 -356h-142l-55 497h-50v73h243v-73h-88l-20 -25l40 -399h21l51 351h109z" />
    <glyph glyph-name="X" unicode="X" 
d="M604 73v-73h-245v73h49l20 16l-123 145l-128 -145l21 -16h49v-73h-237v73h60l188 215l-176 209h-43v73h235v-73h-55l-21 -16l112 -131l115 131l-20 16h-55v73h226v-73h-44l-177 -202l189 -222h60z" />
    <glyph glyph-name="Y" unicode="Y" 
d="M349 104l31 -31h115v-73h-376v73h115l31 31v101l-193 292h-62v73h261v-73h-57l-30 -25l126 -204l126 204l-29 25h-58v73h255v-73h-62l-193 -292v-101z" />
    <glyph glyph-name="Z" unicode="Z" 
d="M448 73l31 31v98h76v-202h-495v86l387 411h-265l-31 -31v-103h-76v207h457v-96l-379 -401h295z" />
    <glyph glyph-name="bracketleft" unicode="[" 
d="M239 -66h218v-73h-292v789h292v-73h-218v-643z" />
    <glyph glyph-name="backslash" unicode="\" 
d="M127.029 646l-68.9951 -39l428.974 -746l68.9961 40z" />
    <glyph glyph-name="bracketright" unicode="]" 
d="M375.015 -66h-217.986v-73h291.981v789h-291.981v-73h217.986v-643z" />
    <glyph glyph-name="asciicircum" unicode="^" 
d="M350 584l173 -245h-92l-121 176l-121 -176h-93l173 245h81z" />
    <glyph glyph-name="underscore" unicode="_" 
d="M145 -58h324v-81h-324v81z" />
    <glyph glyph-name="grave" unicode="`" 
d="M374 499l-117 88q-9 6 -16.5 13t-12.5 14.5t-7.5 15.5t-2.5 15q0 13 4 23.5t11.5 18.5t18 12t21.5 4q12 0 22 -4t17.5 -10.5t13.5 -15.5t10 -19l59 -136z" />
    <glyph glyph-name="a" unicode="a" 
d="M79 320q0 30 17.5 52.5t47.5 37t67 21.5t75 7q45 0 80 -11t59 -31.5t36 -49t12 -63.5v-175q0 -11 1.5 -19.5t5.5 -14.5t10 -9t15 -3q6 0 12 2t12.5 6t13.5 10t19 17l39 -55q-16 -16 -29.5 -26t-26.5 -17t-26.5 -10t-29.5 -3q-17 0 -33 5.5t-29 16.5t-21.5 27.5
t-11.5 36.5q-18 -17 -39.5 -32t-47 -27.5t-53 -19.5t-55.5 -7q-31 0 -56.5 7.5t-44 22t-28.5 36t-10 48.5q0 25 9.5 44.5t27 34t42.5 25t58 18.5l196 55v9q0 21 -8 37t-24 27.5t-38 17t-49 5.5q-19 0 -33 -1t-25.5 -3t-21.5 -5t-22 -7q6 -2 11.5 -6t9.5 -10t6.5 -14t2.5 -17
q0 -11 -4.5 -20.5t-12.5 -16.5t-19 -11t-24 -4t-25 4.5t-20.5 12.5t-13 19.5t-4.5 25.5zM393 218l-179 -57q-14 -3 -26 -7.5t-21.5 -11t-15 -15.5t-5.5 -21t5 -21.5t13.5 -16t20 -9.5t25.5 -3q23 0 46.5 6.5t46.5 18t45.5 27.5t44.5 36v74z" />
    <glyph glyph-name="b" unicode="b" 
d="M184 162q13 -24 28.5 -42.5t34 -31.5t41.5 -20.5t51 -7.5q32 0 58 11.5t44.5 32t28 48.5t9.5 60t-9.5 60t-28 48.5t-44.5 32t-58 11.5q-28 0 -51 -7.5t-41.5 -20.5t-34 -31.5t-28.5 -42.5v-100zM40 0v73h53l16 16v435l-16 16h-58v73h149v-260q11 16 26.5 31t36 27.5
t46 19.5t53.5 7q46 0 85.5 -17t69 -48t45.5 -72.5t16 -88.5t-16 -88t-45.5 -72t-69 -48.5t-85.5 -17.5q-28 0 -53.5 7t-46 19.5t-36 27.5t-26.5 31v-71h-144z" />
    <glyph glyph-name="c" unicode="c" 
d="M393 279q0 9 2.5 16.5t7.5 14t12 12t17 8.5q-8 8 -18.5 14t-24 11t-30 7.5t-36.5 2.5q-31 0 -60.5 -10.5t-52.5 -30.5t-36.5 -48.5t-13.5 -63.5q0 -30 10 -56.5t30 -48t51 -33.5t72 -12q24 0 46 4.5t43 13t40.5 21t40.5 28.5l45 -59q-25 -21 -51 -36.5t-53 -26t-54.5 -16
t-56.5 -5.5q-54 0 -100 17t-80 48t-52 72.5t-18 88.5t19.5 88.5t54.5 72.5t81 48t97 17q46 0 85 -11.5t66.5 -32t42.5 -47t15 -56.5q0 -16 -5.5 -30.5t-16 -25.5t-23.5 -17t-28 -6t-27.5 5.5t-21.5 14.5t-14 21.5t-5 25.5z" />
    <glyph glyph-name="d" unicode="d" 
d="M430 262q-13 24 -28.5 42.5t-34 31.5t-41.5 20.5t-51 7.5q-32 0 -57.5 -11.5t-44 -32t-28 -48.5t-9.5 -60t9.5 -60t28 -48.5t44 -32t57.5 -11.5q28 0 51 7.5t41.5 20.5t34 31.5t28.5 42.5v100zM505 613v-524l16 -16h53v-73h-144v71q-11 -16 -26.5 -31t-35.5 -27.5
t-45.5 -19.5t-53.5 -7q-46 0 -86 17t-69.5 48t-45.5 72.5t-16 88.5t16 88t45.5 72t69.5 48.5t86 17.5q28 0 53.5 -7t45.5 -19.5t35.5 -27.5t26.5 -31v171l-16 16h-98v73h189z" />
    <glyph glyph-name="e" unicode="e" 
d="M453 253q-6 23 -18.5 43.5t-30.5 36t-41.5 24t-51.5 8.5t-53 -8t-46 -23.5t-35 -37t-20 -48.5h297zM531 70q-25 -21 -50.5 -36.5t-52 -26t-53.5 -16t-55 -5.5q-54 0 -99.5 17t-78.5 48t-51 72t-18 89q0 47 17.5 88.5t50 72.5t76 48t94.5 17q58 0 102.5 -20.5t74 -56.5
t44.5 -81t15 -94h-392q4 -26 16.5 -49t33.5 -40t50 -27t65 -10q24 0 46 4t42.5 12t40.5 20t40 28z" />
    <glyph glyph-name="f" unicode="f" 
d="M422 407v-73h-137l-31 -31v-199l31 -31h137v-73h-358v73h84l31 31v199l-31 31h-84v73h115q0 48 15.5 88.5t45.5 70t72.5 45.5t95.5 16q39 0 72 -10t56 -28t35.5 -41.5t12.5 -49.5q0 -17 -5.5 -31t-15.5 -24t-24 -15.5t-30 -5.5q-15 0 -28 4.5t-22.5 12.5t-14.5 18.5
t-5 22.5q0 11 4 20t11 16.5t16 12t20 5.5q-6 8 -14.5 14t-18.5 10t-22 6t-25 2q-34 0 -63 -10.5t-49.5 -30.5t-32 -50t-11.5 -68h168z" />
    <glyph glyph-name="g" unicode="g" 
d="M372 285q0 18 -7.5 33t-20.5 26t-31 17t-39 6t-39 -6t-31 -17t-20.5 -26t-7.5 -33t7.5 -33.5t20.5 -26.5t31 -17t39 -6t39 6t31 17t20.5 26.5t7.5 33.5zM564 -43q0 -33 -19 -62t-54 -51t-83.5 -34t-106.5 -12q-62 0 -111 9.5t-83 27.5t-51.5 44.5t-17.5 59.5q0 15 4 28.5
t12 25t18.5 21t23.5 18.5q-7 6 -12 13.5t-8.5 16t-5 16.5t-1.5 16q0 16 4.5 29.5t12.5 25t19.5 21t26.5 17.5q-9 10 -16 21.5t-12 24t-7.5 25.5t-2.5 27q0 32 13 60t37 49t57.5 32.5t72.5 11.5q12 0 23 -1t22 -3t20.5 -5t19.5 -7q11 19 25.5 34.5t32 27.5t38 18.5t43.5 6.5
t42.5 -7t34.5 -20t23 -30.5t8 -38.5q0 -15 -5 -28t-13 -22t-19.5 -14t-23.5 -5q-13 0 -24.5 4.5t-19.5 12.5t-12 18t-4 21q0 6 1.5 12t5 11.5t8 9.5t10.5 7q-2 2 -4 3t-4.5 2t-5.5 1.5t-7 0.5q-12 0 -23.5 -4t-22 -11t-19.5 -17.5t-17 -23.5q11 -10 20 -22t15 -25.5t9 -28.5
t3 -30q0 -32 -13 -60t-37 -49.5t-57.5 -33t-72.5 -11.5q-13 0 -25.5 1.5t-24.5 4t-23 6.5t-21 9q-9 -5 -15.5 -10.5t-11.5 -11t-7.5 -11.5t-2.5 -13q0 -6 2.5 -12t7 -10t12 -6.5t16.5 -2.5h231q35 0 62.5 -7t48 -21.5t31 -37t10.5 -52.5zM149 -4q-7 -5 -12.5 -11t-9.5 -12
t-6 -13t-2 -14q0 -18 12 -32.5t35.5 -24t57.5 -14.5t77 -5q41 0 75.5 6.5t59 18t37.5 26.5t13 32q0 12 -5 20.5t-14 13.5t-21 7t-27 2h-270z" />
    <glyph glyph-name="h" unicode="h" 
d="M199 104l31 -31h54v-73h-245v73h54l31 31v405l-31 31h-54v73h160v-257q11 15 26.5 29.5t35.5 26.5t43.5 19t48.5 7q34 0 63.5 -10.5t51.5 -30.5t34.5 -50.5t12.5 -68.5v-174l31 -31h54v-73h-245v73h54l31 31v145q0 25 -4 45t-13.5 36t-28 25t-45.5 9q-26 0 -48 -6.5
t-40.5 -19t-33.5 -31t-28 -42.5v-161z" />
    <glyph glyph-name="i" unicode="i" 
d="M398 73h141v-73h-441v73h163l31 31v216l-31 31h-163v73h269v-320zM238 582q0 16 5.5 30t16 24.5t24 16.5t28.5 6q16 0 30.5 -6t24.5 -16t16 -24.5t6 -30.5q0 -15 -6 -28.5t-16.5 -24t-24.5 -16t-30 -5.5q-15 0 -28.5 5.5t-24 16t-16 24t-5.5 28.5z" />
    <glyph glyph-name="j" unicode="j" 
d="M69 -34q0 19 6 35.5t17 29t26 19.5t32 7q16 0 30 -5t23.5 -14.5t14.5 -21.5t5 -25q0 -11 -4.5 -22t-13 -19.5t-19.5 -14t-23 -5.5q5 -14 15 -25.5t24 -19.5t30.5 -12.5t34.5 -4.5q32 0 57 10.5t41.5 31t25 50.5t8.5 70v290l-31 31h-203v73h309v-399q0 -53 -15.5 -95
t-43 -70.5t-65.5 -43t-83 -14.5q-40 0 -76.5 13t-63.5 36t-42.5 53t-15.5 62zM343 582q0 16 5.5 30.5t15.5 24.5t23.5 16t29.5 6t30.5 -6t24.5 -16t16 -24.5t6 -30.5q0 -15 -6 -28.5t-16.5 -24t-24.5 -16t-30 -5.5q-15 0 -29 5.5t-24 16t-15.5 24t-5.5 28.5z" />
    <glyph glyph-name="k" unicode="k" 
d="M272 0h-235v73h49l31 31v405l-31 31h-56v73h162v-403l198 127l-2 14h-54v73h232v-73h-44l-183 -115l142 -163h107v-73h-209v74l-104 121l-83 -52v-39l31 -31h49v-73z" />
    <glyph glyph-name="l" unicode="l" 
d="M398 73h141v-73h-441v73h163l31 31v405l-31 31h-163v73h269v-509z" />
    <glyph glyph-name="m" unicode="m" 
d="M449 0v318q0 9 -2 17t-7 14.5t-12.5 10t-17.5 3.5t-19 -4t-17 -12.5t-15 -22t-14 -31.5v-204l16 -16h34v-73h-122v318q0 9 -2 17t-7 14.5t-12.5 10t-17.5 3.5t-19 -4t-17 -12.5t-15.5 -22t-14.5 -31.5v-204l16 -16h34v-73h-186v73h48l16 16v246l-16 16h-48v73h136v-60
q5 17 13.5 30.5t19 23t24.5 15t30 5.5q17 0 31.5 -5.5t25 -15t18 -22.5t11.5 -28q5 15 14 28t21 23t26.5 15t31.5 5q20 0 36.5 -7t27.5 -20t17 -31t6 -40v-251l16 -16h55v-73h-143z" />
    <glyph glyph-name="n" unicode="n" 
d="M199 104l31 -31h54v-73h-245v73h54l31 31v216l-31 31h-54v73h160v-68q11 15 26.5 29.5t35.5 26.5t43.5 19t48.5 7q34 0 63.5 -10.5t51.5 -30.5t34.5 -50.5t12.5 -68.5v-174l31 -31h54v-73h-245v73h54l31 31v145q0 25 -4 45t-13.5 36t-28 25t-45.5 9q-26 0 -48 -6.5
t-40.5 -19t-33.5 -31t-28 -42.5v-161z" />
    <glyph glyph-name="o" unicode="o" 
d="M68 212q0 47 18 88.5t50.5 72.5t76.5 48t94 17q51 0 94.5 -17t76 -48t50.5 -72.5t18 -88.5t-18 -88.5t-50.5 -72.5t-76 -48t-94.5 -17q-50 0 -94 17t-76.5 48t-50.5 72.5t-18 88.5zM459 212q0 32 -11 59.5t-31 48t-48 31.5t-62 11t-62 -11t-48 -31.5t-31 -48t-11 -59.5
t11 -59.5t31 -48t48 -31.5t62 -11t62 11t48 31.5t31 48t11 59.5z" />
    <glyph glyph-name="p" unicode="p" 
d="M184 162q13 -24 28.5 -42.5t34 -31.5t41.5 -20.5t51 -7.5q32 0 58 11.5t44.5 32t28 48.5t9.5 60t-9.5 60t-28 48.5t-44.5 32t-58 11.5q-28 0 -51 -7.5t-41.5 -20.5t-34 -31.5t-28.5 -42.5v-100zM184 -99l16 -16h98v-73h-258v73h53l16 16v434l-16 16h-53v73h144v-71
q11 16 26.5 31t36 27.5t46 19.5t53.5 7q46 0 85.5 -17t69 -48t45.5 -72.5t16 -88.5t-16 -88t-45.5 -72t-69 -48.5t-85.5 -17.5q-28 0 -53.5 7t-46 19.5t-36 27.5t-26.5 31v-170z" />
    <glyph glyph-name="q" unicode="q" 
d="M430.012 162q-13 -24 -28.499 -42.5t-33.998 -31.5q-18.498 -13 -41.4971 -20.5t-50.9971 -7.5q-31.998 0 -57.9961 11.5q-25.999 11.5 -44.4971 32q-18.499 20.5 -27.999 48.5q-9.49902 28 -9.49902 60t9.49902 60q9.5 28 27.999 48.5q18.498 20.5 44.4971 32
q25.998 11.5 57.9961 11.5q27.998 0 50.9971 -7.5t41.4971 -20.5q18.499 -13 33.998 -31.5t28.499 -42.5v-100zM430.012 -99l-16 -16h-97.9932v-73h257.983v73h-52.9961l-15.999 16v434l15.999 16h52.9961v73h-143.99v-71q-11 16 -26.499 31t-35.998 27.5
q-20.498 12.5 -45.9971 19.5q-25.498 7 -53.4961 7q-45.998 0 -85.4951 -17q-39.498 -17 -68.9961 -48t-45.4971 -72.5t-15.999 -88.5t15.999 -88t45.4971 -72t68.9961 -48.5q39.4971 -17.5 85.4951 -17.5q27.998 0 53.4961 7q25.499 7 45.9971 19.5
q20.499 12.5 35.998 27.5t26.499 31v-170z" />
    <glyph glyph-name="r" unicode="r" 
d="M429 289q0 11 4 20.5t11.5 16.5t17.5 10.5t21 3.5h4t4 -0.5l4 -1t3 -1.5q0 1 -1 2.5t-1.5 3t-2 3l-2.5 2.5q-3 5 -7 8.5t-10.5 6.5t-14.5 4.5t-18 1.5q-24 0 -48 -10t-48.5 -28.5t-49 -44.5t-54.5 -61v-121l31 -31h168v-73h-387v73h82l31 31v216l-31 31h-82v73h188v-111
q22 27 44.5 49.5t47.5 39.5t52 26.5t54 9.5q34 0 60 -10t42 -27.5t24 -38.5t8 -44q0 -17 -5.5 -33t-15.5 -28.5t-24.5 -20t-32.5 -7.5q-14 0 -26 3.5t-21 11t-14 19t-5 26.5z" />
    <glyph glyph-name="s" unicode="s" 
d="M230 193q-34 7 -59 17.5t-42.5 25t-26.5 34.5t-9 46q0 27 12 49.5t33 39t49.5 25t60.5 8.5q23 0 45.5 -4t43 -11t38 -18t30.5 -24l18 6v37h71v-150h-58q-14 21 -34 38.5t-44 31t-49 20.5t-49 7q-19 0 -34.5 -3.5t-27 -10.5t-18 -16.5t-6.5 -20.5q0 -12 5.5 -20.5
t15.5 -14.5t24 -10t34 -8l156 -33q27 -6 48 -15t36.5 -22.5t23.5 -33t8 -45.5q0 -31 -12 -55.5t-35 -41.5t-54.5 -26t-69.5 -9q-30 0 -57.5 5.5t-50.5 15t-41 21.5t-31 26l-18 -12v-42h-70v162h65q19 -24 40.5 -43.5t46.5 -34t53 -22.5t59 -8q20 0 37 3.5t30 11t20 19.5
t7 27q0 11 -5 19t-13.5 13.5t-19.5 9t-27 6.5z" />
    <glyph glyph-name="t" unicode="t" 
d="M138 351h-94v73h125v154h78v-154h235v-73h-205l-31 -31v-122q0 -34 7.5 -59.5t22 -42.5t36 -25.5t50.5 -8.5q24 0 45 6t39 17t34 26.5t34 37.5l49 -48q-17 -25 -39.5 -46t-48 -36.5t-54.5 -24t-59 -8.5q-45 0 -80.5 11.5t-60.5 36t-38.5 63t-13.5 90.5v133z" />
    <glyph glyph-name="u" unicode="u" 
d="M501 424v-320l31 -31h54v-73h-160v68q-11 -16 -26.5 -30t-34.5 -26t-42.5 -19t-48.5 -7q-35 0 -65 10.5t-52 30.5t-34.5 50.5t-12.5 68.5v174l-31 31h-54v73h160v-249q0 -28 5 -49.5t15.5 -36t28.5 -22t43 -7.5q26 0 47.5 6.5t40 19t33.5 31t28 42.5v161l-31 31h-54v73
h160z" />
    <glyph glyph-name="v" unicode="v" 
d="M366 424h217v-73h-53l-188 -351h-69l-188 351h-54v73h225v-73h-49l-20 -22l124 -242l125 242l-21 22h-49v73z" />
    <glyph glyph-name="w" unicode="w" 
d="M413 62h19l47 272l-16 17h-71v73h206v-73h-42l-70 -351h-122l-57 244l-56 -244h-122l-70 351h-43v73h210v-73h-71l-16 -17l47 -272h18l53 243h103z" />
    <glyph glyph-name="x" unicode="x" 
d="M357 217l184 -144h43v-73h-242v73h63l13 16l-111 91l-112 -91l13 -16h63v-73h-241v73h43l184 143l-172 135h-45v73h236v-73h-55l-13 -16l99 -82l100 82l-13 16h-56v73h235v-73h-45z" />
    <glyph glyph-name="y" unicode="y" 
d="M22 -78q0 18 6 34.5t17.5 29t26.5 19.5t32 7q14 0 26 -4t21.5 -12.5t14.5 -20t5 -25.5q0 -13 -5 -24.5t-14 -19t-22 -11.5t-29 -3q3 -8 8 -13.5t12 -9t15 -5t16 -1.5q16 0 31 9.5t29 28t28.5 44t34.5 65.5l-184 341h-53v73h225v-73h-49l-21 -22l125 -241l124 241l-20 22
h-49v73h217v-73h-54l-196 -366q-27 -51 -45 -81t-39 -54.5t-46.5 -38t-57.5 -13.5q-28 0 -51.5 9t-41.5 25t-27.5 39t-9.5 51z" />
    <glyph glyph-name="z" unicode="z" 
d="M434 69l31 31v87h73v-187h-463v80l348 275h-231l-31 -31v-82h-73v182h435v-80l-350 -275h261z" />
    <glyph glyph-name="braceleft" unicode="{" 
d="M85 214v78h60q21 0 37 3t27.5 10.5t17.5 20t6 30.5q0 8 -3 19t-12.5 47t-14 58t-4.5 38q0 29 11 54t31.5 43t49.5 28t65 10q16 0 32.5 -2t32 -5.5t29.5 -8.5t25 -11l-17 -72q-10 6 -23 11t-26.5 8t-25.5 4.5t-21 1.5q-21 0 -36.5 -5t-25.5 -13.5t-15 -21t-5 -28.5
q0 -14 4.5 -33t13 -49t12.5 -46t4 -27q0 -21 -8 -38.5t-20.5 -30.5t-27.5 -21.5t-30 -12.5q15 -4 30 -12.5t27.5 -21.5t20.5 -30.5t8 -38.5q0 -10 -4 -25.5t-12.5 -46t-13 -50t-4.5 -33.5q0 -15 5 -27.5t15 -21.5t25.5 -14t36.5 -5q9 0 21 1.5t25.5 5t26.5 8t23 10.5l17 -71
q-11 -6 -25 -11.5t-29.5 -9t-32 -5.5t-32.5 -2q-36 0 -65 10t-49.5 28.5t-31.5 43.5t-11 54q0 16 4.5 38t14.5 59t12.5 47t2.5 17q0 19 -6 31.5t-17.5 19.5t-27.5 10t-37 3h-60z" />
    <glyph glyph-name="bar" unicode="|" 
d="M349 -141h-83v788h83v-788z" />
    <glyph glyph-name="braceright" unicode="}" 
d="M529.005 214v78h-59.9961q-20.999 0 -36.998 3t-27.498 10.5t-17.499 20q-5.99902 12.5 -5.99902 30.5q0 8 2.99902 19q3 11 12.5 47q9.49902 36 13.999 58q4.49902 22 4.49902 38q0 29 -10.999 54t-31.498 43t-49.4971 28t-64.9961 10q-15.999 0 -32.498 -2
t-31.998 -5.5t-29.498 -8.5t-24.998 -11l16.999 -72q9.99902 6 22.998 11t26.499 8q13.499 3 25.498 4.5t20.999 1.5q20.998 0 36.4971 -5t25.499 -13.5q9.99902 -8.5 14.999 -21t5 -28.5q0 -14 -4.5 -33t-12.999 -49q-8.5 -30 -12.5 -46q-3.99902 -16 -3.99902 -27
q0 -21 7.99902 -38.5q8 -17.5 20.499 -30.5t27.498 -21.5t29.998 -12.5q-14.999 -4 -29.998 -12.5t-27.498 -21.5t-20.499 -30.5q-7.99902 -17.5 -7.99902 -38.5q0 -10 3.99902 -25.5q4 -15.5 12.5 -46q8.49902 -30.5 12.999 -50t4.5 -33.5q0 -15 -5 -27.5t-14.999 -21.5
q-10 -9 -25.499 -14t-36.4971 -5q-9 0 -20.999 1.5t-25.498 5q-13.5 3.5 -26.499 8t-22.998 10.5l-16.999 -71q10.999 -6 24.998 -11.5t29.498 -9t31.998 -5.5t32.498 -2q35.998 0 64.9961 10t49.4971 28.5t31.498 43.5t10.999 54q0 16 -4.49902 38q-4.5 22 -14.499 59
q-10 37 -12.5 47q-2.49902 10 -2.49902 17q0 19 5.99902 31.5q6 12.5 17.499 19.5t27.498 10t36.998 3h59.9961z" />
    <glyph glyph-name="asciitilde" unicode="~" 
d="M509 347q0 -34 -8.5 -61t-23.5 -46t-36 -29t-46 -10q-23 0 -44 9.5t-49.5 28.5t-42.5 26.5t-28 7.5q-11 0 -20 -4.5t-16.5 -13.5t-11.5 -21.5t-4 -28.5h-74q0 33 8.5 60t23.5 46.5t36 29.5t46 10q22 0 43 -9.5t49.5 -28t43 -26.5t29.5 -8q10 0 19.5 4.5t16.5 13.5
t11 21.5t4 28.5h74z" />
    <glyph glyph-name="uni00A0" unicode="&#xa0;" 
 />
    <glyph glyph-name="exclamdown" unicode="&#xa1;" 
d="M307 483.999q-15 0 -28.5 -5.99902q-13.5 -6 -24 -16.499q-10.5 -10.5 -16.5 -24.499t-6 -28.998t6 -28.498t16.5 -23.999q10.5 -10.499 24 -16.499q13.5 -5.99902 28.5 -5.99902t29 5.99902q14 6 24.5 16.499q10.5 10.5 16 23.999t5.5 28.498t-5.5 28.998t-16 24.499
q-10.5 10.499 -24.5 16.499q-14 5.99902 -29 5.99902zM284 274.012l-46 -298.981q-3 -17.999 0.5 -33.498t12.5 -27.998t23.5 -19.499t32.5 -7t32.5 7t23.5 19.499t12.5 27.998t0.5 33.498l-46 298.981h-46z" />
    <glyph glyph-name="cent" unicode="&#xa2;" 
d="M538 70q-23 -19 -47.5 -34t-49 -25.5t-50.5 -16.5t-52 -8v-129h-71v134q-43 8 -79 27.5t-62 49t-40 66.5t-14 78q0 40 14.5 77t41 66t62.5 49t77 28v147h71v-141q43 -2 79.5 -15.5t62.5 -34.5t39.5 -48t13.5 -55q0 -15 -5.5 -28t-15 -23.5t-22 -16t-26.5 -5.5
q-13 0 -25 5t-20.5 14t-13.5 20.5t-5 23.5q0 8 2.5 15.5t7 14t11.5 11.5t16 8q-7 8 -17 15t-22.5 12.5t-27.5 9t-32 4.5v-302q21 1 41 6t38.5 13.5t37 20t37.5 26.5zM268 356q-23 -7 -42.5 -20t-34.5 -31.5t-23 -42t-8 -50.5q0 -24 6.5 -46.5t20 -41.5t34 -33.5t47.5 -21.5
v287z" />
    <glyph glyph-name="sterling" unicode="&#xa3;" 
d="M585 122q0 -37 -10 -66t-28 -49t-42 -30t-51 -10q-32 0 -65 13.5t-80.5 40t-74.5 38.5t-51 12q-15 0 -26.5 -5t-20 -14t-13 -22.5t-4.5 -29.5h-77q0 30 7 55.5t20.5 44.5t31 31.5t38.5 18.5v93h-75v72h75v26q0 49 14.5 93t43.5 78t72.5 53t98.5 19q41 0 74 -13.5
t55.5 -36t34 -50t11.5 -56.5q0 -17 -5.5 -31t-15 -24.5t-23.5 -16.5t-30 -6q-15 0 -28 5t-22.5 13t-14.5 19t-5 23q0 11 4 20.5t11 17t16 12.5t20 6q-6 9 -14 17t-18.5 13.5t-22.5 8.5t-25 3q-36 0 -63.5 -11.5t-46 -33t-28 -52.5t-9.5 -70v-26h153v-72h-153v-98
q26 -8 46 -18.5t62 -33.5t66.5 -33t44.5 -10q15 0 27.5 5t21 14.5t13 23t4.5 29.5h77v0z" />
    <glyph glyph-name="yen" unicode="&#xa5;" 
d="M495 0h-376v73h119l31 31v61h-198v59h185l-41 61h-144v59h104l-103 153h-62v73h261v-73h-65l-29 -25l133 -204l134 204l-30 25h-65v73h255v-73h-62l-103 -153h105v-59h-145l-41 -61h186v-59h-199v-61l31 -31h119v-73z" />
    <glyph glyph-name="brokenbar" unicode="&#xa6;" 
d="M349 195v-336h-83v336h83zM349 285h-83v362h83v-362z" />
    <glyph glyph-name="section" unicode="&#xa7;" 
d="M373 102q12 -8 23 -15.5t20 -15.5t17 -15.5t14 -15.5q4 6 7.5 12t6 12t4 12.5t1.5 12.5q0 13 -4.5 25t-12 22t-18.5 19.5t-25 18.5l-160 105l-5 3q-12 8 -23 16t-20 15.5t-17 15.5t-14 16q-4 -6 -7.5 -12.5t-6 -12.5t-4 -12.5t-1.5 -12.5q0 -13 4.5 -25t12 -22
t18.5 -19.5t25 -18.5l160 -104zM298 -200q-50 0 -89 13.5t-65.5 37t-39.5 53t-13 61.5q0 15 5 28t14 23.5t20.5 16t25.5 5.5t25.5 -4.5t20.5 -13t13.5 -19t4.5 -22.5q0 -8 -2 -15.5t-6 -14t-10.5 -11.5t-15.5 -8q6 -12 14 -21.5t21 -18t32 -13.5t45 -5q23 0 42 6t33 16
t21 23.5t7 28.5t-4 27t-11.5 22t-18 18.5t-25.5 18.5l-154 99q-27 18 -47 34.5t-35.5 35.5t-23.5 41.5t-8 48.5q0 16 4.5 32.5t13 32.5t20 30t24.5 26q0 4 -0.5 7.5l-1 7t-0.5 7.5v8q0 30 13 56t37.5 45.5t58 30t73.5 10.5q50 0 89 -13.5t65.5 -37t39.5 -53t13 -61.5
q0 -15 -5 -28t-14 -23.5t-20.5 -16t-25.5 -5.5t-25.5 4.5t-20.5 13t-13.5 19t-4.5 22.5q0 8 2 15.5t6.5 14t11 11.5t15.5 8q-7 12 -15 21.5t-21 18t-32 13.5t-45 5q-23 0 -42 -6t-32.5 -16t-20.5 -23.5t-7 -28.5t4 -27t11.5 -22t17.5 -18.5t25 -18.5l154 -99
q27 -17 47.5 -34t35.5 -36t23 -41t8 -48q0 -16 -4.5 -33t-13 -33t-19.5 -30t-25 -26q0 -4 0.5 -7.5l1 -7t0.5 -7.5v-8q0 -30 -13 -56t-37.5 -45.5t-58 -30t-73.5 -10.5z" />
    <glyph glyph-name="dieresis" unicode="&#xa8;" 
d="M415 512q-15 0 -28.5 5.5t-24 15.5t-16 23.5t-5.5 27.5q0 15 5.5 28.5t16 23.5t24 15.5t28.5 5.5t28.5 -5.5t24 -15.5t16 -23.5t5.5 -28.5q0 -14 -5.5 -27.5t-16 -23.5t-24 -15.5t-28.5 -5.5zM200 513q-15 0 -28.5 5.5t-24 15.5t-16 23t-5.5 28t5.5 28t16 23.5t24 16
t28.5 5.5t28.5 -5.5t24 -16t16 -23.5t5.5 -28t-5.5 -28t-16 -23t-24 -15.5t-28.5 -5.5z" />
    <glyph glyph-name="copyright" unicode="&#xa9;" 
d="M436 186q-13 -14 -28.5 -25.5t-32.5 -19t-34.5 -11.5t-34.5 -4q-34 0 -62.5 12t-48 33.5t-30 50t-10.5 61.5t10.5 61t30 49.5t47.5 33.5t62 12q10 0 20.5 -2t20 -6t17.5 -9.5t14 -11.5l9 3v19h44v-112h-38q-5 13 -13.5 25.5t-19.5 22t-25 15t-29 5.5q-23 0 -40 -8
t-28.5 -22.5t-17 -33.5t-5.5 -41t6 -41.5t18 -34.5t29.5 -23t39.5 -8q12 0 24.5 3t24.5 9t23 14.5t21 18.5zM27 284q0 56 21.5 107t60.5 89.5t90 60t108 21.5t108 -21.5t90 -60t60.5 -89.5t21.5 -107t-21.5 -107t-60.5 -89.5t-90 -60t-108 -21.5t-108 21.5t-90 60
t-60.5 89.5t-21.5 107zM72 284q0 -47 18.5 -89.5t51.5 -75t75.5 -50.5t89.5 -18t90 18t75.5 50.5t51 75t18.5 89.5t-18.5 89.5t-51 75.5t-75.5 51t-90 18t-89.5 -18t-75.5 -51t-51.5 -75.5t-18.5 -89.5z" />
    <glyph glyph-name="ordfeminine" unicode="&#xaa;" 
d="M132 538q0 21 13 38t35.5 28t49.5 16.5t55 5.5q33 0 59 -8.5t44 -23t27 -35t9 -43.5v-124q0 -6 1 -10.5t3 -8t5.5 -5t9.5 -1.5q4 0 7.5 1.5t8 4t9.5 6t15 11.5l30 -44q-13 -12 -23 -19.5t-20 -12.5t-20 -7t-22 -2t-23 4t-20.5 11t-16 18t-8.5 25q-14 -11 -29.5 -21
t-33.5 -18.5t-38 -13.5t-39 -5q-23 0 -41.5 5t-31.5 15.5t-20 25.5t-7 35q0 17 6 29t17.5 21t27 15.5t37.5 13.5l151 44v9q0 13 -6 23t-17.5 17t-27 11t-34.5 4q-13 0 -23.5 -0.5t-18.5 -1.5t-15 -3t-15 -4q4 -2 8 -5t7 -6.5t4.5 -9t1.5 -12.5q0 -8 -3 -15t-9 -12t-14 -8
t-18 -3t-18.5 3t-15 9t-10 14.5t-3.5 18.5zM359 464l-134 -45q-8 -2 -14 -4.5t-10.5 -6.5t-7 -9t-2.5 -11q0 -7 2.5 -12.5t7.5 -9.5t12 -5.5t16 -1.5q16 0 32.5 4.5t33 12.5t32.5 18.5t32 23.5v46zM215 79q0 19 7 35.5t20 29.5t30 20t35 7q19 0 35.5 -7t29.5 -20t20 -29.5
t7 -35.5q0 -18 -7 -35t-20 -30t-29.5 -20t-35.5 -7q-18 0 -35 7t-30 20t-20 30t-7 35z" />
    <glyph glyph-name="guillemotleft" unicode="&#xab;" 
d="M510 90l-60 -51l-147 183l147 183l60 -50l-109 -133zM288 90l-61 -51l-147 183l147 183l61 -50l-110 -133z" />
    <glyph glyph-name="registered" unicode="&#xae;" 
d="M27 284q0 56 21.5 107t60.5 89.5t90 60t108 21.5t108 -21.5t90 -60t60.5 -89.5t21.5 -107t-21.5 -107t-60.5 -89.5t-90 -60t-108 -21.5t-108 21.5t-90 60t-60.5 89.5t-21.5 107zM72 284q0 -47 18.5 -89.5t51.5 -75t75.5 -50.5t89.5 -18t90 18t75.5 50.5t51 75t18.5 89.5
t-18.5 89.5t-51 75.5t-75.5 51t-90 18t-89.5 -18t-75.5 -51t-51.5 -75.5t-18.5 -89.5zM256 305h52q17 0 30 2.5t22 8t13.5 13.5t4.5 18q0 11 -4.5 19t-13 13t-22 7.5t-30.5 2.5h-52v-84zM168 130v42h24l16 17v186l-16 17h-24v41h141q30 0 52.5 -5.5t38 -16.5t23 -27t7.5 -37
q0 -18 -5.5 -32t-16 -24.5t-26.5 -17.5t-37 -10l75 -90h33v-43h-95v42l-70 89h-32v-72l17 -17h25v-42h-130z" />
    <glyph glyph-name="macron" unicode="&#xaf;" 
d="M153 594h309v-73h-309v73z" />
    <glyph glyph-name="degree" unicode="&#xb0;" 
d="M460 473q0 -31 -12 -59.5t-33 -49.5t-49 -33t-59 -12t-59 12t-49 33t-33 49.5t-12 59.5q0 32 12 60t33 49t49 33t59 12t59 -12t49 -33t33 -49t12 -60zM391 473q0 18 -6.5 33.5t-18 27.5t-27 18.5t-32.5 6.5t-32.5 -6.5t-27 -18.5t-18 -27.5t-6.5 -33.5q0 -17 6.5 -33
t18 -28t27 -18.5t32.5 -6.5t32.5 6.5t27 18.5t18 28t6.5 33z" />
    <glyph glyph-name="plusminus" unicode="&#xb1;" 
d="M343 167h-72v152h-185v72h185v152h72v-152h186v-72h-186v-152zM86 113h443v-72h-443v72z" />
    <glyph glyph-name="twosuperior" unicode="&#xb2;" 
d="M142 520q15 22 34.5 40.5t43.5 32.5t50 22t52 8q32 0 56.5 -9t40.5 -24.5t24 -36.5t8 -45q0 -23 -9.5 -42.5t-25.5 -36t-31.5 -28.5t-45.5 -33l-119 -86h159l26 25v40h63v-124h-322v80l145 111q41 31 47 35.5t16 15t15.5 21.5t5.5 25q0 9 -3.5 17.5t-10 15t-16.5 10
t-23 3.5q-17 0 -34 -5.5t-33.5 -16.5t-31.5 -25t-27 -31z" />
    <glyph glyph-name="threesuperior" unicode="&#xb3;" 
d="M208 429l160 122h-200v62h266v-80l-107 -72h15q24 0 44 -8t34.5 -22.5t22.5 -34t8 -42.5q0 -43 -22.5 -77.5t-61.5 -59.5t-88 -41t-103 -23l-12 62q46 8 85.5 20.5t69.5 30t47 40t17 48.5q0 14 -5 25.5t-14 19.5t-20.5 12t-24.5 4q-11 0 -20.5 -1.5t-19 -5t-19.5 -9
t-21 -12.5z" />
    <glyph glyph-name="acute" unicode="&#xb4;" 
d="M219 518l59 136q4 10 10 19t13.5 15.5t17.5 10.5t22 4q11 0 21.5 -4t18 -12t11.5 -18.5t4 -23.5q0 -7 -2.5 -15t-7.5 -15.5t-12.5 -14.5t-16.5 -13l-117 -88z" />
    <glyph glyph-name="paragraph" unicode="&#xb6;" 
d="M373 221q-52 0 -99 10.5t-84.5 32t-59 55t-21.5 77.5t22 77.5t59.5 54.5t84.5 31.5t99 10.5h178v-73h-73l-31 -31v-446q0 -52 -14.5 -92.5t-41 -68.5t-63.5 -42.5t-82 -14.5q-40 0 -75 13t-61 36t-40 53t-14 62q0 19 6 35.5t17 29t26 19.5t32 7q16 0 29.5 -5t23 -14.5
t14.5 -21.5t5 -25q0 -12 -4.5 -22.5t-12.5 -19t-19 -14t-23 -5.5q4 -14 13 -25.5t21.5 -19.5t28.5 -12.5t33 -4.5q32 0 56 10t39.5 30t23 49.5t7.5 67.5v196z" />
    <glyph glyph-name="periodcentered" unicode="&#xb7;" 
d="M218 280q0 18 7 34.5t19 28.5t28.5 19t34.5 7t34.5 -7t28.5 -19t19 -28.5t7 -34.5t-7 -34.5t-19 -28.5t-28.5 -19t-34.5 -7t-34.5 7t-28.5 19t-19 28.5t-7 34.5z" />
    <glyph glyph-name="cedilla" unicode="&#xb8;" 
d="M380 -138q0 -24 -10 -42.5t-26.5 -31t-38 -18.5t-44.5 -6q-22 0 -43 4.5t-39.5 14t-33.5 25t-24 36.5l52 36q6 -14 14.5 -25.5t19.5 -19t24.5 -11.5t29.5 -4q13 0 23 2.5t17 8t11 13.5t4 18t-4.5 18t-14 14t-24 8t-33.5 -1l-42 32l32 71h56l-21 -50q26 0 47 -6t36.5 -18
t23.5 -29t8 -39z" />
    <glyph glyph-name="onesuperior" unicode="&#xb9;" 
d="M260 613h85v-306l24 -25h110v-59h-342v59h115l24 25v238l-103 -69l-36 54z" />
    <glyph glyph-name="ordmasculine" unicode="&#xba;" 
d="M206 467q0 -22 7 -40t20.5 -31t32 -20t41.5 -7t41.5 7t32 20t21 31t7.5 40q0 21 -7.5 38.5t-21 31t-32 20.5t-41.5 7q-22 0 -41 -7t-32.5 -20.5t-20.5 -31t-7 -38.5zM215 79q0 19 7 35.5t20 29.5t30 20t35 7q19 0 35.5 -7t29.5 -20t20 -29.5t7 -35.5q0 -18 -7 -35
t-20 -30t-29.5 -20t-35.5 -7q-18 0 -35 7t-30 20t-20 30t-7 35zM135 467q0 33 13 62.5t36.5 51.5t55 34t67.5 12t68 -12t55.5 -34t36.5 -51.5t13 -62.5q0 -34 -13 -63.5t-36.5 -51.5t-55.5 -34t-68 -12t-67.5 12t-55 34t-36.5 51.5t-13 63.5z" />
    <glyph glyph-name="guillemotright" unicode="&#xbb;" 
d="M104.031 90l59.9961 -51l146.991 183l-146.991 183l-59.9961 -50l108.993 -133zM326.018 90l60.9961 -51l146.991 183l-146.991 183l-60.9961 -50l109.993 -133z" />
    <glyph glyph-name="onequarter" unicode="&#xbc;" 
d="M536 -39v-61h-55v61h-147v72q18 17 35.5 39t34 47t30.5 51t25 51l58 -18q-11 -26 -27 -53t-34 -52.5t-35.5 -47t-33.5 -40.5h94v64h55v-64h62v-49h-62zM327 275l180 211l55 -56l-216 -174zM284 195l-179 -211l-55 56l215 174zM127 623h70v-237h88v-49h-236v49h92v181
l-73 -49l-29 45z" />
    <glyph glyph-name="onehalf" unicode="&#xbd;" 
d="M127 623h70v-237h88v-49h-236v49h92v181l-73 -49l-29 45zM336 116q13 17 28 30.5t32 24t36 16.5t39 6q24 0 42 -6.5t30 -18t17.5 -26.5t5.5 -32t-7 -32.5t-19 -28.5t-26 -23.5t-32 -21.5l-84 -55h183v-49h-243v64l104 75q19 14 29 21t17.5 15t11.5 16.5t4 18.5q0 6 -2 11
t-6.5 9t-11 6.5t-14.5 2.5q-11 0 -23.5 -4t-25 -11.5t-23.5 -18t-21 -23.5zM284 195l-179 -211l-55 56l215 174zM327 275l180 211l55 -56l-216 -174z" />
    <glyph glyph-name="threequarters" unicode="&#xbe;" 
d="M85 469l115 92h-142v51h196v-66l-62 -52q16 -1 30 -7.5t23.5 -16.5t15 -23.5t5.5 -30.5q0 -31 -16.5 -55.5t-45 -42t-64.5 -28t-75 -15.5l-11 50q34 6 62 14t49.5 19t33.5 25.5t12 32.5q0 10 -3.5 17.5t-10 12.5t-14 7.5t-15.5 2.5t-14.5 -1t-13.5 -3.5t-14.5 -6.5
t-15.5 -10zM284 195l-179 -211l-55 56l215 174zM327 275l180 211l55 -56l-216 -174zM536 -39v-61h-55v61h-147v72q18 17 35.5 39t34 47t30.5 51t25 51l58 -18q-11 -26 -27 -53t-34 -52.5t-35.5 -47t-33.5 -40.5h94v64h55v-64h62v-49h-62z" />
    <glyph glyph-name="questiondown" unicode="&#xbf;" 
d="M366.016 282.012v-108.993q-45.998 -8 -78.4961 -16.999q-32.498 -9 -56.9961 -21.499t-37.498 -30.998q-12.999 -18.499 -12.999 -44.4971q0 -24.999 10.499 -44.498q10.5 -19.498 28.999 -31.498q18.499 -11.999 42.4971 -17.998q23.998 -6 51.9971 -6
q21.998 0 41.9971 4.5q19.999 4.49902 35.498 11.499q15.499 6.99902 26.498 16.499q11 9.49902 15.999 19.499q-10.999 3.99902 -18.999 9.99902q-7.99902 6 -13.499 12.999q-5.49902 7 -8.49902 14.999q-3 8 -3 15.999q0 12 5 23.499q4.99902 11.499 14.499 20.999
q9.49902 9.49902 21.998 14.499q12.5 4.99902 27.499 4.99902t28.998 -5.99902q13.999 -6 24.498 -16.999q10.5 -11 15.999 -25.499q5.5 -14.499 5.5 -31.498q0 -32.998 -16.499 -62.4961t-46.4971 -52.4961q-29.998 -22.999 -70.4961 -35.498
q-40.4971 -12.5 -86.4941 -12.5q-48.9971 0 -89.4951 12q-40.4971 11.999 -69.9951 34.498q-29.498 22.498 -44.9971 54.4961q-15.5 31.998 -15.5 71.9961q0 35.9971 12.5 62.9961q12.499 26.998 35.9971 46.4971q23.499 19.499 55.4971 32.998t73.9951 24.498v55.9971
h93.9951zM398.014 407.004q0 -14.999 -6 -28.498t-16.499 -23.999q-10.499 -10.499 -23.999 -16.499q-13.499 -5.99902 -28.498 -5.99902t-28.998 5.99902q-13.999 6 -24.498 16.499q-10.5 10.5 -15.999 23.999q-5.5 13.499 -5.5 28.498t5.5 28.998
q5.49902 13.999 15.999 24.499q10.499 10.499 24.498 16.499q13.999 5.99902 28.998 5.99902t28.498 -5.99902q13.5 -6 23.999 -16.499q10.499 -10.5 16.499 -24.499t6 -28.998z" />
    <glyph glyph-name="Agrave" unicode="&#xc0;" 
d="M303 488l-81 -225h164zM249 0h-239v73h62l188 497h94l188 -497h62v-73h-245v73h57l30 25l-34 92h-217l-33 -92l30 -25h57v-73zM334 632l-117 87q-9 7 -16.5 14t-12.5 14.5t-7.5 15t-2.5 14.5q0 13 4 23.5t11.5 18.5t17.5 12t22 4t22 -4t17.5 -10.5t13.5 -15.5t10 -19
l59 -136z" />
    <glyph glyph-name="Aacute" unicode="&#xc1;" 
d="M303 488l-81 -225h164zM249 0h-239v73h62l188 497h94l188 -497h62v-73h-245v73h57l30 25l-34 92h-217l-33 -92l30 -25h57v-73zM260 650l59 136q4 10 10 19t13.5 15.5t17.5 10.5t22 4t22 -4t17.5 -12t11.5 -18.5t4 -23.5q0 -7 -2.5 -14.5t-7.5 -15t-12.5 -14.5t-16.5 -14
l-117 -87z" />
    <glyph glyph-name="Acircumflex" unicode="&#xc2;" 
d="M303 488l-81 -225h164zM249 0h-239v73h62l188 497h94l188 -497h62v-73h-245v73h57l30 25l-34 92h-217l-33 -92l30 -25h57v-73zM307 823q9 0 16.5 -3t14.5 -8t12.5 -11t11.5 -14l101 -135l-28 -23l-128 94l-128 -94l-28 23l101 135q6 8 11.5 14t12.5 11t14.5 8t16.5 3z
" />
    <glyph glyph-name="Atilde" unicode="&#xc3;" 
d="M303 488l-81 -225h164zM249 0h-239v73h62l188 497h94l188 -497h62v-73h-245v73h57l30 25l-34 92h-217l-33 -92l30 -25h57v-73zM499 771q0 -32 -8 -57.5t-23.5 -44t-36 -28t-44.5 -9.5q-22 0 -41.5 9t-44 27t-36.5 25.5t-26 7.5q-11 0 -20 -4.5t-16.5 -13t-11.5 -21
t-4 -27.5h-71q0 31 8 56.5t23 44t35 28t45 9.5q22 0 40.5 -9t43 -27t38 -25.5t27.5 -7.5q10 0 19.5 4.5t16.5 13.5t11 21.5t4 27.5h72z" />
    <glyph glyph-name="Adieresis" unicode="&#xc4;" 
d="M303 488l-81 -225h164zM249 0h-239v73h62l188 497h94l188 -497h62v-73h-245v73h57l30 25l-34 92h-217l-33 -92l30 -25h57v-73zM415 640q-15 0 -28.5 5.5t-24 15.5t-16 23.5t-5.5 27.5q0 15 5.5 28t16 23.5t24 16t28.5 5.5t28.5 -5.5t24 -16t16 -23.5t5.5 -28
q0 -14 -5.5 -27.5t-16 -23.5t-24 -15.5t-28.5 -5.5zM200 640q-15 0 -28.5 5.5t-24 15.5t-16 23.5t-5.5 27.5q0 15 5.5 28t16 23.5t24 16t28.5 5.5t28.5 -5.5t24 -16t16 -23.5t5.5 -28q0 -14 -5.5 -27.5t-16 -23.5t-24 -15.5t-28.5 -5.5z" />
    <glyph glyph-name="Aring" unicode="&#xc5;" 
d="M303 488l-81 -225h164zM249 0h-239v73h62l188 497h94l188 -497h62v-73h-245v73h57l30 25l-34 92h-217l-33 -92l30 -25h57v-73zM363 738q0 12 -4 22.5t-11.5 18t-17.5 11.5t-23 4q-12 0 -22.5 -4t-18 -11.5t-11.5 -18t-4 -22.5q0 -13 4 -23.5t11.5 -18t18 -11.5t22.5 -4
q13 0 23 4t17.5 11.5t11.5 18t4 23.5zM424 738q0 -24 -9 -45.5t-25 -37.5t-37.5 -24.5t-45.5 -8.5t-45 8.5t-37 24.5t-25 37.5t-9 45.5t9 45t25 37t37 25t45 9t45.5 -9t37.5 -25t25 -37t9 -45z" />
    <glyph glyph-name="AE" unicode="&#xc6;" 
d="M303 497h-21l-110 -234h131v234zM173 0h-163v78l185 394l-26 25h-48v73h474v-212h-76v108l-31 31h-108v-174h112v-67h-112v-183h112l31 31v103h76v-207h-363v73h36l31 31v86h-165l-43 -92l30 -25h48v-73z" />
    <glyph glyph-name="Ccedilla" unicode="&#xc7;" 
d="M313 -236q-22 0 -43 4.5t-39.5 14t-33.5 25t-24 36.5l52 36q6 -14 14.5 -25.5t19.5 -19t24.5 -11.5t29.5 -4q13 0 23 2.5t17 8t11 13.5t4 18t-4.5 18t-14 14t-24 8t-33.5 -1l-42 32l26 57q-50 8 -91.5 34t-70.5 65.5t-44 89.5t-15 106q0 63 18.5 117.5t53 95.5t84 63.5
t110.5 22.5q19 0 38 -4t37 -12t32.5 -19t24.5 -24l16 6v39h74v-206h-59q-9 28 -25 53.5t-37 45.5t-47 31t-55 11q-44 0 -77.5 -17t-55.5 -47t-33 -70t-11 -86t12 -85.5t35 -69.5t56.5 -47t76.5 -17q24 0 48 6t46.5 17.5t43.5 28.5t39 38l53 -57q-22 -26 -48.5 -47t-55 -35.5
t-58.5 -22t-61 -8.5l-13 -32q26 0 47 -6t36.5 -18t23.5 -29t8 -39q0 -24 -10 -42.5t-26.5 -31t-38 -18.5t-44.5 -6z" />
    <glyph glyph-name="Egrave" unicode="&#xc8;" 
d="M338 632l-117 87q-9 7 -16.5 14t-12.5 14.5t-7.5 15t-2.5 14.5q0 13 4 23.5t11.5 18.5t17.5 12t22 4t22 -4t17.5 -10.5t13.5 -15.5t10 -19l59 -136zM442 73l31 31v103h76v-207h-522v73h78l31 31v362l-31 31h-78v73h518v-212h-76v108l-31 31h-224v-174h83l31 31v61h64
v-250h-64v60l-31 31h-83v-183h228z" />
    <glyph glyph-name="Eacute" unicode="&#xc9;" 
d="M261 650l59 136q4 10 10 19t13.5 15.5t17.5 10.5t22 4t22 -4t17.5 -12t11.5 -18.5t4 -23.5q0 -7 -2.5 -14.5t-7.5 -15t-12.5 -14.5t-16.5 -14l-117 -87zM442 73l31 31v103h76v-207h-522v73h78l31 31v362l-31 31h-78v73h518v-212h-76v108l-31 31h-224v-174h83l31 31v61h64
v-250h-64v60l-31 31h-83v-183h228z" />
    <glyph glyph-name="Ecircumflex" unicode="&#xca;" 
d="M442 73l31 31v103h76v-207h-522v73h78l31 31v362l-31 31h-78v73h518v-212h-76v108l-31 31h-224v-174h83l31 31v61h64v-250h-64v60l-31 31h-83v-183h228zM311 823q9 0 16.5 -3t14.5 -8t12.5 -11t11.5 -14l101 -135l-28 -23l-128 94l-128 -94l-28 23l101 135q6 8 11.5 14
t12.5 11t14.5 8t16.5 3z" />
    <glyph glyph-name="Edieresis" unicode="&#xcb;" 
d="M419 640q-15 0 -28.5 5.5t-24 15.5t-16 23.5t-5.5 27.5q0 15 5.5 28t16 23.5t24 16t28.5 5.5t28.5 -5.5t24 -16t16 -23.5t5.5 -28q0 -14 -5.5 -27.5t-16 -23.5t-24 -15.5t-28.5 -5.5zM204 640q-15 0 -28.5 5.5t-24 15.5t-16 23.5t-5.5 27.5q0 15 5.5 28t16 23.5t24 16
t28.5 5.5t28.5 -5.5t24 -16t16 -23.5t5.5 -28q0 -14 -5.5 -27.5t-16 -23.5t-24 -15.5t-28.5 -5.5zM442 73l31 31v103h76v-207h-522v73h78l31 31v362l-31 31h-78v73h518v-212h-76v108l-31 31h-224v-174h83l31 31v61h64v-250h-64v60l-31 31h-83v-183h228z" />
    <glyph glyph-name="Igrave" unicode="&#xcc;" 
d="M234 497h-135v73h416v-73h-135l-31 -31v-362l31 -31h135v-73h-416v73h135l31 31v362zM333 632l-117 87q-9 7 -16.5 14t-12.5 14.5t-7.5 15t-2.5 14.5q0 13 4 23.5t11.5 18.5t17.5 12t22 4t22 -4t17.5 -10.5t13.5 -15.5t10 -19l59 -136z" />
    <glyph glyph-name="Iacute" unicode="&#xcd;" 
d="M234 497h-135v73h416v-73h-135l-31 -31v-362l31 -31h135v-73h-416v73h135l31 31v362zM259 650l59 136q4 10 10 19t13.5 15.5t17.5 10.5t22 4t22 -4t17.5 -12t11.5 -18.5t4 -23.5q0 -7 -2.5 -14.5t-7.5 -15t-12.5 -14.5t-16.5 -14l-117 -87z" />
    <glyph glyph-name="Icircumflex" unicode="&#xce;" 
d="M234 497h-135v73h416v-73h-135l-31 -31v-362l31 -31h135v-73h-416v73h135l31 31v362zM306 823q9 0 16.5 -3t14.5 -8t12.5 -11t11.5 -14l101 -135l-28 -23l-128 94l-128 -94l-28 23l101 135q6 8 11.5 14t12.5 11t14.5 8t16.5 3z" />
    <glyph glyph-name="Idieresis" unicode="&#xcf;" 
d="M234 497h-135v73h416v-73h-135l-31 -31v-362l31 -31h135v-73h-416v73h135l31 31v362zM414 640q-15 0 -28.5 5.5t-24 15.5t-16 23.5t-5.5 27.5q0 15 5.5 28t16 23.5t24 16t28.5 5.5t28.5 -5.5t24 -16t16 -23.5t5.5 -28q0 -14 -5.5 -27.5t-16 -23.5t-24 -15.5t-28.5 -5.5z
M199 640q-15 0 -28.5 5.5t-24 15.5t-16 23.5t-5.5 27.5q0 15 5.5 28t16 23.5t24 16t28.5 5.5t28.5 -5.5t24 -16t16 -23.5t5.5 -28q0 -14 -5.5 -27.5t-16 -23.5t-24 -15.5t-28.5 -5.5z" />
    <glyph glyph-name="Eth" unicode="&#xd0;" 
d="M30 0v73h59l31 30v162h-94v73h94v128l-31 31h-59v73h230q73 0 131 -21t98 -59.5t60 -91t20 -113.5t-20 -113.5t-60 -91t-98 -59.5t-131 -21h-230zM260 73q54 0 96 16t69.5 45t41.5 67.5t14 83.5t-14 83.5t-41.5 67.5t-69.5 45t-96 16h-62v-159h130v-73h-130v-192h62z" />
    <glyph glyph-name="Ntilde" unicode="&#xd1;" 
d="M499 771q0 -32 -8 -57.5t-23.5 -44t-36 -28t-44.5 -9.5q-22 0 -41.5 9t-44 27t-36.5 25.5t-26 7.5q-11 0 -20 -4.5t-16.5 -13t-11.5 -21t-4 -27.5h-71q0 31 8 56.5t23 44t35 28t45 9.5q22 0 40.5 -9t43 -27t38 -25.5t27.5 -7.5q10 0 19.5 4.5t16.5 13.5t11 21.5t4 27.5
h72zM423 0l-238 464v-360l31 -31h48v-73h-234v73h49l31 31v362l-31 31h-49v73h188l212 -429v325l-31 31h-49v73h234v-73h-48l-31 -31v-466h-82z" />
    <glyph glyph-name="Ograve" unicode="&#xd2;" 
d="M334 632l-117 87q-9 7 -16.5 14t-12.5 14.5t-7.5 15t-2.5 14.5q0 13 4 23.5t11.5 18.5t17.5 12t22 4t22 -4t17.5 -10.5t13.5 -15.5t10 -19l59 -136zM569 285q0 -62 -18.5 -117t-53 -96t-83 -63.5t-107.5 -22.5t-107.5 22.5t-83 63.5t-52.5 96t-18 117q0 63 18 117.5
t52.5 95.5t83 63.5t107.5 22.5t107.5 -22.5t83 -63.5t53 -95.5t18.5 -117.5zM481 285q0 46 -11 86t-33 70t-55 47t-75 17t-74.5 -17t-54.5 -47t-33 -70t-11 -86t11 -85.5t33 -70t54.5 -47t74.5 -16.5t75 16.5t55 47t33 70t11 85.5z" />
    <glyph glyph-name="Oacute" unicode="&#xd3;" 
d="M260 650l59 136q4 10 10 19t13.5 15.5t17.5 10.5t22 4t22 -4t17.5 -12t11.5 -18.5t4 -23.5q0 -7 -2.5 -14.5t-7.5 -15t-12.5 -14.5t-16.5 -14l-117 -87zM569 285q0 -62 -18.5 -117t-53 -96t-83 -63.5t-107.5 -22.5t-107.5 22.5t-83 63.5t-52.5 96t-18 117q0 63 18 117.5
t52.5 95.5t83 63.5t107.5 22.5t107.5 -22.5t83 -63.5t53 -95.5t18.5 -117.5zM481 285q0 46 -11 86t-33 70t-55 47t-75 17t-74.5 -17t-54.5 -47t-33 -70t-11 -86t11 -85.5t33 -70t54.5 -47t74.5 -16.5t75 16.5t55 47t33 70t11 85.5z" />
    <glyph glyph-name="Ocircumflex" unicode="&#xd4;" 
d="M569 285q0 -62 -18.5 -117t-53 -96t-83 -63.5t-107.5 -22.5t-107.5 22.5t-83 63.5t-52.5 96t-18 117q0 63 18 117.5t52.5 95.5t83 63.5t107.5 22.5t107.5 -22.5t83 -63.5t53 -95.5t18.5 -117.5zM481 285q0 46 -11 86t-33 70t-55 47t-75 17t-74.5 -17t-54.5 -47t-33 -70
t-11 -86t11 -85.5t33 -70t54.5 -47t74.5 -16.5t75 16.5t55 47t33 70t11 85.5zM307 823q9 0 16.5 -3t14.5 -8t12.5 -11t11.5 -14l101 -135l-28 -23l-128 94l-128 -94l-28 23l101 135q6 8 11.5 14t12.5 11t14.5 8t16.5 3z" />
    <glyph glyph-name="Otilde" unicode="&#xd5;" 
d="M499 771q0 -32 -8 -57.5t-23.5 -44t-36 -28t-44.5 -9.5q-22 0 -41.5 9t-44 27t-36.5 25.5t-26 7.5q-11 0 -20 -4.5t-16.5 -13t-11.5 -21t-4 -27.5h-71q0 31 8 56.5t23 44t35 28t45 9.5q22 0 40.5 -9t43 -27t38 -25.5t27.5 -7.5q10 0 19.5 4.5t16.5 13.5t11 21.5t4 27.5
h72zM569 285q0 -62 -18.5 -117t-53 -96t-83 -63.5t-107.5 -22.5t-107.5 22.5t-83 63.5t-52.5 96t-18 117q0 63 18 117.5t52.5 95.5t83 63.5t107.5 22.5t107.5 -22.5t83 -63.5t53 -95.5t18.5 -117.5zM481 285q0 46 -11 86t-33 70t-55 47t-75 17t-74.5 -17t-54.5 -47t-33 -70
t-11 -86t11 -85.5t33 -70t54.5 -47t74.5 -16.5t75 16.5t55 47t33 70t11 85.5z" />
    <glyph glyph-name="Odieresis" unicode="&#xd6;" 
d="M415 640q-15 0 -28.5 5.5t-24 15.5t-16 23.5t-5.5 27.5q0 15 5.5 28t16 23.5t24 16t28.5 5.5t28.5 -5.5t24 -16t16 -23.5t5.5 -28q0 -14 -5.5 -27.5t-16 -23.5t-24 -15.5t-28.5 -5.5zM200 640q-15 0 -28.5 5.5t-24 15.5t-16 23.5t-5.5 27.5q0 15 5.5 28t16 23.5t24 16
t28.5 5.5t28.5 -5.5t24 -16t16 -23.5t5.5 -28q0 -14 -5.5 -27.5t-16 -23.5t-24 -15.5t-28.5 -5.5zM569 285q0 -62 -18.5 -117t-53 -96t-83 -63.5t-107.5 -22.5t-107.5 22.5t-83 63.5t-52.5 96t-18 117q0 63 18 117.5t52.5 95.5t83 63.5t107.5 22.5t107.5 -22.5t83 -63.5
t53 -95.5t18.5 -117.5zM481 285q0 46 -11 86t-33 70t-55 47t-75 17t-74.5 -17t-54.5 -47t-33 -70t-11 -86t11 -85.5t33 -70t54.5 -47t74.5 -16.5t75 16.5t55 47t33 70t11 85.5z" />
    <glyph glyph-name="multiply" unicode="&#xd7;" 
d="M259 281l-156 155l51 51l153 -156l154 156l50 -51l-156 -155l156 -154l-50 -51l-154 156l-153 -156l-51 51z" />
    <glyph glyph-name="Oslash" unicode="&#xd8;" 
d="M307 505q-42 0 -74.5 -17t-54.5 -47t-33 -70t-11 -86q0 -20 2 -39.5t6.5 -37t10.5 -34t15 -30.5l236 330q-10 8 -21 13.5t-23 9.5t-25 6t-28 2zM307 66q42 0 75 16.5t55 47t33 70t11 85.5q0 19 -2 37.5t-6 35.5t-9.5 33t-13.5 30l-234 -328q9 -6 19.5 -11t22 -8.5
t24 -5.5t25.5 -2zM569 285q0 -62 -18.5 -117t-53 -96t-83 -63.5t-107.5 -22.5q-20 0 -38.5 2.5t-36 8t-33.5 13t-31 16.5l-62 -87l-56 40l67 94q-17 20 -30.5 43.5t-22.5 50.5t-13.5 57t-4.5 61q0 63 18 117.5t52.5 95.5t83 63.5t107.5 22.5q21 0 40.5 -3t37.5 -8.5
t34.5 -13.5t31.5 -18l58 81l56 -40l-63 -89q16 -20 28.5 -43.5t21 -50t13 -55t4.5 -59.5z" />
    <glyph glyph-name="Ugrave" unicode="&#xd9;" 
d="M334 632l-117 87q-9 7 -16.5 14t-12.5 14.5t-7.5 15t-2.5 14.5q0 13 4 23.5t11.5 18.5t17.5 12t22 4t22 -4t17.5 -10.5t13.5 -15.5t10 -19l59 -136zM307 -14q-43 0 -81 15t-66.5 42.5t-44 65t-15.5 80.5v277l-31 31h-49v73h237v-73h-49l-31 -31v-276q0 -28 10.5 -52
t28.5 -41.5t41.5 -26.5t49.5 -9t49.5 9t41.5 26.5t28.5 41.5t10.5 52v276l-31 31h-48v73h236v-73h-48l-31 -31v-277q0 -43 -16 -80.5t-44.5 -65t-66.5 -42.5t-81 -15z" />
    <glyph glyph-name="Uacute" unicode="&#xda;" 
d="M260 650l59 136q4 10 10 19t13.5 15.5t17.5 10.5t22 4t22 -4t17.5 -12t11.5 -18.5t4 -23.5q0 -7 -2.5 -14.5t-7.5 -15t-12.5 -14.5t-16.5 -14l-117 -87zM307 -14q-43 0 -81 15t-66.5 42.5t-44 65t-15.5 80.5v277l-31 31h-49v73h237v-73h-49l-31 -31v-276q0 -28 10.5 -52
t28.5 -41.5t41.5 -26.5t49.5 -9t49.5 9t41.5 26.5t28.5 41.5t10.5 52v276l-31 31h-48v73h236v-73h-48l-31 -31v-277q0 -43 -16 -80.5t-44.5 -65t-66.5 -42.5t-81 -15z" />
    <glyph glyph-name="Ucircumflex" unicode="&#xdb;" 
d="M307 -14q-43 0 -81 15t-66.5 42.5t-44 65t-15.5 80.5v277l-31 31h-49v73h237v-73h-49l-31 -31v-276q0 -28 10.5 -52t28.5 -41.5t41.5 -26.5t49.5 -9t49.5 9t41.5 26.5t28.5 41.5t10.5 52v276l-31 31h-48v73h236v-73h-48l-31 -31v-277q0 -43 -16 -80.5t-44.5 -65
t-66.5 -42.5t-81 -15zM307 823q9 0 16.5 -3t14.5 -8t12.5 -11t11.5 -14l101 -135l-28 -23l-128 94l-128 -94l-28 23l101 135q6 8 11.5 14t12.5 11t14.5 8t16.5 3z" />
    <glyph glyph-name="Udieresis" unicode="&#xdc;" 
d="M415 640q-15 0 -28.5 5.5t-24 15.5t-16 23.5t-5.5 27.5q0 15 5.5 28t16 23.5t24 16t28.5 5.5t28.5 -5.5t24 -16t16 -23.5t5.5 -28q0 -14 -5.5 -27.5t-16 -23.5t-24 -15.5t-28.5 -5.5zM200 640q-15 0 -28.5 5.5t-24 15.5t-16 23.5t-5.5 27.5q0 15 5.5 28t16 23.5t24 16
t28.5 5.5t28.5 -5.5t24 -16t16 -23.5t5.5 -28q0 -14 -5.5 -27.5t-16 -23.5t-24 -15.5t-28.5 -5.5zM307 -14q-43 0 -81 15t-66.5 42.5t-44 65t-15.5 80.5v277l-31 31h-49v73h237v-73h-49l-31 -31v-276q0 -28 10.5 -52t28.5 -41.5t41.5 -26.5t49.5 -9t49.5 9t41.5 26.5
t28.5 41.5t10.5 52v276l-31 31h-48v73h236v-73h-48l-31 -31v-277q0 -43 -16 -80.5t-44.5 -65t-66.5 -42.5t-81 -15z" />
    <glyph glyph-name="Yacute" unicode="&#xdd;" 
d="M349 104l31 -31h115v-73h-376v73h115l31 31v101l-193 292h-62v73h261v-73h-57l-30 -25l126 -204l126 204l-29 25h-58v73h255v-73h-62l-193 -292v-101zM260 650l59 136q4 10 10 19t13.5 15.5t17.5 10.5t22 4t22 -4t17.5 -12t11.5 -18.5t4 -23.5q0 -7 -2.5 -14.5t-7.5 -15
t-12.5 -14.5t-16.5 -14l-117 -87z" />
    <glyph glyph-name="Thorn" unicode="&#xde;" 
d="M229 216h115q38 0 65 4t44.5 12.5t26.5 22.5t9 35t-9 35t-26.5 22.5t-44.5 12t-65 3.5h-115v-147zM228 436h118q56 0 98.5 -8.5t71.5 -26.5t44 -45.5t15 -65.5t-15 -66t-44 -46t-71.5 -26.5t-98.5 -8.5h-117v-54l16 -16h145v-73h-363v73h93l31 31v362l-31 31h-93v73h327
v-73h-110l-16 -16v-45z" />
    <glyph glyph-name="germandbls" unicode="&#xdf;" 
d="M113 407q2 47 17.5 87.5t42.5 70.5t64.5 46.5t83.5 16.5q37 0 68.5 -10.5t54.5 -29.5t35 -45.5t12 -57.5q0 -22 -6 -41.5t-16.5 -35t-25 -26.5t-31.5 -15q36 -6 66.5 -21.5t53 -40.5t35 -58t12.5 -72q0 -41 -13.5 -76t-38 -60t-58.5 -39t-73 -14q-33 0 -60.5 10
t-46.5 28.5t-29 42.5t-10 51q0 19 6 35t16 27t23 17t28 6q13 0 24 -4t19.5 -11t13 -16.5t4.5 -20.5t-3 -20t-9.5 -16t-15 -10.5t-18.5 -3.5h-5.5t-4 0.5l-3 1t-3.5 1.5q0 -11 5.5 -21t15 -17t22 -11t27.5 -4q25 0 45.5 8.5t35 25t22.5 39.5t8 51q0 39 -15 67t-42.5 46
t-64 26t-79.5 8v72q25 0 45 5t34.5 15.5t22 27t7.5 39.5q0 16 -6.5 30.5t-18 25t-28.5 16t-37 5.5q-29 0 -53.5 -12t-42.5 -34t-27.5 -52.5t-9.5 -66.5v-393h-157v73h59l23 24v213l-23 24h-59v73h82v0z" />
    <glyph glyph-name="agrave" unicode="&#xe0;" 
d="M79 320q0 30 17.5 52.5t47.5 37t67 21.5t75 7q45 0 80 -11t59 -31.5t36 -49t12 -63.5v-175q0 -11 1.5 -19.5t5.5 -14.5t10 -9t15 -3q6 0 12 2t12.5 6t13.5 10t19 17l39 -55q-16 -16 -29.5 -26t-26.5 -17t-26.5 -10t-29.5 -3q-17 0 -33 5.5t-29 16.5t-21.5 27.5
t-11.5 36.5q-18 -17 -39.5 -32t-47 -27.5t-53 -19.5t-55.5 -7q-31 0 -56.5 7.5t-44 22t-28.5 36t-10 48.5q0 25 9.5 44.5t27 34t42.5 25t58 18.5l196 55v9q0 21 -8 37t-24 27.5t-38 17t-49 5.5q-19 0 -33 -1t-25.5 -3t-21.5 -5t-22 -7q6 -2 11.5 -6t9.5 -10t6.5 -14t2.5 -17
q0 -11 -4.5 -20.5t-12.5 -16.5t-19 -11t-24 -4t-25 4.5t-20.5 12.5t-13 19.5t-4.5 25.5zM393 218l-179 -57q-14 -3 -26 -7.5t-21.5 -11t-15 -15.5t-5.5 -21t5 -21.5t13.5 -16t20 -9.5t25.5 -3q23 0 46.5 6.5t46.5 18t45.5 27.5t44.5 36v74zM325 499l-117 88q-9 6 -16.5 13
t-12.5 14.5t-7.5 15.5t-2.5 15q0 13 4 23.5t11.5 18.5t18 12t21.5 4q12 0 22 -4t17.5 -10.5t13.5 -15.5t10 -19l59 -136z" />
    <glyph glyph-name="aacute" unicode="&#xe1;" 
d="M79 320q0 30 17.5 52.5t47.5 37t67 21.5t75 7q45 0 80 -11t59 -31.5t36 -49t12 -63.5v-175q0 -11 1.5 -19.5t5.5 -14.5t10 -9t15 -3q6 0 12 2t12.5 6t13.5 10t19 17l39 -55q-16 -16 -29.5 -26t-26.5 -17t-26.5 -10t-29.5 -3q-17 0 -33 5.5t-29 16.5t-21.5 27.5
t-11.5 36.5q-18 -17 -39.5 -32t-47 -27.5t-53 -19.5t-55.5 -7q-31 0 -56.5 7.5t-44 22t-28.5 36t-10 48.5q0 25 9.5 44.5t27 34t42.5 25t58 18.5l196 55v9q0 21 -8 37t-24 27.5t-38 17t-49 5.5q-19 0 -33 -1t-25.5 -3t-21.5 -5t-22 -7q6 -2 11.5 -6t9.5 -10t6.5 -14t2.5 -17
q0 -11 -4.5 -20.5t-12.5 -16.5t-19 -11t-24 -4t-25 4.5t-20.5 12.5t-13 19.5t-4.5 25.5zM393 218l-179 -57q-14 -3 -26 -7.5t-21.5 -11t-15 -15.5t-5.5 -21t5 -21.5t13.5 -16t20 -9.5t25.5 -3q23 0 46.5 6.5t46.5 18t45.5 27.5t44.5 36v74zM232 518l59 136q4 10 10 19
t13.5 15.5t17.5 10.5t22 4q11 0 21.5 -4t18 -12t11.5 -18.5t4 -23.5q0 -7 -2.5 -15t-7.5 -15.5t-12.5 -14.5t-16.5 -13l-117 -88z" />
    <glyph glyph-name="acircumflex" unicode="&#xe2;" 
d="M79 320q0 30 17.5 52.5t47.5 37t67 21.5t75 7q45 0 80 -11t59 -31.5t36 -49t12 -63.5v-175q0 -11 1.5 -19.5t5.5 -14.5t10 -9t15 -3q6 0 12 2t12.5 6t13.5 10t19 17l39 -55q-16 -16 -29.5 -26t-26.5 -17t-26.5 -10t-29.5 -3q-17 0 -33 5.5t-29 16.5t-21.5 27.5
t-11.5 36.5q-18 -17 -39.5 -32t-47 -27.5t-53 -19.5t-55.5 -7q-31 0 -56.5 7.5t-44 22t-28.5 36t-10 48.5q0 25 9.5 44.5t27 34t42.5 25t58 18.5l196 55v9q0 21 -8 37t-24 27.5t-38 17t-49 5.5q-19 0 -33 -1t-25.5 -3t-21.5 -5t-22 -7q6 -2 11.5 -6t9.5 -10t6.5 -14t2.5 -17
q0 -11 -4.5 -20.5t-12.5 -16.5t-19 -11t-24 -4t-25 4.5t-20.5 12.5t-13 19.5t-4.5 25.5zM393 218l-179 -57q-14 -3 -26 -7.5t-21.5 -11t-15 -15.5t-5.5 -21t5 -21.5t13.5 -16t20 -9.5t25.5 -3q23 0 46.5 6.5t46.5 18t45.5 27.5t44.5 36v74zM287 692q9 0 16.5 -3t14.5 -8
t12.5 -11t11.5 -14l101 -135l-28 -23l-128 94l-128 -94l-28 23l101 135q6 8 11.5 14t12.5 11t14.5 8t16.5 3z" />
    <glyph glyph-name="atilde" unicode="&#xe3;" 
d="M79 320q0 30 17.5 52.5t47.5 37t67 21.5t75 7q45 0 80 -11t59 -31.5t36 -49t12 -63.5v-175q0 -11 1.5 -19.5t5.5 -14.5t10 -9t15 -3q6 0 12 2t12.5 6t13.5 10t19 17l39 -55q-16 -16 -29.5 -26t-26.5 -17t-26.5 -10t-29.5 -3q-17 0 -33 5.5t-29 16.5t-21.5 27.5
t-11.5 36.5q-18 -17 -39.5 -32t-47 -27.5t-53 -19.5t-55.5 -7q-31 0 -56.5 7.5t-44 22t-28.5 36t-10 48.5q0 25 9.5 44.5t27 34t42.5 25t58 18.5l196 55v9q0 21 -8 37t-24 27.5t-38 17t-49 5.5q-19 0 -33 -1t-25.5 -3t-21.5 -5t-22 -7q6 -2 11.5 -6t9.5 -10t6.5 -14t2.5 -17
q0 -11 -4.5 -20.5t-12.5 -16.5t-19 -11t-24 -4t-25 4.5t-20.5 12.5t-13 19.5t-4.5 25.5zM393 218l-179 -57q-14 -3 -26 -7.5t-21.5 -11t-15 -15.5t-5.5 -21t5 -21.5t13.5 -16t20 -9.5t25.5 -3q23 0 46.5 6.5t46.5 18t45.5 27.5t44.5 36v74zM480 641q0 -32 -8 -57.5
t-23.5 -44t-36 -28t-44.5 -9.5q-22 0 -41.5 9t-44 27t-36.5 25.5t-26 7.5q-11 0 -20 -4.5t-16.5 -13t-11.5 -21t-4 -27.5h-71q0 31 8 56.5t23 44t35 28t45 9.5q22 0 40.5 -9t43 -27t38 -25.5t27.5 -7.5q10 0 19.5 4.5t16.5 13.5t11 21.5t4 27.5h72z" />
    <glyph glyph-name="adieresis" unicode="&#xe4;" 
d="M79 320q0 30 17.5 52.5t47.5 37t67 21.5t75 7q45 0 80 -11t59 -31.5t36 -49t12 -63.5v-175q0 -11 1.5 -19.5t5.5 -14.5t10 -9t15 -3q6 0 12 2t12.5 6t13.5 10t19 17l39 -55q-16 -16 -29.5 -26t-26.5 -17t-26.5 -10t-29.5 -3q-17 0 -33 5.5t-29 16.5t-21.5 27.5
t-11.5 36.5q-18 -17 -39.5 -32t-47 -27.5t-53 -19.5t-55.5 -7q-31 0 -56.5 7.5t-44 22t-28.5 36t-10 48.5q0 25 9.5 44.5t27 34t42.5 25t58 18.5l196 55v9q0 21 -8 37t-24 27.5t-38 17t-49 5.5q-19 0 -33 -1t-25.5 -3t-21.5 -5t-22 -7q6 -2 11.5 -6t9.5 -10t6.5 -14t2.5 -17
q0 -11 -4.5 -20.5t-12.5 -16.5t-19 -11t-24 -4t-25 4.5t-20.5 12.5t-13 19.5t-4.5 25.5zM393 218l-179 -57q-14 -3 -26 -7.5t-21.5 -11t-15 -15.5t-5.5 -21t5 -21.5t13.5 -16t20 -9.5t25.5 -3q23 0 46.5 6.5t46.5 18t45.5 27.5t44.5 36v74zM395 512q-15 0 -28.5 5.5
t-24 15.5t-16 23.5t-5.5 27.5q0 15 5.5 28.5t16 23.5t24 15.5t28.5 5.5t28.5 -5.5t24 -15.5t16 -23.5t5.5 -28.5q0 -14 -5.5 -27.5t-16 -23.5t-24 -15.5t-28.5 -5.5zM180 513q-15 0 -28.5 5.5t-24 15.5t-16 23t-5.5 28t5.5 28t16 23.5t24 16t28.5 5.5t28.5 -5.5t24 -16
t16 -23.5t5.5 -28t-5.5 -28t-16 -23t-24 -15.5t-28.5 -5.5z" />
    <glyph glyph-name="aring" unicode="&#xe5;" 
d="M79 320q0 30 17.5 52.5t47.5 37t67 21.5t75 7q45 0 80 -11t59 -31.5t36 -49t12 -63.5v-175q0 -11 1.5 -19.5t5.5 -14.5t10 -9t15 -3q6 0 12 2t12.5 6t13.5 10t19 17l39 -55q-16 -16 -29.5 -26t-26.5 -17t-26.5 -10t-29.5 -3q-17 0 -33 5.5t-29 16.5t-21.5 27.5
t-11.5 36.5q-18 -17 -39.5 -32t-47 -27.5t-53 -19.5t-55.5 -7q-31 0 -56.5 7.5t-44 22t-28.5 36t-10 48.5q0 25 9.5 44.5t27 34t42.5 25t58 18.5l196 55v9q0 21 -8 37t-24 27.5t-38 17t-49 5.5q-19 0 -33 -1t-25.5 -3t-21.5 -5t-22 -7q6 -2 11.5 -6t9.5 -10t6.5 -14t2.5 -17
q0 -11 -4.5 -20.5t-12.5 -16.5t-19 -11t-24 -4t-25 4.5t-20.5 12.5t-13 19.5t-4.5 25.5zM393 218l-179 -57q-14 -3 -26 -7.5t-21.5 -11t-15 -15.5t-5.5 -21t5 -21.5t13.5 -16t20 -9.5t25.5 -3q23 0 46.5 6.5t46.5 18t45.5 27.5t44.5 36v74zM344 605q0 13 -4 23.5t-11.5 18.5
t-18 12t-23.5 4t-23.5 -4t-18 -12t-11.5 -18.5t-4 -23.5t4 -23.5t11.5 -18.5t18 -12t23.5 -4t23.5 4t18 12t11.5 18.5t4 23.5zM404 605q0 -24 -9 -45t-25 -37t-37.5 -24.5t-45.5 -8.5t-45 8.5t-37 24.5t-25 37t-9 45t9 45t25 37t37 25t45 9t45.5 -9t37.5 -25t25 -37t9 -45z
" />
    <glyph glyph-name="ae" unicode="&#xe6;" 
d="M513 253q-2 22 -8 41.5t-15.5 35t-23.5 24.5t-32 9q-19 0 -35.5 -8t-29 -24t-20.5 -38.5t-11 -50.5l175 5v6zM207 172q-20 -1 -37 -4t-31 -10t-22 -18.5t-8 -27.5q0 -13 5 -23.5t13.5 -17.5t20.5 -11t25 -4q14 0 28.5 3t29 8t28.5 12.5t28 16.5q-4 9 -7.5 18.5t-6.5 19
t-5.5 20t-3.5 20.5l-51 -2h-6zM592 70q-17 -21 -35.5 -36.5t-38 -26t-39 -15.5t-38.5 -5q-18 0 -35 4t-32.5 11.5t-29.5 19t-26 25.5q-17 -13 -34.5 -24t-37.5 -19.5t-41 -13t-42 -4.5q-29 0 -54.5 8t-45 24t-30 39.5t-10.5 53.5q0 31 14 54.5t39.5 39.5t60 24t76.5 9l50 2
q1 11 3 22.5t5 22t6.5 21t7.5 19.5q-5 12 -12.5 21t-17.5 15t-22 9t-26 3q-13 0 -22.5 -1t-17.5 -3t-15.5 -4.5t-18.5 -7.5q5 -2 10 -5.5t9 -9t6.5 -12.5t2.5 -16q0 -10 -4 -19t-12 -16t-18.5 -10.5t-22.5 -3.5t-22.5 4t-18 11.5t-11.5 18.5t-4 24q0 26 13.5 47.5t36.5 36.5
t51.5 23t57.5 8q21 0 39 -3.5t32.5 -10t26 -16t20.5 -21.5q11 12 24 21.5t26.5 16t28.5 10t30 3.5q39 0 69.5 -20.5t50.5 -56t29.5 -81t9.5 -94.5l-254 -9q3 -25 11.5 -45.5t21.5 -36t30.5 -24t38.5 -8.5q16 0 29.5 3.5t26 10.5t25 18t26.5 28z" />
    <glyph glyph-name="ccedilla" unicode="&#xe7;" 
d="M304 -236q-22 0 -43 4.5t-39.5 14t-33.5 25t-24 36.5l52 36q6 -14 14.5 -25.5t19.5 -19t24.5 -11.5t29.5 -4q13 0 23 2.5t17 8t11 13.5t4 18t-4.5 18t-14 14t-24 8t-33.5 -1l-42 32l26 58q-43 8 -79 27.5t-61.5 49t-39.5 66.5t-14 78q0 47 19.5 88.5t54.5 72.5t81 48
t97 17q46 0 85 -11.5t66.5 -32t42.5 -47t15 -56.5q0 -16 -5.5 -30.5t-16 -25.5t-23.5 -17t-28 -6t-27.5 5.5t-21.5 14.5t-14 21.5t-5 25.5q0 9 2.5 16.5t7.5 14t12 12t17 8.5q-8 8 -18.5 14t-24 11t-30 7.5t-36.5 2.5q-31 0 -60.5 -10.5t-52.5 -30.5t-36.5 -48.5
t-13.5 -63.5q0 -30 10 -56.5t30 -48t51 -33.5t72 -12q24 0 46 4.5t43 13t40.5 21t40.5 28.5l45 -59q-25 -21 -51 -36.5t-53 -26t-54.5 -16t-56.5 -5.5h-2l-13 -32q26 0 47 -6t36.5 -18t23.5 -29t8 -39q0 -24 -10 -42.5t-26.5 -31t-38 -18.5t-44.5 -6z" />
    <glyph glyph-name="egrave" unicode="&#xe8;" 
d="M453 253q-6 23 -18.5 43.5t-30.5 36t-41.5 24t-51.5 8.5t-53 -8t-46 -23.5t-35 -37t-20 -48.5h297zM531 70q-25 -21 -50.5 -36.5t-52 -26t-53.5 -16t-55 -5.5q-54 0 -99.5 17t-78.5 48t-51 72t-18 89q0 47 17.5 88.5t50 72.5t76 48t94.5 17q58 0 102.5 -20.5t74 -56.5
t44.5 -81t15 -94h-392q4 -26 16.5 -49t33.5 -40t50 -27t65 -10q24 0 46 4t42.5 12t40.5 20t40 28zM355 499l-117 88q-9 6 -16.5 13t-12.5 14.5t-7.5 15.5t-2.5 15q0 13 4 23.5t11.5 18.5t18 12t21.5 4q12 0 22 -4t17.5 -10.5t13.5 -15.5t10 -19l59 -136z" />
    <glyph glyph-name="eacute" unicode="&#xe9;" 
d="M263 518l59 136q4 10 10 19t13.5 15.5t17.5 10.5t22 4q11 0 21.5 -4t18 -12t11.5 -18.5t4 -23.5q0 -7 -2.5 -15t-7.5 -15.5t-12.5 -14.5t-16.5 -13l-117 -88zM453 253q-6 23 -18.5 43.5t-30.5 36t-41.5 24t-51.5 8.5t-53 -8t-46 -23.5t-35 -37t-20 -48.5h297zM531 70
q-25 -21 -50.5 -36.5t-52 -26t-53.5 -16t-55 -5.5q-54 0 -99.5 17t-78.5 48t-51 72t-18 89q0 47 17.5 88.5t50 72.5t76 48t94.5 17q58 0 102.5 -20.5t74 -56.5t44.5 -81t15 -94h-392q4 -26 16.5 -49t33.5 -40t50 -27t65 -10q24 0 46 4t42.5 12t40.5 20t40 28z" />
    <glyph glyph-name="ecircumflex" unicode="&#xea;" 
d="M318 692q9 0 16.5 -3t14.5 -8t12.5 -11t11.5 -14l101 -135l-28 -23l-128 94l-128 -94l-28 23l101 135q6 8 11.5 14t12.5 11t14.5 8t16.5 3zM453 253q-6 23 -18.5 43.5t-30.5 36t-41.5 24t-51.5 8.5t-53 -8t-46 -23.5t-35 -37t-20 -48.5h297zM531 70q-25 -21 -50.5 -36.5
t-52 -26t-53.5 -16t-55 -5.5q-54 0 -99.5 17t-78.5 48t-51 72t-18 89q0 47 17.5 88.5t50 72.5t76 48t94.5 17q58 0 102.5 -20.5t74 -56.5t44.5 -81t15 -94h-392q4 -26 16.5 -49t33.5 -40t50 -27t65 -10q24 0 46 4t42.5 12t40.5 20t40 28z" />
    <glyph glyph-name="edieresis" unicode="&#xeb;" 
d="M426 512q-15 0 -28.5 5.5t-24 15.5t-16 23.5t-5.5 27.5q0 15 5.5 28.5t16 23.5t24 15.5t28.5 5.5t28.5 -5.5t24 -15.5t16 -23.5t5.5 -28.5q0 -14 -5.5 -27.5t-16 -23.5t-24 -15.5t-28.5 -5.5zM211 513q-15 0 -28.5 5.5t-24 15.5t-16 23t-5.5 28t5.5 28t16 23.5t24 16
t28.5 5.5t28.5 -5.5t24 -16t16 -23.5t5.5 -28t-5.5 -28t-16 -23t-24 -15.5t-28.5 -5.5zM453 253q-6 23 -18.5 43.5t-30.5 36t-41.5 24t-51.5 8.5t-53 -8t-46 -23.5t-35 -37t-20 -48.5h297zM531 70q-25 -21 -50.5 -36.5t-52 -26t-53.5 -16t-55 -5.5q-54 0 -99.5 17t-78.5 48
t-51 72t-18 89q0 47 17.5 88.5t50 72.5t76 48t94.5 17q58 0 102.5 -20.5t74 -56.5t44.5 -81t15 -94h-392q4 -26 16.5 -49t33.5 -40t50 -27t65 -10q24 0 46 4t42.5 12t40.5 20t40 28z" />
    <glyph glyph-name="igrave" unicode="&#xec;" 
d="M398 73h141v-73h-441v73h163l31 31v216l-31 31h-163v73h269v-320zM354 499l-117 88q-9 6 -16.5 13t-12.5 14.5t-7.5 15.5t-2.5 15q0 13 4 23.5t11.5 18.5t18 12t21.5 4q12 0 22 -4t17.5 -10.5t13.5 -15.5t10 -19l59 -136z" />
    <glyph glyph-name="iacute" unicode="&#xed;" 
d="M261 518l59 136q4 10 10 19t13.5 15.5t17.5 10.5t22 4q11 0 21.5 -4t18 -12t11.5 -18.5t4 -23.5q0 -7 -2.5 -15t-7.5 -15.5t-12.5 -14.5t-16.5 -13l-117 -88zM398 73h141v-73h-441v73h163l31 31v216l-31 31h-163v73h269v-320z" />
    <glyph glyph-name="icircumflex" unicode="&#xee;" 
d="M316 692q9 0 16.5 -3t14.5 -8t12.5 -11t11.5 -14l101 -135l-28 -23l-128 94l-128 -94l-28 23l101 135q6 8 11.5 14t12.5 11t14.5 8t16.5 3zM398 73h141v-73h-441v73h163l31 31v216l-31 31h-163v73h269v-320z" />
    <glyph glyph-name="idieresis" unicode="&#xef;" 
d="M424 512q-15 0 -28.5 5.5t-24 15.5t-16 23.5t-5.5 27.5q0 15 5.5 28.5t16 23.5t24 15.5t28.5 5.5t28.5 -5.5t24 -15.5t16 -23.5t5.5 -28.5q0 -14 -5.5 -27.5t-16 -23.5t-24 -15.5t-28.5 -5.5zM209 513q-15 0 -28.5 5.5t-24 15.5t-16 23t-5.5 28t5.5 28t16 23.5t24 16
t28.5 5.5t28.5 -5.5t24 -16t16 -23.5t5.5 -28t-5.5 -28t-16 -23t-24 -15.5t-28.5 -5.5zM398 73h141v-73h-441v73h163l31 31v216l-31 31h-163v73h269v-320z" />
    <glyph glyph-name="eth" unicode="&#xf0;" 
d="M307 -14q-50 0 -94 16t-76.5 45t-50.5 67.5t-18 82.5t18 82.5t50.5 67.5t76.5 45t94 16q18 0 36 -3.5t35.5 -10t33.5 -16t30 -22.5q-8 18 -19 35.5t-25.5 35t-32.5 34.5t-39 31l-120 -57l-25 48l88 42q-13 6 -27.5 11.5t-29.5 10t-31 8.5t-33 7l18 65q26 -4 51 -9.5
t48 -13.5t44.5 -18t40.5 -22l115 55l25 -48l-89 -43q35 -28 62 -62.5t45.5 -74t28 -82t9.5 -87.5q0 -54 -17.5 -98t-50 -74.5t-76.5 -47t-95 -16.5zM460 197q0 28 -11 52.5t-31.5 43t-49 28.5t-61.5 10t-61.5 -10t-48.5 -28.5t-31 -43t-11 -52.5t11 -52.5t31 -43t48.5 -28.5
t61.5 -10t61.5 10t49 28.5t31.5 43t11 52.5z" />
    <glyph glyph-name="ntilde" unicode="&#xf1;" 
d="M199 104l31 -31h54v-73h-245v73h54l31 31v216l-31 31h-54v73h160v-68q11 15 26.5 29.5t35.5 26.5t43.5 19t48.5 7q34 0 63.5 -10.5t51.5 -30.5t34.5 -50.5t12.5 -68.5v-174l31 -31h54v-73h-245v73h54l31 31v145q0 25 -4 45t-13.5 36t-28 25t-45.5 9q-26 0 -48 -6.5
t-40.5 -19t-33.5 -31t-28 -42.5v-161zM511 641q0 -32 -8 -57.5t-23.5 -44t-36 -28t-44.5 -9.5q-22 0 -41.5 9t-44 27t-36.5 25.5t-26 7.5q-11 0 -20 -4.5t-16.5 -13t-11.5 -21t-4 -27.5h-71q0 31 8 56.5t23 44t35 28t45 9.5q22 0 40.5 -9t43 -27t38 -25.5t27.5 -7.5
q10 0 19.5 4.5t16.5 13.5t11 21.5t4 27.5h72z" />
    <glyph glyph-name="ograve" unicode="&#xf2;" 
d="M68 212q0 47 18 88.5t50.5 72.5t76.5 48t94 17q51 0 94.5 -17t76 -48t50.5 -72.5t18 -88.5t-18 -88.5t-50.5 -72.5t-76 -48t-94.5 -17q-50 0 -94 17t-76.5 48t-50.5 72.5t-18 88.5zM459 212q0 32 -11 59.5t-31 48t-48 31.5t-62 11t-62 -11t-48 -31.5t-31 -48t-11 -59.5
t11 -59.5t31 -48t48 -31.5t62 -11t62 11t48 31.5t31 48t11 59.5zM345 499l-117 88q-9 6 -16.5 13t-12.5 14.5t-7.5 15.5t-2.5 15q0 13 4 23.5t11.5 18.5t18 12t21.5 4q12 0 22 -4t17.5 -10.5t13.5 -15.5t10 -19l59 -136z" />
    <glyph glyph-name="oacute" unicode="&#xf3;" 
d="M252 518l59 136q4 10 10 19t13.5 15.5t17.5 10.5t22 4q11 0 21.5 -4t18 -12t11.5 -18.5t4 -23.5q0 -7 -2.5 -15t-7.5 -15.5t-12.5 -14.5t-16.5 -13l-117 -88zM68 212q0 47 18 88.5t50.5 72.5t76.5 48t94 17q51 0 94.5 -17t76 -48t50.5 -72.5t18 -88.5t-18 -88.5
t-50.5 -72.5t-76 -48t-94.5 -17q-50 0 -94 17t-76.5 48t-50.5 72.5t-18 88.5zM459 212q0 32 -11 59.5t-31 48t-48 31.5t-62 11t-62 -11t-48 -31.5t-31 -48t-11 -59.5t11 -59.5t31 -48t48 -31.5t62 -11t62 11t48 31.5t31 48t11 59.5z" />
    <glyph glyph-name="ocircumflex" unicode="&#xf4;" 
d="M307 692q9 0 16.5 -3t14.5 -8t12.5 -11t11.5 -14l101 -135l-28 -23l-128 94l-128 -94l-28 23l101 135q6 8 11.5 14t12.5 11t14.5 8t16.5 3zM68 212q0 47 18 88.5t50.5 72.5t76.5 48t94 17q51 0 94.5 -17t76 -48t50.5 -72.5t18 -88.5t-18 -88.5t-50.5 -72.5t-76 -48
t-94.5 -17q-50 0 -94 17t-76.5 48t-50.5 72.5t-18 88.5zM459 212q0 32 -11 59.5t-31 48t-48 31.5t-62 11t-62 -11t-48 -31.5t-31 -48t-11 -59.5t11 -59.5t31 -48t48 -31.5t62 -11t62 11t48 31.5t31 48t11 59.5z" />
    <glyph glyph-name="otilde" unicode="&#xf5;" 
d="M68 212q0 47 18 88.5t50.5 72.5t76.5 48t94 17q51 0 94.5 -17t76 -48t50.5 -72.5t18 -88.5t-18 -88.5t-50.5 -72.5t-76 -48t-94.5 -17q-50 0 -94 17t-76.5 48t-50.5 72.5t-18 88.5zM459 212q0 32 -11 59.5t-31 48t-48 31.5t-62 11t-62 -11t-48 -31.5t-31 -48t-11 -59.5
t11 -59.5t31 -48t48 -31.5t62 -11t62 11t48 31.5t31 48t11 59.5zM508 641q0 -32 -8 -57.5t-23.5 -44t-36 -28t-44.5 -9.5q-22 0 -41.5 9t-44 27t-36.5 25.5t-26 7.5q-11 0 -20 -4.5t-16.5 -13t-11.5 -21t-4 -27.5h-71q0 31 8 56.5t23 44t35 28t45 9.5q22 0 40.5 -9t43 -27
t38 -25.5t27.5 -7.5q10 0 19.5 4.5t16.5 13.5t11 21.5t4 27.5h72z" />
    <glyph glyph-name="odieresis" unicode="&#xf6;" 
d="M415 512q-15 0 -28.5 5.5t-24 15.5t-16 23.5t-5.5 27.5q0 15 5.5 28.5t16 23.5t24 15.5t28.5 5.5t28.5 -5.5t24 -15.5t16 -23.5t5.5 -28.5q0 -14 -5.5 -27.5t-16 -23.5t-24 -15.5t-28.5 -5.5zM200 513q-15 0 -28.5 5.5t-24 15.5t-16 23t-5.5 28t5.5 28t16 23.5t24 16
t28.5 5.5t28.5 -5.5t24 -16t16 -23.5t5.5 -28t-5.5 -28t-16 -23t-24 -15.5t-28.5 -5.5zM68 212q0 47 18 88.5t50.5 72.5t76.5 48t94 17q51 0 94.5 -17t76 -48t50.5 -72.5t18 -88.5t-18 -88.5t-50.5 -72.5t-76 -48t-94.5 -17q-50 0 -94 17t-76.5 48t-50.5 72.5t-18 88.5z
M459 212q0 32 -11 59.5t-31 48t-48 31.5t-62 11t-62 -11t-48 -31.5t-31 -48t-11 -59.5t11 -59.5t31 -48t48 -31.5t62 -11t62 11t48 31.5t31 48t11 59.5z" />
    <glyph glyph-name="divide" unicode="&#xf7;" 
d="M82 319h451v-73h-451v73zM247 467q0 12 4.5 23t13 19.5t19.5 13.5t23 5t23.5 -5t20 -13.5t13.5 -19.5t5 -23q0 -13 -5 -24t-13.5 -19.5t-19.5 -13t-24 -4.5q-12 0 -23 4.5t-19.5 13t-13 19.5t-4.5 24zM247 98q0 13 4.5 24t13 19.5t19.5 13t23 4.5q13 0 24 -4.5t19.5 -13
t13.5 -19.5t5 -24q0 -12 -5 -23t-13.5 -19.5t-20 -13.5t-23.5 -5t-23 5t-19.5 13.5t-13 19.5t-4.5 23z" />
    <glyph glyph-name="oslash" unicode="&#xf8;" 
d="M307 366q-33 0 -62 -11.5t-49.5 -33t-32 -49.5t-11.5 -60q0 -14 2 -27t6.5 -25.5t10.5 -24t14 -21.5l191 237q-7 4 -15.5 6.5t-17 4.5t-17.5 3t-19 1zM307 58q33 0 62 11.5t49.5 33t32 49.5t11.5 60q0 13 -2 26t-6 25t-10 23.5t-14 21.5l-190 -236q8 -3 15.5 -6t16 -4.5
t17.5 -2.5t18 -1zM546 212q0 -47 -18 -88.5t-50.5 -72.5t-76 -48t-94.5 -17q-16 0 -31 1.5t-29.5 5t-28 8.5t-26.5 11l-66 -81l-56 41l65 80q-16 15 -28.5 33.5t-21 38.5t-13 42.5t-4.5 45.5q0 47 18 88.5t50.5 72.5t76.5 48t94 17q16 0 31.5 -2t30.5 -5.5t29 -8.5t27 -11
l63 78l56 -41l-63 -78q15 -15 27.5 -33t20.5 -38t12.5 -42t4.5 -45z" />
    <glyph glyph-name="ugrave" unicode="&#xf9;" 
d="M501 424v-320l31 -31h54v-73h-160v68q-11 -16 -26.5 -30t-34.5 -26t-42.5 -19t-48.5 -7q-35 0 -65 10.5t-52 30.5t-34.5 50.5t-12.5 68.5v174l-31 31h-54v73h160v-249q0 -28 5 -49.5t15.5 -36t28.5 -22t43 -7.5q26 0 47.5 6.5t40 19t33.5 31t28 42.5v161l-31 31h-54v73
h160zM331 499l-117 88q-9 6 -16.5 13t-12.5 14.5t-7.5 15.5t-2.5 15q0 13 4 23.5t11.5 18.5t18 12t21.5 4q12 0 22 -4t17.5 -10.5t13.5 -15.5t10 -19l59 -136z" />
    <glyph glyph-name="uacute" unicode="&#xfa;" 
d="M239 518l59 136q4 10 10 19t13.5 15.5t17.5 10.5t22 4q11 0 21.5 -4t18 -12t11.5 -18.5t4 -23.5q0 -7 -2.5 -15t-7.5 -15.5t-12.5 -14.5t-16.5 -13l-117 -88zM501 424v-320l31 -31h54v-73h-160v68q-11 -16 -26.5 -30t-34.5 -26t-42.5 -19t-48.5 -7q-35 0 -65 10.5
t-52 30.5t-34.5 50.5t-12.5 68.5v174l-31 31h-54v73h160v-249q0 -28 5 -49.5t15.5 -36t28.5 -22t43 -7.5q26 0 47.5 6.5t40 19t33.5 31t28 42.5v161l-31 31h-54v73h160z" />
    <glyph glyph-name="ucircumflex" unicode="&#xfb;" 
d="M294 692q9 0 16.5 -3t14.5 -8t12.5 -11t11.5 -14l101 -135l-28 -23l-128 94l-128 -94l-28 23l101 135q6 8 11.5 14t12.5 11t14.5 8t16.5 3zM501 424v-320l31 -31h54v-73h-160v68q-11 -16 -26.5 -30t-34.5 -26t-42.5 -19t-48.5 -7q-35 0 -65 10.5t-52 30.5t-34.5 50.5
t-12.5 68.5v174l-31 31h-54v73h160v-249q0 -28 5 -49.5t15.5 -36t28.5 -22t43 -7.5q26 0 47.5 6.5t40 19t33.5 31t28 42.5v161l-31 31h-54v73h160z" />
    <glyph glyph-name="udieresis" unicode="&#xfc;" 
d="M402 512q-15 0 -28.5 5.5t-24 15.5t-16 23.5t-5.5 27.5q0 15 5.5 28.5t16 23.5t24 15.5t28.5 5.5t28.5 -5.5t24 -15.5t16 -23.5t5.5 -28.5q0 -14 -5.5 -27.5t-16 -23.5t-24 -15.5t-28.5 -5.5zM187 513q-15 0 -28.5 5.5t-24 15.5t-16 23t-5.5 28t5.5 28t16 23.5t24 16
t28.5 5.5t28.5 -5.5t24 -16t16 -23.5t5.5 -28t-5.5 -28t-16 -23t-24 -15.5t-28.5 -5.5zM501 424v-320l31 -31h54v-73h-160v68q-11 -16 -26.5 -30t-34.5 -26t-42.5 -19t-48.5 -7q-35 0 -65 10.5t-52 30.5t-34.5 50.5t-12.5 68.5v174l-31 31h-54v73h160v-249q0 -28 5 -49.5
t15.5 -36t28.5 -22t43 -7.5q26 0 47.5 6.5t40 19t33.5 31t28 42.5v161l-31 31h-54v73h160z" />
    <glyph glyph-name="yacute" unicode="&#xfd;" 
d="M22 -78q0 18 6 34.5t17.5 29t26.5 19.5t32 7q14 0 26 -4t21.5 -12.5t14.5 -20t5 -25.5q0 -13 -5 -24.5t-14 -19t-22 -11.5t-29 -3q3 -8 8 -13.5t12 -9t15 -5t16 -1.5q16 0 31 9.5t29 28t28.5 44t34.5 65.5l-184 341h-53v73h225v-73h-49l-21 -22l125 -241l124 241l-20 22
h-49v73h217v-73h-54l-196 -366q-27 -51 -45 -81t-39 -54.5t-46.5 -38t-57.5 -13.5q-28 0 -51.5 9t-41.5 25t-27.5 39t-9.5 51zM265 518l59 136q4 10 10 19t13.5 15.5t17.5 10.5t22 4q11 0 21.5 -4t18 -12t11.5 -18.5t4 -23.5q0 -7 -2.5 -15t-7.5 -15.5t-12.5 -14.5
t-16.5 -13l-117 -88z" />
    <glyph glyph-name="thorn" unicode="&#xfe;" 
d="M184 162q13 -24 28.5 -42.5t34 -31.5t41.5 -20.5t51 -7.5q32 0 58 11.5t44.5 32t28 48.5t9.5 60t-9.5 60t-28 48.5t-44.5 32t-58 11.5q-28 0 -51 -7.5t-41.5 -20.5t-34 -31.5t-28.5 -42.5v-100zM184 -99l16 -16h98v-73h-258v73h53l16 16v623l-16 16h-55v73h146v-260
q11 16 26.5 31t36 27.5t46 19.5t53.5 7q46 0 85.5 -17t69 -48t45.5 -72.5t16 -88.5t-16 -88t-45.5 -72t-69 -48.5t-85.5 -17.5q-28 0 -53.5 7t-46 19.5t-36 27.5t-26.5 31v-170z" />
    <glyph glyph-name="ydieresis" unicode="&#xff;" 
d="M22 -78q0 18 6 34.5t17.5 29t26.5 19.5t32 7q14 0 26 -4t21.5 -12.5t14.5 -20t5 -25.5q0 -13 -5 -24.5t-14 -19t-22 -11.5t-29 -3q3 -8 8 -13.5t12 -9t15 -5t16 -1.5q16 0 31 9.5t29 28t28.5 44t34.5 65.5l-184 341h-53v73h225v-73h-49l-21 -22l125 -241l124 241l-20 22
h-49v73h217v-73h-54l-196 -366q-27 -51 -45 -81t-39 -54.5t-46.5 -38t-57.5 -13.5q-28 0 -51.5 9t-41.5 25t-27.5 39t-9.5 51zM427 512q-15 0 -28.5 5.5t-24 15.5t-16 23.5t-5.5 27.5q0 15 5.5 28.5t16 23.5t24 15.5t28.5 5.5t28.5 -5.5t24 -15.5t16 -23.5t5.5 -28.5
q0 -14 -5.5 -27.5t-16 -23.5t-24 -15.5t-28.5 -5.5zM212 513q-15 0 -28.5 5.5t-24 15.5t-16 23t-5.5 28t5.5 28t16 23.5t24 16t28.5 5.5t28.5 -5.5t24 -16t16 -23.5t5.5 -28t-5.5 -28t-16 -23t-24 -15.5t-28.5 -5.5z" />
    <glyph glyph-name="Amacron" unicode="&#x100;" 
d="M303 488l-81 -225h164zM249 0h-239v73h62l188 497h94l188 -497h62v-73h-245v73h57l30 25l-34 92h-217l-33 -92l30 -25h57v-73zM153 727h309v-74h-309v74z" />
    <glyph glyph-name="amacron" unicode="&#x101;" 
d="M79 320q0 30 17.5 52.5t47.5 37t67 21.5t75 7q45 0 80 -11t59 -31.5t36 -49t12 -63.5v-175q0 -11 1.5 -19.5t5.5 -14.5t10 -9t15 -3q6 0 12 2t12.5 6t13.5 10t19 17l39 -55q-16 -16 -29.5 -26t-26.5 -17t-26.5 -10t-29.5 -3q-17 0 -33 5.5t-29 16.5t-21.5 27.5
t-11.5 36.5q-18 -17 -39.5 -32t-47 -27.5t-53 -19.5t-55.5 -7q-31 0 -56.5 7.5t-44 22t-28.5 36t-10 48.5q0 25 9.5 44.5t27 34t42.5 25t58 18.5l196 55v9q0 21 -8 37t-24 27.5t-38 17t-49 5.5q-19 0 -33 -1t-25.5 -3t-21.5 -5t-22 -7q6 -2 11.5 -6t9.5 -10t6.5 -14t2.5 -17
q0 -11 -4.5 -20.5t-12.5 -16.5t-19 -11t-24 -4t-25 4.5t-20.5 12.5t-13 19.5t-4.5 25.5zM393 218l-179 -57q-14 -3 -26 -7.5t-21.5 -11t-15 -15.5t-5.5 -21t5 -21.5t13.5 -16t20 -9.5t25.5 -3q23 0 46.5 6.5t46.5 18t45.5 27.5t44.5 36v74zM133 594h309v-73h-309v73z" />
    <glyph glyph-name="Abreve" unicode="&#x102;" 
d="M303 488l-81 -225h164zM249 0h-239v73h62l188 497h94l188 -497h62v-73h-245v73h57l30 25l-34 92h-217l-33 -92l30 -25h57v-73zM307 707q19 0 37 6t34 17.5t27.5 28t16.5 36.5l54 -13q-7 -36 -22.5 -64.5t-37.5 -48.5t-49.5 -30t-59.5 -10t-59.5 10t-49.5 29.5t-37.5 48.5
t-22.5 65l54 13q5 -20 17 -36.5t27.5 -28t34 -17.5t36.5 -6z" />
    <glyph glyph-name="abreve" unicode="&#x103;" 
d="M79 320q0 30 17.5 52.5t47.5 37t67 21.5t75 7q45 0 80 -11t59 -31.5t36 -49t12 -63.5v-175q0 -11 1.5 -19.5t5.5 -14.5t10 -9t15 -3q6 0 12 2t12.5 6t13.5 10t19 17l39 -55q-16 -16 -29.5 -26t-26.5 -17t-26.5 -10t-29.5 -3q-17 0 -33 5.5t-29 16.5t-21.5 27.5
t-11.5 36.5q-18 -17 -39.5 -32t-47 -27.5t-53 -19.5t-55.5 -7q-31 0 -56.5 7.5t-44 22t-28.5 36t-10 48.5q0 25 9.5 44.5t27 34t42.5 25t58 18.5l196 55v9q0 21 -8 37t-24 27.5t-38 17t-49 5.5q-19 0 -33 -1t-25.5 -3t-21.5 -5t-22 -7q6 -2 11.5 -6t9.5 -10t6.5 -14t2.5 -17
q0 -11 -4.5 -20.5t-12.5 -16.5t-19 -11t-24 -4t-25 4.5t-20.5 12.5t-13 19.5t-4.5 25.5zM393 218l-179 -57q-14 -3 -26 -7.5t-21.5 -11t-15 -15.5t-5.5 -21t5 -21.5t13.5 -16t20 -9.5t25.5 -3q23 0 46.5 6.5t46.5 18t45.5 27.5t44.5 36v74zM287 576q19 0 37 6t34 17.5
t27.5 28t16.5 36.5l54 -13q-7 -36 -22.5 -64.5t-37.5 -48.5t-49.5 -30t-59.5 -10t-59.5 10t-49.5 29.5t-37.5 48.5t-22.5 65l54 13q5 -20 17 -36.5t27.5 -28t34 -17.5t36.5 -6z" />
    <glyph glyph-name="Aogonek" unicode="&#x104;" 
d="M303 488l-81 -225h164zM474 -169q-16 -14 -30.5 -25.5t-31 -20.5t-35 -14.5t-38.5 -5.5q-21 0 -37.5 6t-28 17t-17 25t-5.5 31t6.5 34t19.5 36t33 40t49 48v71h57l30 25l-34 92h-217l-33 -92l30 -25h57v-73h-239v73h62l188 497h94l188 -497h62v-73h-154
q-34 -31 -57 -53.5t-38 -39.5t-22.5 -29.5t-7.5 -21.5q0 -6 2 -11t5 -8t7.5 -4.5t10.5 -1.5q9 0 19.5 4t21.5 11t22.5 16.5t23.5 20.5z" />
    <glyph glyph-name="aogonek" unicode="&#x105;" 
d="M442 -235q-21 0 -37.5 6t-28 17t-17 25t-5.5 31t6 33.5t18 34t30.5 38t45.5 45.5q-12 4 -22 10.5t-18 16.5t-13 22.5t-7 27.5q-18 -17 -39.5 -32t-47 -27.5t-53 -19.5t-55.5 -7q-31 0 -56.5 7.5t-44 22t-28.5 36t-10 48.5q0 25 9.5 44.5t27 34t42.5 25t58 18.5l196 55v9
q0 21 -8 37t-24 27.5t-38 17t-49 5.5q-19 0 -33 -1t-25.5 -3t-21.5 -5t-22 -7q6 -2 11.5 -6t9.5 -10t6.5 -14t2.5 -17q0 -11 -4.5 -20.5t-12.5 -16.5t-19 -11t-24 -4t-25 4.5t-20.5 12.5t-13 19.5t-4.5 25.5q0 30 17.5 52.5t47.5 37t67 21.5t75 7q45 0 80 -11t59 -31.5
t36 -49t12 -63.5v-175q0 -11 1.5 -19.5t5.5 -14.5t10 -9t15 -3q6 0 12 2t12.5 6t13.5 10t19 17l39 -55q-44 -37 -72.5 -62.5t-52 -49t-36.5 -42.5t-13 -32q0 -6 2 -11t5 -8t8 -4.5t11 -1.5q8 0 18.5 4t22 11t23.5 16.5t23 20.5l37 -52q-16 -14 -30.5 -25.5t-31 -20.5
t-35 -14.5t-38.5 -5.5zM393 218l-179 -57q-14 -3 -26 -7.5t-21.5 -11t-15 -15.5t-5.5 -21t5 -21.5t13.5 -16t20 -9.5t25.5 -3q23 0 46.5 6.5t46.5 18t45.5 27.5t44.5 36v74z" />
    <glyph glyph-name="Cacute" unicode="&#x106;" 
d="M553 99q-23 -27 -50 -48t-56.5 -35.5t-61 -22t-62.5 -7.5q-61 0 -110.5 22.5t-85 63.5t-54 96t-18.5 117q0 63 18.5 117.5t53 95.5t84 63.5t110.5 22.5q19 0 38 -4t37 -12t32.5 -19t24.5 -24l16 6v39h74v-206h-59q-9 28 -25 53.5t-37 45.5t-47 31t-55 11q-44 0 -77.5 -17
t-55.5 -47t-33 -70t-11 -86t12 -85.5t35 -69.5t56.5 -47t76.5 -17q24 0 48 6t46.5 17.5t43.5 28.5t39 38zM284 650l59 136q4 10 10 19t13.5 15.5t17.5 10.5t22 4t22 -4t17.5 -12t11.5 -18.5t4 -23.5q0 -7 -2.5 -14.5t-7.5 -15t-12.5 -14.5t-16.5 -14l-117 -87z" />
    <glyph glyph-name="cacute" unicode="&#x107;" 
d="M274 518l59 136q4 10 10 19t13.5 15.5t17.5 10.5t22 4q11 0 21.5 -4t18 -12t11.5 -18.5t4 -23.5q0 -7 -2.5 -15t-7.5 -15.5t-12.5 -14.5t-16.5 -13l-117 -88zM393 279q0 9 2.5 16.5t7.5 14t12 12t17 8.5q-8 8 -18.5 14t-24 11t-30 7.5t-36.5 2.5q-31 0 -60.5 -10.5
t-52.5 -30.5t-36.5 -48.5t-13.5 -63.5q0 -30 10 -56.5t30 -48t51 -33.5t72 -12q24 0 46 4.5t43 13t40.5 21t40.5 28.5l45 -59q-25 -21 -51 -36.5t-53 -26t-54.5 -16t-56.5 -5.5q-54 0 -100 17t-80 48t-52 72.5t-18 88.5t19.5 88.5t54.5 72.5t81 48t97 17q46 0 85 -11.5
t66.5 -32t42.5 -47t15 -56.5q0 -16 -5.5 -30.5t-16 -25.5t-23.5 -17t-28 -6t-27.5 5.5t-21.5 14.5t-14 21.5t-5 25.5z" />
    <glyph glyph-name="Ccircumflex" unicode="&#x108;" 
d="M553 99q-23 -27 -50 -48t-56.5 -35.5t-61 -22t-62.5 -7.5q-61 0 -110.5 22.5t-85 63.5t-54 96t-18.5 117q0 63 18.5 117.5t53 95.5t84 63.5t110.5 22.5q19 0 38 -4t37 -12t32.5 -19t24.5 -24l16 6v39h74v-206h-59q-9 28 -25 53.5t-37 45.5t-47 31t-55 11q-44 0 -77.5 -17
t-55.5 -47t-33 -70t-11 -86t12 -85.5t35 -69.5t56.5 -47t76.5 -17q24 0 48 6t46.5 17.5t43.5 28.5t39 38zM331 823q9 0 16.5 -3t14.5 -8t12.5 -11t11.5 -14l101 -135l-28 -23l-128 94l-128 -94l-28 23l101 135q6 8 11.5 14t12.5 11t14.5 8t16.5 3z" />
    <glyph glyph-name="ccircumflex" unicode="&#x109;" 
d="M329 692q9 0 16.5 -3t14.5 -8t12.5 -11t11.5 -14l101 -135l-28 -23l-128 94l-128 -94l-28 23l101 135q6 8 11.5 14t12.5 11t14.5 8t16.5 3zM393 279q0 9 2.5 16.5t7.5 14t12 12t17 8.5q-8 8 -18.5 14t-24 11t-30 7.5t-36.5 2.5q-31 0 -60.5 -10.5t-52.5 -30.5
t-36.5 -48.5t-13.5 -63.5q0 -30 10 -56.5t30 -48t51 -33.5t72 -12q24 0 46 4.5t43 13t40.5 21t40.5 28.5l45 -59q-25 -21 -51 -36.5t-53 -26t-54.5 -16t-56.5 -5.5q-54 0 -100 17t-80 48t-52 72.5t-18 88.5t19.5 88.5t54.5 72.5t81 48t97 17q46 0 85 -11.5t66.5 -32
t42.5 -47t15 -56.5q0 -16 -5.5 -30.5t-16 -25.5t-23.5 -17t-28 -6t-27.5 5.5t-21.5 14.5t-14 21.5t-5 25.5z" />
    <glyph glyph-name="Cdotaccent" unicode="&#x10a;" 
d="M330 635q-15 0 -28.5 5.5t-24 16t-16 24.5t-5.5 29q0 16 5.5 30t16 24.5t24 16t28.5 5.5q16 0 30.5 -5.5t24.5 -16t16 -24.5t6 -30t-6 -29.5t-16.5 -24t-24.5 -16t-30 -5.5zM553 99q-23 -27 -50 -48t-56.5 -35.5t-61 -22t-62.5 -7.5q-61 0 -110.5 22.5t-85 63.5t-54 96
t-18.5 117q0 63 18.5 117.5t53 95.5t84 63.5t110.5 22.5q19 0 38 -4t37 -12t32.5 -19t24.5 -24l16 6v39h74v-206h-59q-9 28 -25 53.5t-37 45.5t-47 31t-55 11q-44 0 -77.5 -17t-55.5 -47t-33 -70t-11 -86t12 -85.5t35 -69.5t56.5 -47t76.5 -17q24 0 48 6t46.5 17.5
t43.5 28.5t39 38z" />
    <glyph glyph-name="cdotaccent" unicode="&#x10b;" 
d="M393 279q0 9 2.5 16.5t7.5 14t12 12t17 8.5q-8 8 -18.5 14t-24 11t-30 7.5t-36.5 2.5q-31 0 -60.5 -10.5t-52.5 -30.5t-36.5 -48.5t-13.5 -63.5q0 -30 10 -56.5t30 -48t51 -33.5t72 -12q24 0 46 4.5t43 13t40.5 21t40.5 28.5l45 -59q-25 -21 -51 -36.5t-53 -26t-54.5 -16
t-56.5 -5.5q-54 0 -100 17t-80 48t-52 72.5t-18 88.5t19.5 88.5t54.5 72.5t81 48t97 17q46 0 85 -11.5t66.5 -32t42.5 -47t15 -56.5q0 -16 -5.5 -30.5t-16 -25.5t-23.5 -17t-28 -6t-27.5 5.5t-21.5 14.5t-14 21.5t-5 25.5zM328 508q-15 0 -28.5 5.5t-24 16t-16 24t-5.5 28.5
q0 16 5.5 30t16 24.5t24 16.5t28.5 6q16 0 30.5 -6t24.5 -16t16 -24.5t6 -30.5q0 -15 -6 -28.5t-16.5 -24t-24.5 -16t-30 -5.5z" />
    <glyph glyph-name="Ccaron" unicode="&#x10c;" 
d="M553 99q-23 -27 -50 -48t-56.5 -35.5t-61 -22t-62.5 -7.5q-61 0 -110.5 22.5t-85 63.5t-54 96t-18.5 117q0 63 18.5 117.5t53 95.5t84 63.5t110.5 22.5q19 0 38 -4t37 -12t32.5 -19t24.5 -24l16 6v39h74v-206h-59q-9 28 -25 53.5t-37 45.5t-47 31t-55 11q-44 0 -77.5 -17
t-55.5 -47t-33 -70t-11 -86t12 -85.5t35 -69.5t56.5 -47t76.5 -17q24 0 48 6t46.5 17.5t43.5 28.5t39 38zM331 632q-9 0 -16.5 3t-14.5 8t-12.5 11t-11.5 14l-101 135l28 23l128 -95l128 95l28 -23l-101 -135q-6 -8 -11.5 -14t-12.5 -11t-14.5 -8t-16.5 -3z" />
    <glyph glyph-name="ccaron" unicode="&#x10d;" 
d="M329 499q-9 0 -16.5 3t-14.5 8t-12.5 11t-11.5 14l-101 135l28 23l128 -94l128 94l28 -23l-101 -135q-6 -8 -11.5 -14t-12.5 -11t-14.5 -8t-16.5 -3zM393 279q0 9 2.5 16.5t7.5 14t12 12t17 8.5q-8 8 -18.5 14t-24 11t-30 7.5t-36.5 2.5q-31 0 -60.5 -10.5t-52.5 -30.5
t-36.5 -48.5t-13.5 -63.5q0 -30 10 -56.5t30 -48t51 -33.5t72 -12q24 0 46 4.5t43 13t40.5 21t40.5 28.5l45 -59q-25 -21 -51 -36.5t-53 -26t-54.5 -16t-56.5 -5.5q-54 0 -100 17t-80 48t-52 72.5t-18 88.5t19.5 88.5t54.5 72.5t81 48t97 17q46 0 85 -11.5t66.5 -32
t42.5 -47t15 -56.5q0 -16 -5.5 -30.5t-16 -25.5t-23.5 -17t-28 -6t-27.5 5.5t-21.5 14.5t-14 21.5t-5 25.5z" />
    <glyph glyph-name="Dcaron" unicode="&#x10e;" 
d="M289 632q-9 0 -16.5 3t-14.5 8t-12.5 11t-11.5 14l-101 135l28 23l128 -95l128 95l28 -23l-101 -135q-6 -8 -11.5 -14t-12.5 -11t-14.5 -8t-16.5 -3zM260 73q54 0 96 16t69.5 45t41.5 67.5t14 83.5t-14 83.5t-41.5 67.5t-69.5 45t-96 16h-62v-424h62zM30 0v73h59l31 30
v363l-31 31h-59v73h230q73 0 131 -21t98 -59.5t60 -91t20 -113.5t-20 -113.5t-60 -91t-98 -59.5t-131 -21h-230z" />
    <glyph glyph-name="dcaron" unicode="&#x10f;" 
d="M556 516l41 159q3 13 8 24t12.5 19.5t18.5 13.5t24 5q11 0 20.5 -4t17 -11t12 -17t4.5 -22q0 -6 -1.5 -13t-5 -14t-8.5 -14t-11 -14l-106 -124zM430 262q-13 24 -28.5 42.5t-34 31.5t-41.5 20.5t-51 7.5q-32 0 -57.5 -11.5t-44 -32t-28 -48.5t-9.5 -60t9.5 -60t28 -48.5
t44 -32t57.5 -11.5q28 0 51 7.5t41.5 20.5t34 31.5t28.5 42.5v100zM505 613v-524l16 -16h53v-73h-144v71q-11 -16 -26.5 -31t-35.5 -27.5t-45.5 -19.5t-53.5 -7q-46 0 -86 17t-69.5 48t-45.5 72.5t-16 88.5t16 88t45.5 72t69.5 48.5t86 17.5q28 0 53.5 -7t45.5 -19.5
t35.5 -27.5t26.5 -31v171l-16 16h-98v73h189z" />
    <glyph glyph-name="Dcroat" unicode="&#x110;" 
d="M30 0v73h59l31 30v162h-94v73h94v128l-31 31h-59v73h230q73 0 131 -21t98 -59.5t60 -91t20 -113.5t-20 -113.5t-60 -91t-98 -59.5t-131 -21h-230zM260 73q54 0 96 16t69.5 45t41.5 67.5t14 83.5t-14 83.5t-41.5 67.5t-69.5 45t-96 16h-62v-159h130v-73h-130v-192h62z" />
    <glyph glyph-name="dcroat" unicode="&#x111;" 
d="M430 240q-13 21 -28.5 37.5t-34 28.5t-41.5 18.5t-51 6.5q-32 0 -58 -10t-44.5 -28.5t-28 -43.5t-9.5 -54q0 -28 9.5 -53t28 -43.5t44.5 -29t58 -10.5q28 0 51 6.5t41.5 18.5t34 28.5t28.5 38.5v89zM430 64q-11 -15 -26.5 -28.5t-35.5 -25t-45.5 -18t-53.5 -6.5
q-46 0 -85.5 16t-69 44.5t-45.5 67t-16 81.5t16 81.5t45.5 67t69 44.5t85.5 16q28 0 53.5 -6.5t45.5 -17.5t35.5 -25t26.5 -29v125h-179v57h179v40l-8 9h-106v56h189v-105h70v-57h-70v-362l16 -16h53v-73h-144v64z" />
    <glyph glyph-name="Emacron" unicode="&#x112;" 
d="M157 727h309v-74h-309v74zM442 73l31 31v103h76v-207h-522v73h78l31 31v362l-31 31h-78v73h518v-212h-76v108l-31 31h-224v-174h83l31 31v61h64v-250h-64v60l-31 31h-83v-183h228z" />
    <glyph glyph-name="emacron" unicode="&#x113;" 
d="M453 253q-6 23 -18.5 43.5t-30.5 36t-41.5 24t-51.5 8.5t-53 -8t-46 -23.5t-35 -37t-20 -48.5h297zM531 70q-25 -21 -50.5 -36.5t-52 -26t-53.5 -16t-55 -5.5q-54 0 -99.5 17t-78.5 48t-51 72t-18 89q0 47 17.5 88.5t50 72.5t76 48t94.5 17q58 0 102.5 -20.5t74 -56.5
t44.5 -81t15 -94h-392q4 -26 16.5 -49t33.5 -40t50 -27t65 -10q24 0 46 4t42.5 12t40.5 20t40 28zM164 594h309v-73h-309v73z" />
    <glyph glyph-name="Ebreve" unicode="&#x114;" 
d="M311 707q19 0 37 6t34 17.5t27.5 28t16.5 36.5l54 -13q-7 -36 -22.5 -64.5t-37.5 -48.5t-49.5 -30t-59.5 -10t-59.5 10t-49.5 29.5t-37.5 48.5t-22.5 65l54 13q5 -20 17 -36.5t27.5 -28t34 -17.5t36.5 -6zM442 73l31 31v103h76v-207h-522v73h78l31 31v362l-31 31h-78v73
h518v-212h-76v108l-31 31h-224v-174h83l31 31v61h64v-250h-64v60l-31 31h-83v-183h228z" />
    <glyph glyph-name="ebreve" unicode="&#x115;" 
d="M453 253q-6 23 -18.5 43.5t-30.5 36t-41.5 24t-51.5 8.5t-53 -8t-46 -23.5t-35 -37t-20 -48.5h297zM531 70q-25 -21 -50.5 -36.5t-52 -26t-53.5 -16t-55 -5.5q-54 0 -99.5 17t-78.5 48t-51 72t-18 89q0 47 17.5 88.5t50 72.5t76 48t94.5 17q58 0 102.5 -20.5t74 -56.5
t44.5 -81t15 -94h-392q4 -26 16.5 -49t33.5 -40t50 -27t65 -10q24 0 46 4t42.5 12t40.5 20t40 28zM318 576q19 0 37 6t34 17.5t27.5 28t16.5 36.5l54 -13q-7 -36 -22.5 -64.5t-37.5 -48.5t-49.5 -30t-59.5 -10t-59.5 10t-49.5 29.5t-37.5 48.5t-22.5 65l54 13
q5 -20 17 -36.5t27.5 -28t34 -17.5t36.5 -6z" />
    <glyph glyph-name="Edotaccent" unicode="&#x116;" 
d="M310 635q-15 0 -28.5 5.5t-24 16t-16 24.5t-5.5 29q0 16 5.5 30t16 24.5t24 16t28.5 5.5q16 0 30.5 -5.5t24.5 -16t16 -24.5t6 -30t-6 -29.5t-16.5 -24t-24.5 -16t-30 -5.5zM442 73l31 31v103h76v-207h-522v73h78l31 31v362l-31 31h-78v73h518v-212h-76v108l-31 31h-224
v-174h83l31 31v61h64v-250h-64v60l-31 31h-83v-183h228z" />
    <glyph glyph-name="edotaccent" unicode="&#x117;" 
d="M453 253q-6 23 -18.5 43.5t-30.5 36t-41.5 24t-51.5 8.5t-53 -8t-46 -23.5t-35 -37t-20 -48.5h297zM531 70q-25 -21 -50.5 -36.5t-52 -26t-53.5 -16t-55 -5.5q-54 0 -99.5 17t-78.5 48t-51 72t-18 89q0 47 17.5 88.5t50 72.5t76 48t94.5 17q58 0 102.5 -20.5t74 -56.5
t44.5 -81t15 -94h-392q4 -26 16.5 -49t33.5 -40t50 -27t65 -10q24 0 46 4t42.5 12t40.5 20t40 28zM317 508q-15 0 -28.5 5.5t-24 16t-16 24t-5.5 28.5q0 16 5.5 30t16 24.5t24 16.5t28.5 6q16 0 30.5 -6t24.5 -16t16 -24.5t6 -30.5q0 -15 -6 -28.5t-16.5 -24t-24.5 -16
t-30 -5.5z" />
    <glyph glyph-name="Eogonek" unicode="&#x118;" 
d="M483 -169q-16 -14 -30.5 -25.5t-31 -20.5t-35 -14.5t-38.5 -5.5q-21 0 -37.5 6t-28 17t-17 25t-5.5 31t6.5 34t19 35.5t32 39t48.5 47.5h-339v73h78l31 31v362l-31 31h-78v73h518v-212h-76v108l-31 31h-224v-174h83l31 31v61h64v-250h-64v60l-31 31h-83v-183h228l31 31
v103h76v-207h-90q-34 -31 -57 -53.5t-38 -39.5t-22.5 -29.5t-7.5 -21.5q0 -6 2 -11t5 -8t7.5 -4.5t10.5 -1.5q9 0 19.5 4t21.5 11t22.5 16.5t23.5 20.5l37 -52v0z" />
    <glyph glyph-name="eogonek" unicode="&#x119;" 
d="M453 253q-6 23 -18.5 43.5t-30.5 36t-41.5 24t-51.5 8.5t-53.5 -8t-46 -23.5t-34.5 -37t-20 -48.5h297zM483 -169q-16 -14 -30.5 -25.5t-31.5 -20.5t-35.5 -14.5t-38.5 -5.5q-21 0 -37.5 6t-27.5 17t-16.5 25t-5.5 31t6 34.5t18 35.5t30 37t42 39q-4 -1 -8.5 -2
t-9.5 -1.5t-9.5 -0.5h-8.5q-54 0 -99.5 17t-78.5 48t-51 72t-18 89q0 47 17.5 88.5t50 72.5t76 48t94.5 17q58 0 102.5 -20.5t74 -56.5t44.5 -81t15 -94h-391q4 -26 16.5 -49t33.5 -40.5t50 -27t64 -9.5q24 0 46 4t42.5 12t40.5 20t40 28l42 -54q-51 -40 -87.5 -71
t-61 -56.5t-37 -47t-12.5 -39.5q0 -6 2 -11t5 -8t8 -4.5t11 -1.5q8 0 18.5 4t22 11t23 16.5t22.5 20.5z" />
    <glyph glyph-name="Ecaron" unicode="&#x11a;" 
d="M311 632q-9 0 -16.5 3t-14.5 8t-12.5 11t-11.5 14l-101 135l28 23l128 -95l128 95l28 -23l-101 -135q-6 -8 -11.5 -14t-12.5 -11t-14.5 -8t-16.5 -3zM442 73l31 31v103h76v-207h-522v73h78l31 31v362l-31 31h-78v73h518v-212h-76v108l-31 31h-224v-174h83l31 31v61h64
v-250h-64v60l-31 31h-83v-183h228z" />
    <glyph glyph-name="ecaron" unicode="&#x11b;" 
d="M318 499q-9 0 -16.5 3t-14.5 8t-12.5 11t-11.5 14l-101 135l28 23l128 -94l128 94l28 -23l-101 -135q-6 -8 -11.5 -14t-12.5 -11t-14.5 -8t-16.5 -3zM453 253q-6 23 -18.5 43.5t-30.5 36t-41.5 24t-51.5 8.5t-53 -8t-46 -23.5t-35 -37t-20 -48.5h297zM531 70
q-25 -21 -50.5 -36.5t-52 -26t-53.5 -16t-55 -5.5q-54 0 -99.5 17t-78.5 48t-51 72t-18 89q0 47 17.5 88.5t50 72.5t76 48t94.5 17q58 0 102.5 -20.5t74 -56.5t44.5 -81t15 -94h-392q4 -26 16.5 -49t33.5 -40t50 -27t65 -10q24 0 46 4t42.5 12t40.5 20t40 28z" />
    <glyph glyph-name="Gcircumflex" unicode="&#x11c;" 
d="M305 505q-43 0 -76 -16.5t-55 -46.5t-33 -70t-11 -86t11 -85.5t33.5 -70t55.5 -47.5t75 -17q21 0 41 6.5t37.5 18.5t33.5 27t32 34v47l-22 24h-75v73h236v-73h-36l-28 -29v-194h-75v43l-14 10q-14 -17 -31.5 -30t-36.5 -21t-38 -12t-37 -4q-55 0 -101.5 23t-80 64
t-51.5 96t-18 117t18 116.5t52.5 95.5t83 63.5t107.5 22.5q19 0 37.5 -4t36 -12t31.5 -19t24 -24l14 6v39h74v-192h-59q-10 27 -25 50t-35 40.5t-44 27t-51 9.5zM313 823q9 0 16.5 -3t14.5 -8t12.5 -11t11.5 -14l101 -135l-28 -23l-128 94l-128 -94l-28 23l101 135
q6 8 11.5 14t12.5 11t14.5 8t16.5 3z" />
    <glyph glyph-name="gcircumflex" unicode="&#x11d;" 
d="M294 707q9 0 16.5 -3t14.5 -8t12.5 -11t11.5 -14l101 -135l-28 -23l-128 94l-128 -94l-28 23l101 135q6 8 11.5 14t12.5 11t14.5 8t16.5 3zM372 285q0 18 -7.5 33t-20.5 26t-31 17t-39 6t-39 -6t-31 -17t-20.5 -26t-7.5 -33t7.5 -33.5t20.5 -26.5t31 -17t39 -6t39 6
t31 17t20.5 26.5t7.5 33.5zM564 -43q0 -33 -19 -62t-54 -51t-83.5 -34t-106.5 -12q-62 0 -111 9.5t-83 27.5t-51.5 44.5t-17.5 59.5q0 15 4 28.5t12 25t18.5 21t23.5 18.5q-7 6 -12 13.5t-8.5 16t-5 16.5t-1.5 16q0 16 4.5 29.5t12.5 25t19.5 21t26.5 17.5q-9 10 -16 21.5
t-12 24t-7.5 25.5t-2.5 27q0 32 13 60t37 49t57.5 32.5t72.5 11.5q12 0 23 -1t22 -3t20.5 -5t19.5 -7q11 19 25.5 34.5t32 27.5t38 18.5t43.5 6.5t42.5 -7t34.5 -20t23 -30.5t8 -38.5q0 -15 -5 -28t-13 -22t-19.5 -14t-23.5 -5q-13 0 -24.5 4.5t-19.5 12.5t-12 18t-4 21
q0 6 1.5 12t5 11.5t8 9.5t10.5 7q-2 2 -4 3t-4.5 2t-5.5 1.5t-7 0.5q-12 0 -23.5 -4t-22 -11t-19.5 -17.5t-17 -23.5q11 -10 20 -22t15 -25.5t9 -28.5t3 -30q0 -32 -13 -60t-37 -49.5t-57.5 -33t-72.5 -11.5q-13 0 -25.5 1.5t-24.5 4t-23 6.5t-21 9q-9 -5 -15.5 -10.5
t-11.5 -11t-7.5 -11.5t-2.5 -13q0 -6 2.5 -12t7 -10t12 -6.5t16.5 -2.5h231q35 0 62.5 -7t48 -21.5t31 -37t10.5 -52.5zM149 -4q-7 -5 -12.5 -11t-9.5 -12t-6 -13t-2 -14q0 -18 12 -32.5t35.5 -24t57.5 -14.5t77 -5q41 0 75.5 6.5t59 18t37.5 26.5t13 32q0 12 -5 20.5
t-14 13.5t-21 7t-27 2h-270z" />
    <glyph glyph-name="Gbreve" unicode="&#x11e;" 
d="M313 707q19 0 37 6t34 17.5t27.5 28t16.5 36.5l54 -13q-7 -36 -22.5 -64.5t-37.5 -48.5t-49.5 -30t-59.5 -10t-59.5 10t-49.5 29.5t-37.5 48.5t-22.5 65l54 13q5 -20 17 -36.5t27.5 -28t34 -17.5t36.5 -6zM305 505q-43 0 -76 -16.5t-55 -46.5t-33 -70t-11 -86t11 -85.5
t33.5 -70t55.5 -47.5t75 -17q21 0 41 6.5t37.5 18.5t33.5 27t32 34v47l-22 24h-75v73h236v-73h-36l-28 -29v-194h-75v43l-14 10q-14 -17 -31.5 -30t-36.5 -21t-38 -12t-37 -4q-55 0 -101.5 23t-80 64t-51.5 96t-18 117t18 116.5t52.5 95.5t83 63.5t107.5 22.5q19 0 37.5 -4
t36 -12t31.5 -19t24 -24l14 6v39h74v-192h-59q-10 27 -25 50t-35 40.5t-44 27t-51 9.5z" />
    <glyph glyph-name="gbreve" unicode="&#x11f;" 
d="M372 285q0 18 -7.5 33t-20.5 26t-31 17t-39 6t-39 -6t-31 -17t-20.5 -26t-7.5 -33t7.5 -33.5t20.5 -26.5t31 -17t39 -6t39 6t31 17t20.5 26.5t7.5 33.5zM564 -43q0 -33 -19 -62t-54 -51t-83.5 -34t-106.5 -12q-62 0 -111 9.5t-83 27.5t-51.5 44.5t-17.5 59.5q0 15 4 28.5
t12 25t18.5 21t23.5 18.5q-7 6 -12 13.5t-8.5 16t-5 16.5t-1.5 16q0 16 4.5 29.5t12.5 25t19.5 21t26.5 17.5q-9 10 -16 21.5t-12 24t-7.5 25.5t-2.5 27q0 32 13 60t37 49t57.5 32.5t72.5 11.5q12 0 23 -1t22 -3t20.5 -5t19.5 -7q11 19 25.5 34.5t32 27.5t38 18.5t43.5 6.5
t42.5 -7t34.5 -20t23 -30.5t8 -38.5q0 -15 -5 -28t-13 -22t-19.5 -14t-23.5 -5q-13 0 -24.5 4.5t-19.5 12.5t-12 18t-4 21q0 6 1.5 12t5 11.5t8 9.5t10.5 7q-2 2 -4 3t-4.5 2t-5.5 1.5t-7 0.5q-12 0 -23.5 -4t-22 -11t-19.5 -17.5t-17 -23.5q11 -10 20 -22t15 -25.5t9 -28.5
t3 -30q0 -32 -13 -60t-37 -49.5t-57.5 -33t-72.5 -11.5q-13 0 -25.5 1.5t-24.5 4t-23 6.5t-21 9q-9 -5 -15.5 -10.5t-11.5 -11t-7.5 -11.5t-2.5 -13q0 -6 2.5 -12t7 -10t12 -6.5t16.5 -2.5h231q35 0 62.5 -7t48 -21.5t31 -37t10.5 -52.5zM149 -4q-7 -5 -12.5 -11t-9.5 -12
t-6 -13t-2 -14q0 -18 12 -32.5t35.5 -24t57.5 -14.5t77 -5q41 0 75.5 6.5t59 18t37.5 26.5t13 32q0 12 -5 20.5t-14 13.5t-21 7t-27 2h-270zM279 584q19 0 37 6t34 17.5t27.5 28t16.5 36.5l54 -13q-7 -36 -22.5 -64.5t-37.5 -48.5t-49.5 -30t-59.5 -10t-59.5 10t-49.5 29.5
t-37.5 48.5t-22.5 65l54 13q5 -20 17 -36.5t27.5 -28t34 -17.5t36.5 -6z" />
    <glyph glyph-name="Gdotaccent" unicode="&#x120;" 
d="M312 635q-15 0 -28.5 5.5t-24 16t-16 24.5t-5.5 29q0 16 5.5 30t16 24.5t24 16t28.5 5.5q16 0 30.5 -5.5t24.5 -16t16 -24.5t6 -30t-6 -29.5t-16.5 -24t-24.5 -16t-30 -5.5zM305 505q-43 0 -76 -16.5t-55 -46.5t-33 -70t-11 -86t11 -85.5t33.5 -70t55.5 -47.5t75 -17
q21 0 41 6.5t37.5 18.5t33.5 27t32 34v47l-22 24h-75v73h236v-73h-36l-28 -29v-194h-75v43l-14 10q-14 -17 -31.5 -30t-36.5 -21t-38 -12t-37 -4q-55 0 -101.5 23t-80 64t-51.5 96t-18 117t18 116.5t52.5 95.5t83 63.5t107.5 22.5q19 0 37.5 -4t36 -12t31.5 -19t24 -24l14 6
v39h74v-192h-59q-10 27 -25 50t-35 40.5t-44 27t-51 9.5z" />
    <glyph glyph-name="gdotaccent" unicode="&#x121;" 
d="M372 285q0 18 -7.5 33t-20.5 26t-31 17t-39 6t-39 -6t-31 -17t-20.5 -26t-7.5 -33t7.5 -33.5t20.5 -26.5t31 -17t39 -6t39 6t31 17t20.5 26.5t7.5 33.5zM564 -43q0 -33 -19 -62t-54 -51t-83.5 -34t-106.5 -12q-62 0 -111 9.5t-83 27.5t-51.5 44.5t-17.5 59.5q0 15 4 28.5
t12 25t18.5 21t23.5 18.5q-7 6 -12 13.5t-8.5 16t-5 16.5t-1.5 16q0 16 4.5 29.5t12.5 25t19.5 21t26.5 17.5q-9 10 -16 21.5t-12 24t-7.5 25.5t-2.5 27q0 32 13 60t37 49t57.5 32.5t72.5 11.5q12 0 23 -1t22 -3t20.5 -5t19.5 -7q11 19 25.5 34.5t32 27.5t38 18.5t43.5 6.5
t42.5 -7t34.5 -20t23 -30.5t8 -38.5q0 -15 -5 -28t-13 -22t-19.5 -14t-23.5 -5q-13 0 -24.5 4.5t-19.5 12.5t-12 18t-4 21q0 6 1.5 12t5 11.5t8 9.5t10.5 7q-2 2 -4 3t-4.5 2t-5.5 1.5t-7 0.5q-12 0 -23.5 -4t-22 -11t-19.5 -17.5t-17 -23.5q11 -10 20 -22t15 -25.5t9 -28.5
t3 -30q0 -32 -13 -60t-37 -49.5t-57.5 -33t-72.5 -11.5q-13 0 -25.5 1.5t-24.5 4t-23 6.5t-21 9q-9 -5 -15.5 -10.5t-11.5 -11t-7.5 -11.5t-2.5 -13q0 -6 2.5 -12t7 -10t12 -6.5t16.5 -2.5h231q35 0 62.5 -7t48 -21.5t31 -37t10.5 -52.5zM149 -4q-7 -5 -12.5 -11t-9.5 -12
t-6 -13t-2 -14q0 -18 12 -32.5t35.5 -24t57.5 -14.5t77 -5q41 0 75.5 6.5t59 18t37.5 26.5t13 32q0 12 -5 20.5t-14 13.5t-21 7t-27 2h-270zM301 508q-15 0 -28.5 5.5t-24 16t-16 24t-5.5 28.5q0 16 5.5 30t16 24.5t24 16.5t28.5 6q16 0 30.5 -6t24.5 -16t16 -24.5t6 -30.5
q0 -15 -6 -28.5t-16.5 -24t-24.5 -16t-30 -5.5z" />
    <glyph glyph-name="Gcommaaccent" unicode="&#x122;" 
d="M245 -135q0 15 5.5 28t15 22.5t22.5 15t27 5.5t27 -5.5t22.5 -16t15 -23.5t5.5 -28q0 -6 -1.5 -12.5t-4 -13t-6.5 -13.5t-9 -14l-95 -116l-35 25l54 83q-9 3 -17 9t-13.5 14.5t-9 18.5t-3.5 21zM305 505q-43 0 -76 -16.5t-55 -46.5t-33 -70t-11 -86t11 -85.5t33.5 -70
t55.5 -47.5t75 -17q21 0 41 6.5t37.5 18.5t33.5 27t32 34v47l-22 24h-75v73h236v-73h-36l-28 -29v-194h-75v43l-14 10q-14 -17 -31.5 -30t-36.5 -21t-38 -12t-37 -4q-55 0 -101.5 23t-80 64t-51.5 96t-18 117t18 116.5t52.5 95.5t83 63.5t107.5 22.5q19 0 37.5 -4t36 -12
t31.5 -19t24 -24l14 6v39h74v-192h-59q-10 27 -25 50t-35 40.5t-44 27t-51 9.5z" />
    <glyph glyph-name="gcommaaccent" unicode="&#x123;" 
d="M358 575q0 -15 -5.5 -27.5t-15 -22.5t-22.5 -15t-27 -5t-27 5.5t-22.5 15.5t-15 23.5t-5.5 28.5q0 6 1.5 12.5t4 13t6.5 13.5t9 14l95 116l35 -26l-54 -82q9 -4 17 -10t13.5 -14.5t9 -18.5t3.5 -21zM372 285q0 18 -7.5 33t-20.5 26t-31 17t-39 6t-39 -6t-31 -17
t-20.5 -26t-7.5 -33t7.5 -33.5t20.5 -26.5t31 -17t39 -6t39 6t31 17t20.5 26.5t7.5 33.5zM564 -43q0 -33 -19 -62t-54 -51t-83.5 -34t-106.5 -12q-62 0 -111 9.5t-83 27.5t-51.5 44.5t-17.5 59.5q0 15 4 28.5t12 25t18.5 21t23.5 18.5q-7 6 -12 13.5t-8.5 16t-5 16.5
t-1.5 16q0 16 4.5 29.5t12.5 25t19.5 21t26.5 17.5q-9 10 -16 21.5t-12 24t-7.5 25.5t-2.5 27q0 32 13 60t37 49t57.5 32.5t72.5 11.5q12 0 23 -1t22 -3t20.5 -5t19.5 -7q11 19 25.5 34.5t32 27.5t38 18.5t43.5 6.5t42.5 -7t34.5 -20t23 -30.5t8 -38.5q0 -15 -5 -28t-13 -22
t-19.5 -14t-23.5 -5q-13 0 -24.5 4.5t-19.5 12.5t-12 18t-4 21q0 6 1.5 12t5 11.5t8 9.5t10.5 7q-2 2 -4 3t-4.5 2t-5.5 1.5t-7 0.5q-12 0 -23.5 -4t-22 -11t-19.5 -17.5t-17 -23.5q11 -10 20 -22t15 -25.5t9 -28.5t3 -30q0 -32 -13 -60t-37 -49.5t-57.5 -33t-72.5 -11.5
q-13 0 -25.5 1.5t-24.5 4t-23 6.5t-21 9q-9 -5 -15.5 -10.5t-11.5 -11t-7.5 -11.5t-2.5 -13q0 -6 2.5 -12t7 -10t12 -6.5t16.5 -2.5h231q35 0 62.5 -7t48 -21.5t31 -37t10.5 -52.5zM149 -4q-7 -5 -12.5 -11t-9.5 -12t-6 -13t-2 -14q0 -18 12 -32.5t35.5 -24t57.5 -14.5
t77 -5q41 0 75.5 6.5t59 18t37.5 26.5t13 32q0 12 -5 20.5t-14 13.5t-21 7t-27 2h-270z" />
    <glyph glyph-name="Hcircumflex" unicode="&#x124;" 
d="M396 497h-48v73h236v-73h-48l-31 -31v-362l31 -31h48v-73h-236v73h48l31 31v157h-240v-157l31 -31h49v-73h-237v73h49l31 31v362l-31 31h-49v73h237v-73h-49l-31 -31v-132h240v132zM307 823q9 0 16.5 -3t14.5 -8t12.5 -11t11.5 -14l101 -135l-28 -23l-128 94l-128 -94
l-28 23l101 135q6 8 11.5 14t12.5 11t14.5 8t16.5 3z" />
    <glyph glyph-name="hcircumflex" unicode="&#x125;" 
d="M199 104l31 -31h54v-73h-245v73h54l31 31v405l-31 31h-54v73h160v-257q11 15 26.5 29.5t35.5 26.5t43.5 19t48.5 7q34 0 63.5 -10.5t51.5 -30.5t34.5 -50.5t12.5 -68.5v-174l31 -31h54v-73h-245v73h54l31 31v145q0 25 -4 45t-13.5 36t-28 25t-45.5 9q-26 0 -48 -6.5
t-40.5 -19t-33.5 -31t-28 -42.5v-161zM320 843q9 0 16.5 -3t14.5 -8t12.5 -11t11.5 -14l101 -135l-28 -23l-128 94l-128 -94l-28 23l101 135q6 8 11.5 14t12.5 11t14.5 8t16.5 3z" />
    <glyph glyph-name="Hbar" unicode="&#x126;" 
d="M427 271v64h-240v-64h240zM267 0h-237v73h49l31 31v231h-84v65h84v66l-31 31h-49v73h237v-73h-49l-31 -31v-66h240v66l-31 31h-48v73h236v-73h-48l-31 -31v-66h83v-65h-83v-231l31 -31h48v-73h-236v73h48l31 31v102h-240v-102l31 -31h49v-73z" />
    <glyph glyph-name="hbar" unicode="&#x127;" 
d="M284 0h-245v73h54l31 31v347h-86v57h86v39l-10 10h-75v56h160v-105h163v-57h-163v-123q11 15 26.5 29.5t35.5 26.5t43.5 19t48.5 7q34 0 63.5 -10.5t51.5 -30.5t34.5 -50.5t12.5 -68.5v-146l31 -31h54v-73h-245v73h54l31 31v117q0 24 -4 44.5t-13.5 36.5t-28 25t-45.5 9
q-26 0 -48 -6.5t-40.5 -19t-33.5 -31t-28 -42.5v-133l31 -31h54v-73z" />
    <glyph glyph-name="Itilde" unicode="&#x128;" 
d="M234 497h-135v73h416v-73h-135l-31 -31v-362l31 -31h135v-73h-416v73h135l31 31v362zM498 771q0 -32 -8 -57.5t-23.5 -44t-36 -28t-44.5 -9.5q-22 0 -41.5 9t-44 27t-36.5 25.5t-26 7.5q-11 0 -20 -4.5t-16.5 -13t-11.5 -21t-4 -27.5h-71q0 31 8 56.5t23 44t35 28t45 9.5
q22 0 40.5 -9t43 -27t38 -25.5t27.5 -7.5q10 0 19.5 4.5t16.5 13.5t11 21.5t4 27.5h72z" />
    <glyph glyph-name="itilde" unicode="&#x129;" 
d="M398 73h141v-73h-441v73h163l31 31v216l-31 31h-163v73h269v-320zM506 641q0 -32 -8 -57.5t-23.5 -44t-36 -28t-44.5 -9.5q-22 0 -41.5 9t-44 27t-36.5 25.5t-26 7.5q-11 0 -20 -4.5t-16.5 -13t-11.5 -21t-4 -27.5h-71q0 31 8 56.5t23 44t35 28t45 9.5q22 0 40.5 -9
t43 -27t38 -25.5t27.5 -7.5q10 0 19.5 4.5t16.5 13.5t11 21.5t4 27.5h72z" />
    <glyph glyph-name="Imacron" unicode="&#x12a;" 
d="M234 497h-135v73h416v-73h-135l-31 -31v-362l31 -31h135v-73h-416v73h135l31 31v362zM152 727h309v-74h-309v74z" />
    <glyph glyph-name="imacron" unicode="&#x12b;" 
d="M398 73h141v-73h-441v73h163l31 31v216l-31 31h-163v73h269v-320zM160 594h309v-73h-309v73z" />
    <glyph glyph-name="Ibreve" unicode="&#x12c;" 
d="M234 497h-135v73h416v-73h-135l-31 -31v-362l31 -31h135v-73h-416v73h135l31 31v362zM306 707q19 0 37 6t34 17.5t27.5 28t16.5 36.5l54 -13q-7 -36 -22.5 -64.5t-37.5 -48.5t-49.5 -30t-59.5 -10t-59.5 10t-49.5 29.5t-37.5 48.5t-22.5 65l54 13q5 -20 17 -36.5
t27.5 -28t34 -17.5t36.5 -6z" />
    <glyph glyph-name="ibreve" unicode="&#x12d;" 
d="M398 73h141v-73h-441v73h163l31 31v216l-31 31h-163v73h269v-320zM314 576q19 0 37 6t34 17.5t27.5 28t16.5 36.5l54 -13q-7 -36 -22.5 -64.5t-37.5 -48.5t-49.5 -30t-59.5 -10t-59.5 10t-49.5 29.5t-37.5 48.5t-22.5 65l54 13q5 -20 17 -36.5t27.5 -28t34 -17.5t36.5 -6
z" />
    <glyph glyph-name="Iogonek" unicode="&#x12e;" 
d="M454 -169q-16 -14 -30.5 -25.5t-31 -20.5t-35 -14.5t-38.5 -5.5q-21 0 -37.5 6t-28 17t-17 25t-5.5 31t6.5 34t19 35.5t32 39t48.5 47.5h-238v73h135l31 31v362l-31 31h-135v73h416v-73h-135l-31 -31v-362l31 -31h135v-73h-85q-34 -31 -57 -53.5t-38 -39.5t-22.5 -29.5
t-7.5 -21.5q0 -6 2 -11t5 -8t7.5 -4.5t10.5 -1.5q9 0 19.5 4t21.5 11t22.5 16.5t23.5 20.5l37 -52v0z" />
    <glyph glyph-name="iogonek" unicode="&#x12f;" 
d="M238 582q0 16 5.5 30t16 24.5t24 16.5t28.5 6q16 0 30.5 -6t24.5 -16t16 -24.5t6 -30.5q0 -15 -6 -28.5t-16.5 -24t-24.5 -16t-30 -5.5q-15 0 -28.5 5.5t-24 16t-16 24t-5.5 28.5zM441 -169q-16 -14 -30.5 -25.5t-31 -20.5t-35 -14.5t-38.5 -5.5q-21 0 -37.5 6t-28 17
t-17 25t-5.5 31t6.5 34t19 35.5t32 39t48.5 47.5h-226v73h163l31 31v216l-31 31h-163v73h269v-320l31 -31h141v-73h-122q-34 -31 -57 -53.5t-38 -39.5t-22.5 -29.5t-7.5 -21.5q0 -6 2 -11t5 -8t7.5 -4.5t10.5 -1.5q9 0 19.5 4t21.5 11t22.5 16.5t23.5 20.5z" />
    <glyph glyph-name="Idotaccent" unicode="&#x130;" 
d="M234 497h-135v73h416v-73h-135l-31 -31v-362l31 -31h135v-73h-416v73h135l31 31v362zM306 635q-15 0 -28.5 5.5t-24 16t-16 24.5t-5.5 29q0 16 5.5 30t16 24.5t24 16t28.5 5.5q16 0 30.5 -5.5t24.5 -16t16 -24.5t6 -30t-6 -29.5t-16.5 -24t-24.5 -16t-30 -5.5z" />
    <glyph glyph-name="dotlessi" unicode="&#x131;" 
d="M398 73h141v-73h-441v73h163l31 31v216l-31 31h-163v73h269v-320z" />
    <glyph glyph-name="Jcircumflex" unicode="&#x134;" 
d="M395 466l-31 31h-185v73h403v-73h-72l-31 -31v-254q0 -52 -16.5 -94t-46 -71.5t-68.5 -45t-83 -15.5q-47 0 -85.5 16t-66.5 43.5t-42.5 63.5t-14.5 76q0 20 6.5 38t18.5 31t28.5 20.5t34.5 7.5q17 0 31.5 -6t25 -15.5t16 -22t5.5 -25.5q0 -14 -6 -28t-16.5 -24.5
t-24.5 -15.5t-29 -2q4 -18 13 -33.5t23 -27t35 -18t48 -6.5q32 0 56 9.5t40.5 29t25 49.5t8.5 71v249zM416 823q9 0 16.5 -3t14.5 -8t12.5 -11t11.5 -14l101 -135l-28 -23l-128 94l-128 -94l-28 23l101 135q6 8 11.5 14t12.5 11t14.5 8t16.5 3z" />
    <glyph glyph-name="jcircumflex" unicode="&#x135;" 
d="M419 692q9 0 16.5 -3t14.5 -8t12.5 -11t11.5 -14l101 -135l-28 -23l-128 94l-128 -94l-28 23l101 135q6 8 11.5 14t12.5 11t14.5 8t16.5 3zM69 -34q0 19 6 35.5t17 29t26 19.5t32 7q16 0 30 -5t23.5 -14.5t14.5 -21.5t5 -25q0 -12 -4.5 -22.5t-12.5 -19t-19 -14t-24 -5.5
q5 -14 15.5 -25.5t24 -19.5t30 -12.5t34.5 -4.5q32 0 57 10.5t41.5 31t25 50.5t8.5 70v290l-31 31h-203v73h309v-399q0 -53 -15.5 -95t-43 -70.5t-65.5 -43t-83 -14.5q-40 0 -76.5 13t-63.5 36t-42.5 53t-15.5 62z" />
    <glyph glyph-name="Kcommaaccent" unicode="&#x136;" 
d="M233 -135q0 15 5.5 28t15 22.5t22.5 15t27 5.5t27 -5.5t22.5 -16t15 -23.5t5.5 -28q0 -6 -1.5 -12.5t-4 -13t-6.5 -13.5t-9 -14l-95 -116l-35 25l54 83q-9 3 -17 9t-13.5 14.5t-9 18.5t-3.5 21zM267 0h-237v73h49l31 31v362l-31 31h-49v73h237v-73h-49l-31 -31v-207
l209 213l-30 25h-31v73h229v-73h-54l-162 -165l189 -259h54v-73h-244v73h48l29 25l-131 178l-106 -107v-65l31 -31h49v-73z" />
    <glyph glyph-name="kcommaaccent" unicode="&#x137;" 
d="M240 -135q0 15 5.5 28t15 22.5t22.5 15t27 5.5t27 -5.5t22.5 -16t15 -23.5t5.5 -28q0 -6 -1.5 -12.5t-4 -13t-6.5 -13.5t-9 -14l-95 -116l-35 25l54 83q-9 3 -17 9t-13.5 14.5t-9 18.5t-3.5 21zM272 0h-235v73h49l31 31v405l-31 31h-56v73h162v-403l198 127l-2 14h-54v73
h232v-73h-44l-183 -115l142 -163h107v-73h-209v74l-104 121l-83 -52v-39l31 -31h49v-73z" />
    <glyph glyph-name="kgreenlandic" unicode="&#x138;" 
d="M272 0h-235v73h49l31 31v216l-31 31h-56v73h162v-214l198 127l-2 14h-54v73h232v-73h-44l-183 -115l142 -163h107v-73h-209v74l-104 121l-83 -52v-39l31 -31h49v-73z" />
    <glyph glyph-name="Lacute" unicode="&#x139;" 
d="M154 650l59 136q4 10 10 19t13.5 15.5t17.5 10.5t22 4t22 -4t17.5 -12t11.5 -18.5t4 -23.5q0 -7 -2.5 -14.5t-7.5 -15t-12.5 -14.5t-16.5 -14l-117 -87zM321 570v-73h-69l-31 -31v-393h228l31 31v138h76v-242h-512v73h69l31 31v362l-31 31h-69v73h277z" />
    <glyph glyph-name="lacute" unicode="&#x13a;" 
d="M271 673l59 136q4 10 10 19t13.5 15.5t17.5 10.5t22 4t22 -4t17.5 -12t11.5 -18.5t4 -23.5q0 -7 -2.5 -14.5t-7.5 -15t-12.5 -14.5t-16.5 -14l-117 -87zM398 73h141v-73h-441v73h163l31 31v405l-31 31h-163v73h269v-509z" />
    <glyph glyph-name="Lcommaaccent" unicode="&#x13b;" 
d="M225 -135q0 15 5.5 28t15 22.5t22.5 15t27 5.5t27 -5.5t22.5 -16t15 -23.5t5.5 -28q0 -6 -1.5 -12.5t-4 -13t-6.5 -13.5t-9 -14l-95 -116l-35 25l54 83q-9 3 -17 9t-13.5 14.5t-9 18.5t-3.5 21zM321 570v-73h-69l-31 -31v-393h228l31 31v138h76v-242h-512v73h69l31 31
v362l-31 31h-69v73h277z" />
    <glyph glyph-name="lcommaaccent" unicode="&#x13c;" 
d="M250 -135q0 15 5.5 28t15 22.5t22.5 15t27 5.5t27 -5.5t22.5 -16t15 -23.5t5.5 -28q0 -6 -1.5 -12.5t-4 -13t-6.5 -13.5t-9 -14l-95 -116l-35 25l54 83q-9 3 -17 9t-13.5 14.5t-9 18.5t-3.5 21zM398 73h141v-73h-441v73h163l31 31v405l-31 31h-163v73h269v-509z" />
    <glyph glyph-name="Lcaron" unicode="&#x13d;" 
d="M391 415l41 159q3 13 8 24t12.5 19.5t18.5 13.5t24 5q11 0 20.5 -4t17 -11t12 -17t4.5 -22q0 -6 -1.5 -13t-5 -14t-8.5 -14t-11 -14l-106 -124zM321 570v-73h-69l-31 -31v-393h228l31 31v138h76v-242h-512v73h69l31 31v362l-31 31h-69v73h277z" />
    <glyph glyph-name="lcaron" unicode="&#x13e;" 
d="M431 516l41 159q3 13 8 24t12.5 19.5t18.5 13.5t24 5q11 0 20.5 -4t17 -11t12 -17t4.5 -22q0 -6 -1.5 -13t-5 -14t-8.5 -14t-11 -14l-106 -124zM398 73h141v-73h-441v73h163l31 31v405l-31 31h-163v73h269v-509z" />
    <glyph glyph-name="Ldot" unicode="&#x13f;" 
d="M321 570v-73h-69l-31 -31v-393h228l31 31v138h76v-242h-512v73h69l31 31v362l-31 31h-69v73h277zM438 319q-15 0 -28.5 5.5t-24 16t-16 24t-5.5 28.5q0 16 5.5 30t16 24.5t24 16.5t28.5 6q16 0 30.5 -6t24.5 -16t16 -24.5t6 -30.5q0 -15 -6 -28.5t-16.5 -24t-24.5 -16
t-30 -5.5z" />
    <glyph glyph-name="ldot" unicode="&#x140;" 
d="M398 73h141v-73h-441v73h163l31 31v405l-31 31h-163v73h269v-509zM605 239q-15 0 -28.5 5.5t-24 16t-16 24t-5.5 28.5q0 16 5.5 30t16 24.5t24 16.5t28.5 6q16 0 30.5 -6t24.5 -16t16 -24.5t6 -30.5q0 -15 -6 -28.5t-16.5 -24t-24.5 -16t-30 -5.5z" />
    <glyph glyph-name="Lslash" unicode="&#x141;" 
d="M44 0v73h69l31 31v132l-82 -32l-23 68l105 40v154l-31 31h-69v73h277v-73h-69l-31 -31v-129l160 63l23 -67l-183 -71v-189h228l31 31v138h76v-242h-512z" />
    <glyph glyph-name="lslash" unicode="&#x142;" 
d="M98 0v73h163l31 31v168l-133 -72l-36 64l169 93v152l-31 31h-163v73h269v-218l122 67l36 -64l-158 -86v-208l31 -31h141v-73h-441z" />
    <glyph glyph-name="Nacute" unicode="&#x143;" 
d="M260 650l59 136q4 10 10 19t13.5 15.5t17.5 10.5t22 4t22 -4t17.5 -12t11.5 -18.5t4 -23.5q0 -7 -2.5 -14.5t-7.5 -15t-12.5 -14.5t-16.5 -14l-117 -87zM423 0l-238 464v-360l31 -31h48v-73h-234v73h49l31 31v362l-31 31h-49v73h188l212 -429v325l-31 31h-49v73h234v-73
h-48l-31 -31v-466h-82z" />
    <glyph glyph-name="nacute" unicode="&#x144;" 
d="M265 518l59 136q4 10 10 19t13.5 15.5t17.5 10.5t22 4q11 0 21.5 -4t18 -12t11.5 -18.5t4 -23.5q0 -7 -2.5 -15t-7.5 -15.5t-12.5 -14.5t-16.5 -13l-117 -88zM199 104l31 -31h54v-73h-245v73h54l31 31v216l-31 31h-54v73h160v-68q11 15 26.5 29.5t35.5 26.5t43.5 19
t48.5 7q34 0 63.5 -10.5t51.5 -30.5t34.5 -50.5t12.5 -68.5v-174l31 -31h54v-73h-245v73h54l31 31v145q0 25 -4 45t-13.5 36t-28 25t-45.5 9q-26 0 -48 -6.5t-40.5 -19t-33.5 -31t-28 -42.5v-161z" />
    <glyph glyph-name="Ncommaaccent" unicode="&#x145;" 
d="M238 -135q0 15 5.5 28t15 22.5t22.5 15t27 5.5t27 -5.5t22.5 -16t15 -23.5t5.5 -28q0 -6 -1.5 -12.5t-4 -13t-6.5 -13.5t-9 -14l-95 -116l-35 25l54 83q-9 3 -17 9t-13.5 14.5t-9 18.5t-3.5 21zM423 0l-238 464v-360l31 -31h48v-73h-234v73h49l31 31v362l-31 31h-49v73
h188l212 -429v325l-31 31h-49v73h234v-73h-48l-31 -31v-466h-82z" />
    <glyph glyph-name="ncommaaccent" unicode="&#x146;" 
d="M251 -135q0 15 5.5 28t15 22.5t22.5 15t27 5.5t27 -5.5t22.5 -16t15 -23.5t5.5 -28q0 -6 -1.5 -12.5t-4 -13t-6.5 -13.5t-9 -14l-95 -116l-35 25l54 83q-9 3 -17 9t-13.5 14.5t-9 18.5t-3.5 21zM199 104l31 -31h54v-73h-245v73h54l31 31v216l-31 31h-54v73h160v-68
q11 15 26.5 29.5t35.5 26.5t43.5 19t48.5 7q34 0 63.5 -10.5t51.5 -30.5t34.5 -50.5t12.5 -68.5v-174l31 -31h54v-73h-245v73h54l31 31v145q0 25 -4 45t-13.5 36t-28 25t-45.5 9q-26 0 -48 -6.5t-40.5 -19t-33.5 -31t-28 -42.5v-161z" />
    <glyph glyph-name="Ncaron" unicode="&#x147;" 
d="M307 632q-9 0 -16.5 3t-14.5 8t-12.5 11t-11.5 14l-101 135l28 23l128 -95l128 95l28 -23l-101 -135q-6 -8 -11.5 -14t-12.5 -11t-14.5 -8t-16.5 -3zM423 0l-238 464v-360l31 -31h48v-73h-234v73h49l31 31v362l-31 31h-49v73h188l212 -429v325l-31 31h-49v73h234v-73h-48
l-31 -31v-466h-82z" />
    <glyph glyph-name="ncaron" unicode="&#x148;" 
d="M319 499q-9 0 -16.5 3t-14.5 8t-12.5 11t-11.5 14l-101 135l28 23l128 -94l128 94l28 -23l-101 -135q-6 -8 -11.5 -14t-12.5 -11t-14.5 -8t-16.5 -3zM199 104l31 -31h54v-73h-245v73h54l31 31v216l-31 31h-54v73h160v-68q11 15 26.5 29.5t35.5 26.5t43.5 19t48.5 7
q34 0 63.5 -10.5t51.5 -30.5t34.5 -50.5t12.5 -68.5v-174l31 -31h54v-73h-245v73h54l31 31v145q0 25 -4 45t-13.5 36t-28 25t-45.5 9q-26 0 -48 -6.5t-40.5 -19t-33.5 -31t-28 -42.5v-161z" />
    <glyph glyph-name="Eng" unicode="&#x14a;" 
d="M185 464v-360l31 -31h48v-73h-234v73h49l31 31v362l-31 31h-49v73h188l212 -429v325l-31 31h-49v73h234v-73h-48l-31 -31v-485q0 -43 -11.5 -77t-32 -57t-49.5 -35t-64 -12q-29 0 -54 8.5t-43 23t-27.5 34.5t-9.5 43q0 13 4.5 25t12.5 21t19 14t23 5t22 -3.5t17 -9.5
t10.5 -14.5t3.5 -18.5q0 -8 -2 -14.5t-6.5 -11.5t-11 -8t-15.5 -4q5 -7 10.5 -11.5t12 -7.5t15 -4.5t19.5 -1.5q20 0 35 7.5t25.5 22.5t15.5 37.5t5 51.5z" />
    <glyph glyph-name="eng" unicode="&#x14b;" 
d="M369 -198q-29 0 -54 8t-43 22.5t-27.5 34t-9.5 42.5q0 13 4.5 25t12.5 21t18.5 14t23.5 5q12 0 22 -3.5t17 -9.5t10.5 -14.5t3.5 -18.5q0 -8 -2.5 -15t-7 -11.5t-11 -7.5t-15.5 -4q5 -8 10.5 -13.5t12.5 -9.5t15.5 -5.5t19.5 -1.5q20 0 34.5 7.5t24 22.5t14.5 37.5
t5 52.5v269q0 25 -3.5 45t-12.5 36t-27 25t-45 9q-26 0 -48 -6.5t-40.5 -19t-33.5 -31t-28 -42.5v-161l31 -31h54v-73h-245v73h54l31 31v216l-31 31h-54v73h160v-68q11 15 26.5 29.5t35.5 26.5t43.5 19t48.5 7q34 0 63.5 -10.5t51.5 -30.5t34.5 -50.5t12.5 -68.5v-296
q0 -44 -11 -77.5t-32 -56.5t-49.5 -34.5t-63.5 -11.5z" />
    <glyph glyph-name="Omacron" unicode="&#x14c;" 
d="M153 727h309v-74h-309v74zM569 285q0 -62 -18.5 -117t-53 -96t-83 -63.5t-107.5 -22.5t-107.5 22.5t-83 63.5t-52.5 96t-18 117q0 63 18 117.5t52.5 95.5t83 63.5t107.5 22.5t107.5 -22.5t83 -63.5t53 -95.5t18.5 -117.5zM481 285q0 46 -11 86t-33 70t-55 47t-75 17
t-74.5 -17t-54.5 -47t-33 -70t-11 -86t11 -85.5t33 -70t54.5 -47t74.5 -16.5t75 16.5t55 47t33 70t11 85.5z" />
    <glyph glyph-name="omacron" unicode="&#x14d;" 
d="M153 594h309v-73h-309v73zM68 212q0 47 18 88.5t50.5 72.5t76.5 48t94 17q51 0 94.5 -17t76 -48t50.5 -72.5t18 -88.5t-18 -88.5t-50.5 -72.5t-76 -48t-94.5 -17q-50 0 -94 17t-76.5 48t-50.5 72.5t-18 88.5zM459 212q0 32 -11 59.5t-31 48t-48 31.5t-62 11t-62 -11
t-48 -31.5t-31 -48t-11 -59.5t11 -59.5t31 -48t48 -31.5t62 -11t62 11t48 31.5t31 48t11 59.5z" />
    <glyph glyph-name="Obreve" unicode="&#x14e;" 
d="M307 707q19 0 37 6t34 17.5t27.5 28t16.5 36.5l54 -13q-7 -36 -22.5 -64.5t-37.5 -48.5t-49.5 -30t-59.5 -10t-59.5 10t-49.5 29.5t-37.5 48.5t-22.5 65l54 13q5 -20 17 -36.5t27.5 -28t34 -17.5t36.5 -6zM569 285q0 -62 -18.5 -117t-53 -96t-83 -63.5t-107.5 -22.5
t-107.5 22.5t-83 63.5t-52.5 96t-18 117q0 63 18 117.5t52.5 95.5t83 63.5t107.5 22.5t107.5 -22.5t83 -63.5t53 -95.5t18.5 -117.5zM481 285q0 46 -11 86t-33 70t-55 47t-75 17t-74.5 -17t-54.5 -47t-33 -70t-11 -86t11 -85.5t33 -70t54.5 -47t74.5 -16.5t75 16.5t55 47
t33 70t11 85.5z" />
    <glyph glyph-name="obreve" unicode="&#x14f;" 
d="M68 212q0 47 18 88.5t50.5 72.5t76.5 48t94 17q51 0 94.5 -17t76 -48t50.5 -72.5t18 -88.5t-18 -88.5t-50.5 -72.5t-76 -48t-94.5 -17q-50 0 -94 17t-76.5 48t-50.5 72.5t-18 88.5zM459 212q0 32 -11 59.5t-31 48t-48 31.5t-62 11t-62 -11t-48 -31.5t-31 -48t-11 -59.5
t11 -59.5t31 -48t48 -31.5t62 -11t62 11t48 31.5t31 48t11 59.5zM307 576q19 0 37 6t34 17.5t27.5 28t16.5 36.5l54 -13q-7 -36 -22.5 -64.5t-37.5 -48.5t-49.5 -30t-59.5 -10t-59.5 10t-49.5 29.5t-37.5 48.5t-22.5 65l54 13q5 -20 17 -36.5t27.5 -28t34 -17.5t36.5 -6z
" />
    <glyph glyph-name="Ohungarumlaut" unicode="&#x150;" 
d="M569 285q0 -62 -18.5 -117t-53 -96t-83 -63.5t-107.5 -22.5t-107.5 22.5t-83 63.5t-52.5 96t-18 117q0 63 18 117.5t52.5 95.5t83 63.5t107.5 22.5t107.5 -22.5t83 -63.5t53 -95.5t18.5 -117.5zM481 285q0 46 -11 86t-33 70t-55 47t-75 17t-74.5 -17t-54.5 -47t-33 -70
t-11 -86t11 -85.5t33 -70t54.5 -47t74.5 -16.5t75 16.5t55 47t33 70t11 85.5zM368 650l59 136q4 10 10 19t14 15.5t18 10.5t22 4q11 0 21 -4t17.5 -12t11.5 -18.5t4 -23.5q0 -7 -2.5 -14.5t-7.5 -15t-12.5 -14.5t-16.5 -14l-116 -87zM166 650l59 136q4 10 10 19t13.5 15.5
t17.5 10.5t22 4t22 -4t17.5 -12t11.5 -18.5t4 -23.5q0 -7 -2.5 -14.5t-7.5 -15t-12.5 -14.5t-16.5 -14l-117 -87z" />
    <glyph glyph-name="ohungarumlaut" unicode="&#x151;" 
d="M365 518l59 136q4 10 10 19t14 15.5t18 10.5t22 4q11 0 21 -4t17.5 -12t11.5 -19t4 -23q0 -7 -2.5 -15t-7.5 -15.5t-12.5 -14.5t-16.5 -13l-116 -88zM163 518l59 136q4 10 10 19t13.5 15.5t17.5 10.5t22 4q11 0 21.5 -4t18 -12t11.5 -18.5t4 -23.5q0 -7 -2.5 -15
t-7.5 -15.5t-12.5 -14.5t-16.5 -13l-117 -88zM68 212q0 47 18 88.5t50.5 72.5t76.5 48t94 17q51 0 94.5 -17t76 -48t50.5 -72.5t18 -88.5t-18 -88.5t-50.5 -72.5t-76 -48t-94.5 -17q-50 0 -94 17t-76.5 48t-50.5 72.5t-18 88.5zM459 212q0 32 -11 59.5t-31 48t-48 31.5
t-62 11t-62 -11t-48 -31.5t-31 -48t-11 -59.5t11 -59.5t31 -48t48 -31.5t62 -11t62 11t48 31.5t31 48t11 59.5z" />
    <glyph glyph-name="OE" unicode="&#x152;" 
d="M297 0q-65 0 -118 21t-89.5 60t-55.5 91t-19 113t19 113t55.5 91t89.5 60t118 21h293v-212h-76v108l-31 31h-107v-174h110v-67h-110v-183h111l31 31v103h76v-207h-297zM298 497q-47 0 -84 -16t-62.5 -45t-38.5 -67.5t-13 -83.5t13 -83.5t38.5 -67.5t62.5 -45t84 -16v424z
" />
    <glyph glyph-name="oe" unicode="&#x153;" 
d="M520 252q-2 22 -7.5 42t-15 35.5t-23.5 24.5t-32 9t-33.5 -7.5t-28 -22t-20.5 -35t-11 -46.5h171zM260 212q0 32 -6 59.5t-17 48t-26.5 31.5t-34.5 11q-18 0 -33.5 -11t-26.5 -31.5t-17 -48t-6 -59.5t6 -59t17 -47t26.5 -31t33.5 -11q19 0 34.5 11t26.5 31t17 47t6 59z
M599 70q-17 -21 -35.5 -36.5t-37.5 -26t-38.5 -15.5t-38.5 -5q-24 0 -46 7.5t-40.5 21.5t-33 34t-25.5 44q-9 -25 -21.5 -44.5t-28.5 -33.5t-35.5 -21.5t-42.5 -7.5q-34 0 -63 17t-51 47.5t-34 72t-12 88.5t12 88.5t34 72.5t51 48t63 17q22 0 41.5 -7.5t36 -22t29 -34
t21.5 -44.5q10 24 24.5 44t32 34.5t38 22t43.5 7.5q39 0 69 -20.5t50 -56t29.5 -81t9.5 -94.5h-252q2 -26 9 -48t19.5 -39t30.5 -26.5t42 -9.5q16 0 29 3.5t25.5 10.5t24.5 18t26 28z" />
    <glyph glyph-name="Racute" unicode="&#x154;" 
d="M184 321h108q38 0 65.5 6t45 17t25.5 27.5t8 37.5t-8 37.5t-25.5 27.5t-45 17t-65.5 6h-108v-176zM30 0v73h46l31 31v362l-31 31h-46v73h264q56 0 99 -10.5t71.5 -30.5t43 -50.5t14.5 -69.5q0 -34 -10.5 -60.5t-31 -46.5t-51.5 -32.5t-72 -17.5l140 -176h88v-76h-190v73
l-135 175h-76v-144l31 -31h68v-73h-253zM254 650l59 136q4 10 10 19t13.5 15.5t17.5 10.5t22 4t22 -4t17.5 -12t11.5 -18.5t4 -23.5q0 -7 -2.5 -14.5t-7.5 -15t-12.5 -14.5t-16.5 -14l-117 -87z" />
    <glyph glyph-name="racute" unicode="&#x155;" 
d="M262 518l59 136q4 10 10 19t13.5 15.5t17.5 10.5t22 4q11 0 21.5 -4t18 -12t11.5 -18.5t4 -23.5q0 -7 -2.5 -15t-7.5 -15.5t-12.5 -14.5t-16.5 -13l-117 -88zM429 289q0 11 4 20.5t11.5 16.5t17.5 10.5t21 3.5h4t4 -0.5l4 -1t3 -1.5q0 1 -1 2.5t-1.5 3t-2 3l-2.5 2.5
q-3 5 -7 8.5t-10.5 6.5t-14.5 4.5t-18 1.5q-24 0 -48 -10t-48.5 -28.5t-49 -44.5t-54.5 -61v-121l31 -31h168v-73h-387v73h82l31 31v216l-31 31h-82v73h188v-111q22 27 44.5 49.5t47.5 39.5t52 26.5t54 9.5q34 0 60 -10t42 -27.5t24 -38.5t8 -44q0 -17 -5.5 -33t-15.5 -28.5
t-24.5 -20t-32.5 -7.5q-14 0 -26 3.5t-21 11t-14 19t-5 26.5z" />
    <glyph glyph-name="Rcommaaccent" unicode="&#x156;" 
d="M233 -135q0 15 5.5 28t15 22.5t22.5 15t27 5.5t27 -5.5t22.5 -16t15 -23.5t5.5 -28q0 -6 -1.5 -12.5t-4 -13t-6.5 -13.5t-9 -14l-95 -116l-35 25l54 83q-9 3 -17 9t-13.5 14.5t-9 18.5t-3.5 21zM184 321h108q38 0 65.5 6t45 17t25.5 27.5t8 37.5t-8 37.5t-25.5 27.5
t-45 17t-65.5 6h-108v-176zM30 0v73h46l31 31v362l-31 31h-46v73h264q56 0 99 -10.5t71.5 -30.5t43 -50.5t14.5 -69.5q0 -34 -10.5 -60.5t-31 -46.5t-51.5 -32.5t-72 -17.5l140 -176h88v-76h-190v73l-135 175h-76v-144l31 -31h68v-73h-253z" />
    <glyph glyph-name="rcommaaccent" unicode="&#x157;" 
d="M131 -135q0 15 5.5 28t15 22.5t22.5 15t27 5.5t27 -5.5t22.5 -16t15 -23.5t5.5 -28q0 -6 -1.5 -12.5t-4 -13t-6.5 -13.5t-9 -14l-95 -116l-35 25l54 83q-9 3 -17 9t-13.5 14.5t-9 18.5t-3.5 21zM429 289q0 11 4 20.5t11.5 16.5t17.5 10.5t21 3.5h4t4 -0.5l4 -1t3 -1.5
q0 1 -1 2.5t-1.5 3t-2 3l-2.5 2.5q-3 5 -7 8.5t-10.5 6.5t-14.5 4.5t-18 1.5q-24 0 -48 -10t-48.5 -28.5t-49 -44.5t-54.5 -61v-121l31 -31h168v-73h-387v73h82l31 31v216l-31 31h-82v73h188v-111q22 27 44.5 49.5t47.5 39.5t52 26.5t54 9.5q34 0 60 -10t42 -27.5t24 -38.5
t8 -44q0 -17 -5.5 -33t-15.5 -28.5t-24.5 -20t-32.5 -7.5q-14 0 -26 3.5t-21 11t-14 19t-5 26.5z" />
    <glyph glyph-name="Rcaron" unicode="&#x158;" 
d="M286 632q-9 0 -16.5 3t-14.5 8t-12.5 11t-11.5 14l-101 135l28 23l128 -95l128 95l28 -23l-101 -135q-6 -8 -11.5 -14t-12.5 -11t-14.5 -8t-16.5 -3zM184 321h108q38 0 65.5 6t45 17t25.5 27.5t8 37.5t-8 37.5t-25.5 27.5t-45 17t-65.5 6h-108v-176zM30 0v73h46l31 31
v362l-31 31h-46v73h264q56 0 99 -10.5t71.5 -30.5t43 -50.5t14.5 -69.5q0 -34 -10.5 -60.5t-31 -46.5t-51.5 -32.5t-72 -17.5l140 -176h88v-76h-190v73l-135 175h-76v-144l31 -31h68v-73h-253z" />
    <glyph glyph-name="rcaron" unicode="&#x159;" 
d="M317 499q-9 0 -16.5 3t-14.5 8t-12.5 11t-11.5 14l-101 135l28 23l128 -94l128 94l28 -23l-101 -135q-6 -8 -11.5 -14t-12.5 -11t-14.5 -8t-16.5 -3zM429 289q0 11 4 20.5t11.5 16.5t17.5 10.5t21 3.5h4t4 -0.5l4 -1t3 -1.5q0 1 -1 2.5t-1.5 3t-2 3l-2.5 2.5q-3 5 -7 8.5
t-10.5 6.5t-14.5 4.5t-18 1.5q-24 0 -48 -10t-48.5 -28.5t-49 -44.5t-54.5 -61v-121l31 -31h168v-73h-387v73h82l31 31v216l-31 31h-82v73h188v-111q22 27 44.5 49.5t47.5 39.5t52 26.5t54 9.5q34 0 60 -10t42 -27.5t24 -38.5t8 -44q0 -17 -5.5 -33t-15.5 -28.5t-24.5 -20
t-32.5 -7.5q-14 0 -26 3.5t-21 11t-14 19t-5 26.5z" />
    <glyph glyph-name="Sacute" unicode="&#x15a;" 
d="M339 62q27 0 48.5 6.5t36 19.5t22 30.5t7.5 38.5q0 18 -7 31.5t-18 23t-25 15.5t-30 10l-134 35q-38 10 -66.5 22.5t-49 30t-31.5 43t-11 60.5q0 34 13.5 63t38.5 50t59.5 32t76.5 11q22 0 42.5 -4.5t39 -12.5t34.5 -20t30 -26l19 9v40h77v-198h-66q-13 36 -33 62
t-43.5 42.5t-48.5 24t-51 7.5q-24 0 -43.5 -5.5t-33.5 -16t-21.5 -25t-7.5 -31.5t6.5 -29.5t19 -21t28.5 -14.5t39 -12l135 -37q33 -9 59 -22t45 -31.5t29.5 -43.5t10.5 -57q0 -39 -13.5 -71.5t-39 -56t-62 -36t-81.5 -12.5q-24 0 -48 5.5t-46 15t-41 23t-32 28.5l-18 -11
v-47h-77v220h66q13 -39 35 -69.5t49 -50t55.5 -29t56.5 -9.5zM255 650l59 136q4 10 10 19t13.5 15.5t17.5 10.5t22 4t22 -4t17.5 -12t11.5 -18.5t4 -23.5q0 -7 -2.5 -14.5t-7.5 -15t-12.5 -14.5t-16.5 -14l-117 -87z" />
    <glyph glyph-name="sacute" unicode="&#x15b;" 
d="M250 518l59 136q4 10 10 19t13.5 15.5t17.5 10.5t22 4q11 0 21.5 -4t18 -12t11.5 -18.5t4 -23.5q0 -7 -2.5 -15t-7.5 -15.5t-12.5 -14.5t-16.5 -13l-117 -88zM230 193q-34 7 -59 17.5t-42.5 25t-26.5 34.5t-9 46q0 27 12 49.5t33 39t49.5 25t60.5 8.5q23 0 45.5 -4
t43 -11t38 -18t30.5 -24l18 6v37h71v-150h-58q-14 21 -34 38.5t-44 31t-49 20.5t-49 7q-19 0 -34.5 -3.5t-27 -10.5t-18 -16.5t-6.5 -20.5q0 -12 5.5 -20.5t15.5 -14.5t24 -10t34 -8l156 -33q27 -6 48 -15t36.5 -22.5t23.5 -33t8 -45.5q0 -31 -12 -55.5t-35 -41.5t-54.5 -26
t-69.5 -9q-30 0 -57.5 5.5t-50.5 15t-41 21.5t-31 26l-18 -12v-42h-70v162h65q19 -24 40.5 -43.5t46.5 -34t53 -22.5t59 -8q20 0 37 3.5t30 11t20 19.5t7 27q0 11 -5 19t-13.5 13.5t-19.5 9t-27 6.5z" />
    <glyph glyph-name="Scircumflex" unicode="&#x15c;" 
d="M339 62q27 0 48.5 6.5t36 19.5t22 30.5t7.5 38.5q0 18 -7 31.5t-18 23t-25 15.5t-30 10l-134 35q-38 10 -66.5 22.5t-49 30t-31.5 43t-11 60.5q0 34 13.5 63t38.5 50t59.5 32t76.5 11q22 0 42.5 -4.5t39 -12.5t34.5 -20t30 -26l19 9v40h77v-198h-66q-13 36 -33 62
t-43.5 42.5t-48.5 24t-51 7.5q-24 0 -43.5 -5.5t-33.5 -16t-21.5 -25t-7.5 -31.5t6.5 -29.5t19 -21t28.5 -14.5t39 -12l135 -37q33 -9 59 -22t45 -31.5t29.5 -43.5t10.5 -57q0 -39 -13.5 -71.5t-39 -56t-62 -36t-81.5 -12.5q-24 0 -48 5.5t-46 15t-41 23t-32 28.5l-18 -11
v-47h-77v220h66q13 -39 35 -69.5t49 -50t55.5 -29t56.5 -9.5zM302 823q9 0 16.5 -3t14.5 -8t12.5 -11t11.5 -14l101 -135l-28 -23l-128 94l-128 -94l-28 23l101 135q6 8 11.5 14t12.5 11t14.5 8t16.5 3z" />
    <glyph glyph-name="scircumflex" unicode="&#x15d;" 
d="M304 692q9 0 16.5 -3t14.5 -8t12.5 -11t11.5 -14l101 -135l-28 -23l-128 94l-128 -94l-28 23l101 135q6 8 11.5 14t12.5 11t14.5 8t16.5 3zM230 193q-34 7 -59 17.5t-42.5 25t-26.5 34.5t-9 46q0 27 12 49.5t33 39t49.5 25t60.5 8.5q23 0 45.5 -4t43 -11t38 -18t30.5 -24
l18 6v37h71v-150h-58q-14 21 -34 38.5t-44 31t-49 20.5t-49 7q-19 0 -34.5 -3.5t-27 -10.5t-18 -16.5t-6.5 -20.5q0 -12 5.5 -20.5t15.5 -14.5t24 -10t34 -8l156 -33q27 -6 48 -15t36.5 -22.5t23.5 -33t8 -45.5q0 -31 -12 -55.5t-35 -41.5t-54.5 -26t-69.5 -9
q-30 0 -57.5 5.5t-50.5 15t-41 21.5t-31 26l-18 -12v-42h-70v162h65q19 -24 40.5 -43.5t46.5 -34t53 -22.5t59 -8q20 0 37 3.5t30 11t20 19.5t7 27q0 11 -5 19t-13.5 13.5t-19.5 9t-27 6.5z" />
    <glyph glyph-name="Scedilla" unicode="&#x15e;" 
d="M294 -236q-22 0 -43 4.5t-39.5 14t-33.5 25t-24 36.5l52 36q6 -14 14.5 -25.5t19.5 -19t24.5 -11.5t29.5 -4q13 0 23 2.5t17 8t11 13.5t4 18t-4.5 18t-14 14t-24 8t-33.5 -1l-42 32l30 67q-13 5 -26 11t-24.5 13.5t-21 16t-17.5 17.5l-18 -11v-47h-77v220h66
q13 -39 35 -69.5t49 -50t55.5 -29t56.5 -9.5q27 0 48.5 6.5t36 19.5t22 30.5t7.5 38.5q0 18 -7 31.5t-18 23t-25 15.5t-30 10l-134 35q-38 10 -66.5 22.5t-49 30t-31.5 43t-11 60.5q0 34 13.5 63t38.5 50t59.5 32t76.5 11q22 0 42.5 -4.5t39 -12.5t34.5 -20t30 -26l19 9v40
h77v-198h-66q-13 36 -33 62t-43.5 42.5t-48.5 24t-51 7.5q-24 0 -43.5 -5.5t-33.5 -16t-21.5 -25t-7.5 -31.5t6.5 -29.5t19 -21t28.5 -14.5t39 -12l135 -37q33 -9 59 -22t45 -31.5t29.5 -43.5t10.5 -57q0 -39 -13.5 -71.5t-39 -56t-62 -36t-81.5 -12.5h-6.5t-6.5 0.5t-6 0.5
t-8 1l-14 -34q26 0 47 -6t36.5 -18t23.5 -29t8 -39q0 -24 -10 -42.5t-26.5 -31t-38 -18.5t-44.5 -6z" />
    <glyph glyph-name="scedilla" unicode="&#x15f;" 
d="M302 -236q-22 0 -43 4.5t-39.5 14t-33.5 25t-24 36.5l52 36q6 -14 14.5 -25.5t19.5 -19t24.5 -11.5t29.5 -4q13 0 23 2.5t17 8t11 13.5t4 18t-4.5 18t-14 14t-24 8t-33.5 -1l-42 32l30 65q-15 5 -29 11t-26 13.5t-22 15.5t-18 16l-18 -12v-42h-70v162h65
q19 -24 40.5 -43.5t46.5 -34t53 -22.5t59 -8q20 0 37 3.5t30 11t20 19.5t7 27q0 11 -5 19t-13.5 13.5t-19.5 9t-27 6.5l-149 30q-34 7 -59 17.5t-42.5 25t-26.5 34.5t-9 46q0 27 12 49.5t33 39t49.5 25t60.5 8.5q23 0 45.5 -4t43 -11t38 -18t30.5 -24l18 6v37h71v-150h-58
q-14 21 -34 38.5t-44 31t-49 20.5t-49 7q-19 0 -34.5 -3.5t-27 -10.5t-18 -16.5t-6.5 -20.5q0 -12 5.5 -20.5t15.5 -14.5t24 -10t34 -8l156 -33q27 -6 48 -15t36.5 -22.5t23.5 -33t8 -45.5q0 -31 -12 -55.5t-35 -41.5t-54.5 -26t-69.5 -9h-8.5t-8.5 0.5t-7.5 0.5t-9.5 1
l-14 -34q26 0 47 -6t36.5 -18t23.5 -29t8 -39q0 -24 -10 -42.5t-26.5 -31t-38 -18.5t-44.5 -6z" />
    <glyph glyph-name="Scaron" unicode="&#x160;" 
d="M339 62q27 0 48.5 6.5t36 19.5t22 30.5t7.5 38.5q0 18 -7 31.5t-18 23t-25 15.5t-30 10l-134 35q-38 10 -66.5 22.5t-49 30t-31.5 43t-11 60.5q0 34 13.5 63t38.5 50t59.5 32t76.5 11q22 0 42.5 -4.5t39 -12.5t34.5 -20t30 -26l19 9v40h77v-198h-66q-13 36 -33 62
t-43.5 42.5t-48.5 24t-51 7.5q-24 0 -43.5 -5.5t-33.5 -16t-21.5 -25t-7.5 -31.5t6.5 -29.5t19 -21t28.5 -14.5t39 -12l135 -37q33 -9 59 -22t45 -31.5t29.5 -43.5t10.5 -57q0 -39 -13.5 -71.5t-39 -56t-62 -36t-81.5 -12.5q-24 0 -48 5.5t-46 15t-41 23t-32 28.5l-18 -11
v-47h-77v220h66q13 -39 35 -69.5t49 -50t55.5 -29t56.5 -9.5zM302 632q-9 0 -16.5 3t-14.5 8t-12.5 11t-11.5 14l-101 135l28 23l128 -95l128 95l28 -23l-101 -135q-6 -8 -11.5 -14t-12.5 -11t-14.5 -8t-16.5 -3z" />
    <glyph glyph-name="scaron" unicode="&#x161;" 
d="M304 499q-9 0 -16.5 3t-14.5 8t-12.5 11t-11.5 14l-101 135l28 23l128 -94l128 94l28 -23l-101 -135q-6 -8 -11.5 -14t-12.5 -11t-14.5 -8t-16.5 -3zM230 193q-34 7 -59 17.5t-42.5 25t-26.5 34.5t-9 46q0 27 12 49.5t33 39t49.5 25t60.5 8.5q23 0 45.5 -4t43 -11t38 -18
t30.5 -24l18 6v37h71v-150h-58q-14 21 -34 38.5t-44 31t-49 20.5t-49 7q-19 0 -34.5 -3.5t-27 -10.5t-18 -16.5t-6.5 -20.5q0 -12 5.5 -20.5t15.5 -14.5t24 -10t34 -8l156 -33q27 -6 48 -15t36.5 -22.5t23.5 -33t8 -45.5q0 -31 -12 -55.5t-35 -41.5t-54.5 -26t-69.5 -9
q-30 0 -57.5 5.5t-50.5 15t-41 21.5t-31 26l-18 -12v-42h-70v162h65q19 -24 40.5 -43.5t46.5 -34t53 -22.5t59 -8q20 0 37 3.5t30 11t20 19.5t7 27q0 11 -5 19t-13.5 13.5t-19.5 9t-27 6.5z" />
    <glyph glyph-name="Tcommaaccent" unicode="&#x162;" 
d="M301 -236q-22 0 -43 4.5t-39.5 14t-33.5 25t-24 36.5l52 36q6 -14 14.5 -25.5t19.5 -19t24.5 -11.5t29.5 -4q13 0 23 2.5t17 8t11 13.5t4 18t-4.5 18t-14 14t-24 8t-33.5 -1l-42 32l30 67h-149v73h115l31 31v393h-106l-31 -31v-138h-76v242h510v-242h-76v138l-31 31h-106
v-393l31 -31h115v-73h-171l-19 -46q26 0 47 -6t36.5 -18t23.5 -29t8 -39q0 -24 -10 -42.5t-26.5 -31t-38 -18.5t-44.5 -6z" />
    <glyph glyph-name="tcommaaccent" unicode="&#x163;" 
d="M331 -236q-22 0 -43 4.5t-39.5 14t-33.5 25t-24 36.5l52 36q6 -14 14.5 -25.5t19.5 -19t24.5 -11.5t29.5 -4q13 0 23 2.5t17 8t11 13.5t4 18t-4.5 18t-14 14t-24 8t-33.5 -1l-42 32l27 61q-30 8 -53 23t-39.5 39t-25 56.5t-8.5 74.5v133l-31 31h-94v73h125v154h78v-154
h235v-73h-205l-31 -31v-122q0 -34 7.5 -59.5t22 -42.5t36 -25.5t50.5 -8.5q24 0 45 6t39 17t34 26.5t34 37.5l49 -48q-17 -25 -39.5 -46t-48 -36.5t-54.5 -24t-59 -8.5h-13l-14 -32q26 0 47 -6t36.5 -18t23.5 -29t8 -39q0 -24 -10 -42.5t-26.5 -31t-38 -18.5t-44.5 -6z" />
    <glyph glyph-name="Tcaron" unicode="&#x164;" 
d="M306 632q-9 0 -16.5 3t-14.5 8t-12.5 11t-11.5 14l-101 135l28 23l128 -95l128 95l28 -23l-101 -135q-6 -8 -11.5 -14t-12.5 -11t-14.5 -8t-16.5 -3zM562 570v-242h-76v138l-31 31h-106v-393l31 -31h115v-73h-376v73h115l31 31v393h-106l-31 -31v-138h-76v242h510z" />
    <glyph glyph-name="tcaron" unicode="&#x165;" 
d="M348 516l41 159q3 13 8 24t12.5 19.5t18.5 13.5t24 5q11 0 20.5 -4t17 -11t12 -17t4.5 -22q0 -6 -1.5 -13t-5 -14t-8.5 -14t-11 -14l-106 -124zM138 351h-94v73h125v154h78v-154h235v-73h-205l-31 -31v-122q0 -34 7.5 -59.5t22 -42.5t36 -25.5t50.5 -8.5q24 0 45 6t39 17
t34 26.5t34 37.5l49 -48q-17 -25 -39.5 -46t-48 -36.5t-54.5 -24t-59 -8.5q-45 0 -80.5 11.5t-60.5 36t-38.5 63t-13.5 90.5v133z" />
    <glyph glyph-name="Tbar" unicode="&#x166;" 
d="M495 0h-376v73h115l31 31v116h-102v73h102v204h-106l-31 -31v-138h-76v242h510v-242h-76v138l-31 31h-106v-204h102v-73h-102v-116l31 -31h115v-73z" />
    <glyph glyph-name="tbar" unicode="&#x167;" 
d="M563 101q-17 -25 -39.5 -46t-48 -36.5t-54.5 -24t-59 -8.5q-45 0 -80.5 11.5t-60.5 36t-38.5 63t-13.5 90.5v12h-125v70h125v51l-31 31h-94v73h125v154h78v-154h235v-73h-205l-31 -31v-51h210v-70h-210v-1q0 -34 7.5 -59.5t22 -42.5t36 -25.5t50.5 -8.5q24 0 45 6t39 17
t34 26.5t34 37.5l49 -48v0z" />
    <glyph glyph-name="Utilde" unicode="&#x168;" 
d="M501 771q0 -32 -8 -57.5t-23.5 -44t-36 -28t-44.5 -9.5q-22 0 -41.5 9t-44 27t-36.5 25.5t-26 7.5q-11 0 -20 -4.5t-16.5 -13t-11.5 -21t-4 -27.5h-71q0 31 8 56.5t23 44t35 28t45 9.5q22 0 40.5 -9t43 -27t38 -25.5t27.5 -7.5q10 0 19.5 4.5t16.5 13.5t11 21.5t4 27.5
h72zM307 -14q-43 0 -81 15t-66.5 42.5t-44 65t-15.5 80.5v277l-31 31h-49v73h237v-73h-49l-31 -31v-276q0 -28 10.5 -52t28.5 -41.5t41.5 -26.5t49.5 -9t49.5 9t41.5 26.5t28.5 41.5t10.5 52v276l-31 31h-48v73h236v-73h-48l-31 -31v-277q0 -43 -16 -80.5t-44.5 -65
t-66.5 -42.5t-81 -15z" />
    <glyph glyph-name="utilde" unicode="&#x169;" 
d="M501 424v-320l31 -31h54v-73h-160v68q-11 -16 -26.5 -30t-34.5 -26t-42.5 -19t-48.5 -7q-35 0 -65 10.5t-52 30.5t-34.5 50.5t-12.5 68.5v174l-31 31h-54v73h160v-249q0 -28 5 -49.5t15.5 -36t28.5 -22t43 -7.5q26 0 47.5 6.5t40 19t33.5 31t28 42.5v161l-31 31h-54v73
h160zM486 641q0 -32 -8 -57.5t-23.5 -44t-36 -28t-44.5 -9.5q-22 0 -41.5 9t-44 27t-36.5 25.5t-26 7.5q-11 0 -20 -4.5t-16.5 -13t-11.5 -21t-4 -27.5h-71q0 31 8 56.5t23 44t35 28t45 9.5q22 0 40.5 -9t43 -27t38 -25.5t27.5 -7.5q10 0 19.5 4.5t16.5 13.5t11 21.5t4 27.5
h72z" />
    <glyph glyph-name="Umacron" unicode="&#x16a;" 
d="M153 727h309v-74h-309v74zM307 -14q-43 0 -81 15t-66.5 42.5t-44 65t-15.5 80.5v277l-31 31h-49v73h237v-73h-49l-31 -31v-276q0 -28 10.5 -52t28.5 -41.5t41.5 -26.5t49.5 -9t49.5 9t41.5 26.5t28.5 41.5t10.5 52v276l-31 31h-48v73h236v-73h-48l-31 -31v-277
q0 -43 -16 -80.5t-44.5 -65t-66.5 -42.5t-81 -15z" />
    <glyph glyph-name="umacron" unicode="&#x16b;" 
d="M501 424v-320l31 -31h54v-73h-160v68q-11 -16 -26.5 -30t-34.5 -26t-42.5 -19t-48.5 -7q-35 0 -65 10.5t-52 30.5t-34.5 50.5t-12.5 68.5v174l-31 31h-54v73h160v-249q0 -28 5 -49.5t15.5 -36t28.5 -22t43 -7.5q26 0 47.5 6.5t40 19t33.5 31t28 42.5v161l-31 31h-54v73
h160zM140 594h309v-73h-309v73z" />
    <glyph glyph-name="Ubreve" unicode="&#x16c;" 
d="M307 707q19 0 37 6t34 17.5t27.5 28t16.5 36.5l54 -13q-7 -36 -22.5 -64.5t-37.5 -48.5t-49.5 -30t-59.5 -10t-59.5 10t-49.5 29.5t-37.5 48.5t-22.5 65l54 13q5 -20 17 -36.5t27.5 -28t34 -17.5t36.5 -6zM307 -14q-43 0 -81 15t-66.5 42.5t-44 65t-15.5 80.5v277l-31 31
h-49v73h237v-73h-49l-31 -31v-276q0 -28 10.5 -52t28.5 -41.5t41.5 -26.5t49.5 -9t49.5 9t41.5 26.5t28.5 41.5t10.5 52v276l-31 31h-48v73h236v-73h-48l-31 -31v-277q0 -43 -16 -80.5t-44.5 -65t-66.5 -42.5t-81 -15z" />
    <glyph glyph-name="ubreve" unicode="&#x16d;" 
d="M501 424v-320l31 -31h54v-73h-160v68q-11 -16 -26.5 -30t-34.5 -26t-42.5 -19t-48.5 -7q-35 0 -65 10.5t-52 30.5t-34.5 50.5t-12.5 68.5v174l-31 31h-54v73h160v-249q0 -28 5 -49.5t15.5 -36t28.5 -22t43 -7.5q26 0 47.5 6.5t40 19t33.5 31t28 42.5v161l-31 31h-54v73
h160zM294 576q19 0 37 6t34 17.5t27.5 28t16.5 36.5l54 -13q-7 -36 -22.5 -64.5t-37.5 -48.5t-49.5 -30t-59.5 -10t-59.5 10t-49.5 29.5t-37.5 48.5t-22.5 65l54 13q5 -20 17 -36.5t27.5 -28t34 -17.5t36.5 -6z" />
    <glyph glyph-name="Uring" unicode="&#x16e;" 
d="M307 -14q-43 0 -81 15t-66.5 42.5t-44 65t-15.5 80.5v277l-31 31h-49v73h237v-73h-49l-31 -31v-276q0 -28 10.5 -52t28.5 -41.5t41.5 -26.5t49.5 -9t49.5 9t41.5 26.5t28.5 41.5t10.5 52v276l-31 31h-48v73h236v-73h-48l-31 -31v-277q0 -43 -16 -80.5t-44.5 -65
t-66.5 -42.5t-81 -15zM363 738q0 12 -4 22.5t-11.5 18t-17.5 11.5t-23 4q-12 0 -22.5 -4t-18 -11.5t-11.5 -18t-4 -22.5q0 -13 4 -23.5t11.5 -18t18 -11.5t22.5 -4q13 0 23 4t17.5 11.5t11.5 18t4 23.5zM424 738q0 -24 -9 -45.5t-25 -37.5t-37.5 -24.5t-45.5 -8.5t-45 8.5
t-37 24.5t-25 37.5t-9 45.5t9 45t25 37t37 25t45 9t45.5 -9t37.5 -25t25 -37t9 -45z" />
    <glyph glyph-name="uring" unicode="&#x16f;" 
d="M351 605q0 13 -4 23.5t-11.5 18.5t-18 12t-23.5 4t-23.5 -4t-18 -12t-11.5 -18.5t-4 -23.5t4 -23.5t11.5 -18.5t18 -12t23.5 -4t23.5 4t18 12t11.5 18.5t4 23.5zM411 605q0 -24 -9 -45t-25 -37t-37.5 -24.5t-45.5 -8.5t-45 8.5t-37 24.5t-25 37t-9 45t9 45t25 37t37 25
t45 9t45.5 -9t37.5 -25t25 -37t9 -45zM501 424v-320l31 -31h54v-73h-160v68q-11 -16 -26.5 -30t-34.5 -26t-42.5 -19t-48.5 -7q-35 0 -65 10.5t-52 30.5t-34.5 50.5t-12.5 68.5v174l-31 31h-54v73h160v-249q0 -28 5 -49.5t15.5 -36t28.5 -22t43 -7.5q26 0 47.5 6.5t40 19
t33.5 31t28 42.5v161l-31 31h-54v73h160z" />
    <glyph glyph-name="Uhungarumlaut" unicode="&#x170;" 
d="M307 -14q-43 0 -81 15t-66.5 42.5t-44 65t-15.5 80.5v277l-31 31h-49v73h237v-73h-49l-31 -31v-276q0 -28 10.5 -52t28.5 -41.5t41.5 -26.5t49.5 -9t49.5 9t41.5 26.5t28.5 41.5t10.5 52v276l-31 31h-48v73h236v-73h-48l-31 -31v-277q0 -43 -16 -80.5t-44.5 -65
t-66.5 -42.5t-81 -15zM368 650l59 136q4 10 10 19t14 15.5t18 10.5t22 4q11 0 21 -4t17.5 -12t11.5 -18.5t4 -23.5q0 -7 -2.5 -14.5t-7.5 -15t-12.5 -14.5t-16.5 -14l-116 -87zM166 650l59 136q4 10 10 19t13.5 15.5t17.5 10.5t22 4t22 -4t17.5 -12t11.5 -18.5t4 -23.5
q0 -7 -2.5 -14.5t-7.5 -15t-12.5 -14.5t-16.5 -14l-117 -87z" />
    <glyph glyph-name="uhungarumlaut" unicode="&#x171;" 
d="M501 424v-320l31 -31h54v-73h-160v68q-11 -16 -26.5 -30t-34.5 -26t-42.5 -19t-48.5 -7q-35 0 -65 10.5t-52 30.5t-34.5 50.5t-12.5 68.5v174l-31 31h-54v73h160v-249q0 -28 5 -49.5t15.5 -36t28.5 -22t43 -7.5q26 0 47.5 6.5t40 19t33.5 31t28 42.5v161l-31 31h-54v73
h160zM352 518l59 136q4 10 10 19t14 15.5t18 10.5t22 4q11 0 21 -4t17.5 -12t11.5 -19t4 -23q0 -7 -2.5 -15t-7.5 -15.5t-12.5 -14.5t-16.5 -13l-116 -88zM150 518l59 136q4 10 10 19t13.5 15.5t17.5 10.5t22 4q11 0 21.5 -4t18 -12t11.5 -18.5t4 -23.5q0 -7 -2.5 -15
t-7.5 -15.5t-12.5 -14.5t-16.5 -13l-117 -88z" />
    <glyph glyph-name="Uogonek" unicode="&#x172;" 
d="M290 -235q-21 0 -37.5 6t-28 17t-17 25t-5.5 31q0 16 5.5 32t16.5 32.5t28 35.5t41 42q-41 3 -76.5 19t-61.5 43.5t-40.5 63.5t-14.5 77v277l-31 31h-49v73h237v-73h-49l-31 -31v-276q0 -28 10.5 -52t28.5 -41.5t41.5 -26.5t49.5 -9t49.5 9t41.5 26.5t28.5 41.5t10.5 52
v276l-31 31h-48v73h236v-73h-48l-31 -31v-277q0 -28 -6.5 -53.5t-19.5 -48t-30.5 -40.5t-39.5 -31q-41 -36 -67 -61t-43 -43.5t-25 -32t-8 -23.5q0 -6 2 -11t5 -8t7.5 -4.5t10.5 -1.5q9 0 19.5 4t21.5 11t22.5 16.5t23.5 20.5l37 -52q-16 -14 -30.5 -25.5t-31 -20.5
t-35 -14.5t-38.5 -5.5z" />
    <glyph glyph-name="uogonek" unicode="&#x173;" 
d="M542 -169q-16 -14 -30.5 -25.5t-31 -20.5t-35 -14.5t-38.5 -5.5q-21 0 -37.5 6t-28 17t-17 25t-5.5 31t6.5 34t19 35.5t32.5 39.5t49 48v67q-11 -16 -26.5 -30t-34.5 -26t-42.5 -19t-48.5 -7q-35 0 -65 10.5t-52 30.5t-34.5 50.5t-12.5 68.5v174l-31 31h-54v73h160v-249
q0 -28 5 -49.5t15.5 -36t28.5 -22t43 -7.5q26 0 47.5 6.5t40 19t33.5 31t28 42.5v161l-31 31h-54v73h160v-320l31 -31h54v-73h-68q-34 -31 -57 -53.5t-38 -39.5t-22.5 -29.5t-7.5 -21.5q0 -6 2 -11t5 -8t7.5 -4.5t10.5 -1.5q9 0 19.5 4t21.5 11t22.5 16.5t23.5 20.5l37 -52
v0z" />
    <glyph glyph-name="Wcircumflex" unicode="&#x174;" 
d="M415 73h21l40 399l-20 25h-88v73h238v-73h-50l-55 -497h-137l-55 356l-54 -356h-142l-55 497h-50v73h243v-73h-88l-20 -25l40 -399h21l51 351h109zM307 823q9 0 16.5 -3t14.5 -8t12.5 -11t11.5 -14l101 -135l-28 -23l-128 94l-128 -94l-28 23l101 135q6 8 11.5 14
t12.5 11t14.5 8t16.5 3z" />
    <glyph glyph-name="wcircumflex" unicode="&#x175;" 
d="M307 692q9 0 16.5 -3t14.5 -8t12.5 -11t11.5 -14l101 -135l-28 -23l-128 94l-128 -94l-28 23l101 135q6 8 11.5 14t12.5 11t14.5 8t16.5 3zM413 62h19l47 272l-16 17h-71v73h206v-73h-42l-70 -351h-122l-57 244l-56 -244h-122l-70 351h-43v73h210v-73h-71l-16 -17
l47 -272h18l53 243h103z" />
    <glyph glyph-name="Ycircumflex" unicode="&#x176;" 
d="M349 104l31 -31h115v-73h-376v73h115l31 31v101l-193 292h-62v73h261v-73h-57l-30 -25l126 -204l126 204l-29 25h-58v73h255v-73h-62l-193 -292v-101zM307 823q9 0 16.5 -3t14.5 -8t12.5 -11t11.5 -14l101 -135l-28 -23l-128 94l-128 -94l-28 23l101 135q6 8 11.5 14
t12.5 11t14.5 8t16.5 3z" />
    <glyph glyph-name="ycircumflex" unicode="&#x177;" 
d="M22 -78q0 18 6 34.5t17.5 29t26.5 19.5t32 7q14 0 26 -4t21.5 -12.5t14.5 -20t5 -25.5q0 -13 -5 -24.5t-14 -19t-22 -11.5t-29 -3q3 -8 8 -13.5t12 -9t15 -5t16 -1.5q16 0 31 9.5t29 28t28.5 44t34.5 65.5l-184 341h-53v73h225v-73h-49l-21 -22l125 -241l124 241l-20 22
h-49v73h217v-73h-54l-196 -366q-27 -51 -45 -81t-39 -54.5t-46.5 -38t-57.5 -13.5q-28 0 -51.5 9t-41.5 25t-27.5 39t-9.5 51zM319 692q9 0 16.5 -3t14.5 -8t12.5 -11t11.5 -14l101 -135l-28 -23l-128 94l-128 -94l-28 23l101 135q6 8 11.5 14t12.5 11t14.5 8t16.5 3z" />
    <glyph glyph-name="Ydieresis" unicode="&#x178;" 
d="M349 104l31 -31h115v-73h-376v73h115l31 31v101l-193 292h-62v73h261v-73h-57l-30 -25l126 -204l126 204l-29 25h-58v73h255v-73h-62l-193 -292v-101zM415 640q-15 0 -28.5 5.5t-24 15.5t-16 23.5t-5.5 27.5q0 15 5.5 28t16 23.5t24 16t28.5 5.5t28.5 -5.5t24 -16
t16 -23.5t5.5 -28q0 -14 -5.5 -27.5t-16 -23.5t-24 -15.5t-28.5 -5.5zM200 640q-15 0 -28.5 5.5t-24 15.5t-16 23.5t-5.5 27.5q0 15 5.5 28t16 23.5t24 16t28.5 5.5t28.5 -5.5t24 -16t16 -23.5t5.5 -28q0 -14 -5.5 -27.5t-16 -23.5t-24 -15.5t-28.5 -5.5z" />
    <glyph glyph-name="Zacute" unicode="&#x179;" 
d="M448 73l31 31v98h76v-202h-495v86l387 411h-265l-31 -31v-103h-76v207h457v-96l-379 -401h295zM260 650l59 136q4 10 10 19t13.5 15.5t17.5 10.5t22 4t22 -4t17.5 -12t11.5 -18.5t4 -23.5q0 -7 -2.5 -14.5t-7.5 -15t-12.5 -14.5t-16.5 -14l-117 -87z" />
    <glyph glyph-name="zacute" unicode="&#x17a;" 
d="M254 518l59 136q4 10 10 19t13.5 15.5t17.5 10.5t22 4q11 0 21.5 -4t18 -12t11.5 -18.5t4 -23.5q0 -7 -2.5 -15t-7.5 -15.5t-12.5 -14.5t-16.5 -13l-117 -88zM434 69l31 31v87h73v-187h-463v80l348 275h-231l-31 -31v-82h-73v182h435v-80l-350 -275h261z" />
    <glyph glyph-name="Zdotaccent" unicode="&#x17b;" 
d="M307 635q-15 0 -28.5 5.5t-24 16t-16 24.5t-5.5 29q0 16 5.5 30t16 24.5t24 16t28.5 5.5q16 0 30.5 -5.5t24.5 -16t16 -24.5t6 -30t-6 -29.5t-16.5 -24t-24.5 -16t-30 -5.5zM448 73l31 31v98h76v-202h-495v86l387 411h-265l-31 -31v-103h-76v207h457v-96l-379 -401h295z
" />
    <glyph glyph-name="zdotaccent" unicode="&#x17c;" 
d="M434 69l31 31v87h73v-187h-463v80l348 275h-231l-31 -31v-82h-73v182h435v-80l-350 -275h261zM308 508q-15 0 -28.5 5.5t-24 16t-16 24t-5.5 28.5q0 16 5.5 30t16 24.5t24 16.5t28.5 6q16 0 30.5 -6t24.5 -16t16 -24.5t6 -30.5q0 -15 -6 -28.5t-16.5 -24t-24.5 -16
t-30 -5.5z" />
    <glyph glyph-name="Zcaron" unicode="&#x17d;" 
d="M308 632q-9 0 -16.5 3t-14.5 8t-12.5 11t-11.5 14l-101 135l28 23l128 -95l128 95l28 -23l-101 -135q-6 -8 -11.5 -14t-12.5 -11t-14.5 -8t-16.5 -3zM448 73l31 31v98h76v-202h-495v86l387 411h-265l-31 -31v-103h-76v207h457v-96l-379 -401h295z" />
    <glyph glyph-name="zcaron" unicode="&#x17e;" 
d="M309 499q-9 0 -16.5 3t-14.5 8t-12.5 11t-11.5 14l-101 135l28 23l128 -94l128 94l28 -23l-101 -135q-6 -8 -11.5 -14t-12.5 -11t-14.5 -8t-16.5 -3zM434 69l31 31v87h73v-187h-463v80l348 275h-231l-31 -31v-82h-73v182h435v-80l-350 -275h261z" />
    <glyph glyph-name="florin" unicode="&#x192;" 
d="M153 -179q-35 0 -61.5 12.5t-43.5 33t-25 45t-8 49.5q0 17 5 31.5t14 25t21.5 16t26.5 5.5t25.5 -4.5t20 -12t13 -17.5t4.5 -21q0 -10 -3.5 -19t-9.5 -16t-15 -11.5t-20 -5.5q2 -9 6.5 -17t11.5 -14t16.5 -9.5t21.5 -3.5q18 0 31.5 7.5t24 22t17.5 36.5t11 52l26 189
h-117v72h128l18 132q6 45 20 80t35 58t49.5 35t64.5 12q35 0 61.5 -12.5t43 -32.5t24.5 -45t8 -50q0 -17 -5 -31.5t-14 -25t-21.5 -16t-26.5 -5.5t-25.5 4.5t-19.5 12t-12.5 17.5t-4.5 21q0 10 3.5 19t9.5 16t14.5 11.5t19.5 5.5q-2 9 -6 17t-11 14t-16.5 9.5t-21.5 3.5
q-18 0 -31.5 -7.5t-24 -22t-17.5 -36.5t-11 -52l-19 -132h131v-72h-141l-26 -188q-7 -46 -21 -80.5t-35 -58t-49 -35.5t-64 -12z" />
    <glyph glyph-name="Aringacute" unicode="&#x1fa;" 
d="M363 641q0 12 -4 22.5t-11.5 18t-17.5 11.5t-23 4q-12 0 -22.5 -4t-18 -11.5t-11.5 -18t-4 -22.5q0 -13 4 -23.5t11.5 -18t18 -11.5t22.5 -4q13 0 23 4t17.5 11.5t11.5 18t4 23.5zM386 263l-83 225l-81 -225h164zM249 0h-239v73h62l177 467q-13 8 -24 18.5t-18.5 23.5
t-11.5 28t-4 31q0 24 9 45t25 37t37 25t45 9t45.5 -9t37.5 -25t25 -37t9 -45q0 -17 -4 -32t-12 -28t-19 -23.5t-24 -17.5l177 -467h62v-73h-245v73h57l30 25l-34 92h-217l-33 -92l30 -25h57v-73zM253 808l59 136q4 10 10 19t13.5 15.5t17.5 10.5t22 4t22 -4t17.5 -12
t11.5 -18.5t4 -23.5q0 -7 -2.5 -14.5t-7.5 -15t-12.5 -14.5t-16.5 -14l-117 -87z" />
    <glyph glyph-name="aringacute" unicode="&#x1fb;" 
d="M79 320q0 30 17.5 52.5t47.5 37t67 21.5t75 7q45 0 80 -11t59 -31.5t36 -49t12 -63.5v-175q0 -11 1.5 -19.5t5.5 -14.5t10 -9t15 -3q6 0 12 2t12.5 6t13.5 10t19 17l39 -55q-16 -16 -29.5 -26t-26.5 -17t-26.5 -10t-29.5 -3q-17 0 -33 5.5t-29 16.5t-21.5 27.5
t-11.5 36.5q-18 -17 -39.5 -32t-47 -27.5t-53 -19.5t-55.5 -7q-31 0 -56.5 7.5t-44 22t-28.5 36t-10 48.5q0 25 9.5 44.5t27 34t42.5 25t58 18.5l196 55v9q0 21 -8 37t-24 27.5t-38 17t-49 5.5q-19 0 -33 -1t-25.5 -3t-21.5 -5t-22 -7q6 -2 11.5 -6t9.5 -10t6.5 -14t2.5 -17
q0 -11 -4.5 -20.5t-12.5 -16.5t-19 -11t-24 -4t-25 4.5t-20.5 12.5t-13 19.5t-4.5 25.5zM393 218l-179 -57q-14 -3 -26 -7.5t-21.5 -11t-15 -15.5t-5.5 -21t5 -21.5t13.5 -16t20 -9.5t25.5 -3q23 0 46.5 6.5t46.5 18t45.5 27.5t44.5 36v74zM344 597q0 13 -4 23.5t-11.5 18.5
t-18 12t-23.5 4t-23.5 -4t-18 -12t-11.5 -18.5t-4 -23.5t4 -23.5t11.5 -18.5t18 -12t23.5 -4t23.5 4t18 12t11.5 18.5t4 23.5zM404 597q0 -24 -9 -45t-25 -37t-37.5 -24.5t-45.5 -8.5t-45 8.5t-37 24.5t-25 37t-9 45t9 45t25 37t37 25t45 9t45.5 -9t37.5 -25t25 -37t9 -45z
M240 768l59 136q4 10 10 19t13.5 15.5t17.5 10.5t22 4t22 -4t17.5 -12t11.5 -18.5t4 -23.5q0 -7 -2.5 -14.5t-7.5 -15t-12.5 -14.5t-16.5 -14l-117 -87z" />
    <glyph glyph-name="AEacute" unicode="&#x1fc;" 
d="M323 650l59 136q4 10 10 19t13.5 15.5t17.5 10.5t22 4t22 -4t17.5 -12t11.5 -18.5t4 -23.5q0 -7 -2.5 -14.5t-7.5 -15t-12.5 -14.5t-16.5 -14l-117 -87zM303 497h-21l-110 -234h131v234zM173 0h-163v78l185 394l-26 25h-48v73h474v-212h-76v108l-31 31h-108v-174h112v-67
h-112v-183h112l31 31v103h76v-207h-363v73h36l31 31v86h-165l-43 -92l30 -25h48v-73z" />
    <glyph glyph-name="aeacute" unicode="&#x1fd;" 
d="M293 518l59 136q4 10 10 19t13.5 15.5t17.5 10.5t22 4q11 0 21.5 -4t18 -12t11.5 -18.5t4 -23.5q0 -7 -2.5 -15t-7.5 -15.5t-12.5 -14.5t-16.5 -13l-117 -88zM513 253q-2 22 -8 41.5t-15.5 35t-23.5 24.5t-32 9q-19 0 -35.5 -8t-29 -24t-20.5 -38.5t-11 -50.5l175 5v6z
M207 172q-20 -1 -37 -4t-31 -10t-22 -18.5t-8 -27.5q0 -13 5 -23.5t13.5 -17.5t20.5 -11t25 -4q14 0 28.5 3t29 8t28.5 12.5t28 16.5q-4 9 -7.5 18.5t-6.5 19t-5.5 20t-3.5 20.5l-51 -2h-6zM592 70q-17 -21 -35.5 -36.5t-38 -26t-39 -15.5t-38.5 -5q-18 0 -35 4t-32.5 11.5
t-29.5 19t-26 25.5q-17 -13 -34.5 -24t-37.5 -19.5t-41 -13t-42 -4.5q-29 0 -54.5 8t-45 24t-30 39.5t-10.5 53.5q0 31 14 54.5t39.5 39.5t60 24t76.5 9l50 2q1 11 3 22.5t5 22t6.5 21t7.5 19.5q-5 12 -12.5 21t-17.5 15t-22 9t-26 3q-13 0 -22.5 -1t-17.5 -3t-15.5 -4.5
t-18.5 -7.5q5 -2 10 -5.5t9 -9t6.5 -12.5t2.5 -16q0 -10 -4 -19t-12 -16t-18.5 -10.5t-22.5 -3.5t-22.5 4t-18 11.5t-11.5 18.5t-4 24q0 26 13.5 47.5t36.5 36.5t51.5 23t57.5 8q21 0 39 -3.5t32.5 -10t26 -16t20.5 -21.5q11 12 24 21.5t26.5 16t28.5 10t30 3.5
q39 0 69.5 -20.5t50.5 -56t29.5 -81t9.5 -94.5l-254 -9q3 -25 11.5 -45.5t21.5 -36t30.5 -24t38.5 -8.5q16 0 29.5 3.5t26 10.5t25 18t26.5 28z" />
    <glyph glyph-name="Oslashacute" unicode="&#x1fe;" 
d="M307 505q-42 0 -74.5 -17t-54.5 -47t-33 -70t-11 -86q0 -20 2 -39.5t6.5 -37t10.5 -34t15 -30.5l236 330q-10 8 -21 13.5t-23 9.5t-25 6t-28 2zM307 66q42 0 75 16.5t55 47t33 70t11 85.5q0 19 -2 37.5t-6 35.5t-9.5 33t-13.5 30l-234 -328q9 -6 19.5 -11t22 -8.5
t24 -5.5t25.5 -2zM569 285q0 -62 -18.5 -117t-53 -96t-83 -63.5t-107.5 -22.5q-20 0 -38.5 2.5t-36 8t-33.5 13t-31 16.5l-62 -87l-56 40l67 94q-17 20 -30.5 43.5t-22.5 50.5t-13.5 57t-4.5 61q0 63 18 117.5t52.5 95.5t83 63.5t107.5 22.5q21 0 40.5 -3t37.5 -8.5
t34.5 -13.5t31.5 -18l58 81l56 -40l-63 -89q16 -20 28.5 -43.5t21 -50t13 -55t4.5 -59.5zM260 650l59 136q4 10 10 19t13.5 15.5t17.5 10.5t22 4t22 -4t17.5 -12t11.5 -18.5t4 -23.5q0 -7 -2.5 -14.5t-7.5 -15t-12.5 -14.5t-16.5 -14l-117 -87z" />
    <glyph glyph-name="oslashacute" unicode="&#x1ff;" 
d="M307 366q-33 0 -62 -11.5t-49.5 -33t-32 -49.5t-11.5 -60q0 -14 2 -27t6.5 -25.5t10.5 -24t14 -21.5l191 237q-7 4 -15.5 6.5t-17 4.5t-17.5 3t-19 1zM307 58q33 0 62 11.5t49.5 33t32 49.5t11.5 60q0 13 -2 26t-6 25t-10 23.5t-14 21.5l-190 -236q8 -3 15.5 -6t16 -4.5
t17.5 -2.5t18 -1zM546 212q0 -47 -18 -88.5t-50.5 -72.5t-76 -48t-94.5 -17q-16 0 -31 1.5t-29.5 5t-28 8.5t-26.5 11l-66 -81l-56 41l65 80q-16 15 -28.5 33.5t-21 38.5t-13 42.5t-4.5 45.5q0 47 18 88.5t50.5 72.5t76.5 48t94 17q16 0 31.5 -2t30.5 -5.5t29 -8.5t27 -11
l63 78l56 -41l-63 -78q15 -15 27.5 -33t20.5 -38t12.5 -42t4.5 -45zM251 518l59 136q4 10 10 19t13.5 15.5t17.5 10.5t22 4q11 0 21.5 -4t18 -12t11.5 -18.5t4 -23.5q0 -7 -2.5 -15t-7.5 -15.5t-12.5 -14.5t-16.5 -13l-117 -88z" />
    <glyph glyph-name="Scommaaccent" unicode="&#x218;" 
d="M234 -135q0 15 5.5 28t15 22.5t22.5 15t27 5.5t27 -5.5t22.5 -16t15 -23.5t5.5 -28q0 -6 -1.5 -12.5t-4 -13t-6.5 -13.5t-9 -14l-95 -116l-35 25l54 83q-9 3 -17 9t-13.5 14.5t-9 18.5t-3.5 21zM339 62q27 0 48.5 6.5t36 19.5t22 30.5t7.5 38.5q0 18 -7 31.5t-18 23
t-25 15.5t-30 10l-134 35q-38 10 -66.5 22.5t-49 30t-31.5 43t-11 60.5q0 34 13.5 63t38.5 50t59.5 32t76.5 11q22 0 42.5 -4.5t39 -12.5t34.5 -20t30 -26l19 9v40h77v-198h-66q-13 36 -33 62t-43.5 42.5t-48.5 24t-51 7.5q-24 0 -43.5 -5.5t-33.5 -16t-21.5 -25t-7.5 -31.5
t6.5 -29.5t19 -21t28.5 -14.5t39 -12l135 -37q33 -9 59 -22t45 -31.5t29.5 -43.5t10.5 -57q0 -39 -13.5 -71.5t-39 -56t-62 -36t-81.5 -12.5q-24 0 -48 5.5t-46 15t-41 23t-32 28.5l-18 -11v-47h-77v220h66q13 -39 35 -69.5t49 -50t55.5 -29t56.5 -9.5z" />
    <glyph glyph-name="scommaaccent" unicode="&#x219;" 
d="M236 -135q0 15 5.5 28t15 22.5t22.5 15t27 5.5t27 -5.5t22.5 -16t15 -23.5t5.5 -28q0 -6 -1.5 -12.5t-4 -13t-6.5 -13.5t-9 -14l-95 -116l-35 25l54 83q-9 3 -17 9t-13.5 14.5t-9 18.5t-3.5 21zM230 193q-34 7 -59 17.5t-42.5 25t-26.5 34.5t-9 46q0 27 12 49.5t33 39
t49.5 25t60.5 8.5q23 0 45.5 -4t43 -11t38 -18t30.5 -24l18 6v37h71v-150h-58q-14 21 -34 38.5t-44 31t-49 20.5t-49 7q-19 0 -34.5 -3.5t-27 -10.5t-18 -16.5t-6.5 -20.5q0 -12 5.5 -20.5t15.5 -14.5t24 -10t34 -8l156 -33q27 -6 48 -15t36.5 -22.5t23.5 -33t8 -45.5
q0 -31 -12 -55.5t-35 -41.5t-54.5 -26t-69.5 -9q-30 0 -57.5 5.5t-50.5 15t-41 21.5t-31 26l-18 -12v-42h-70v162h65q19 -24 40.5 -43.5t46.5 -34t53 -22.5t59 -8q20 0 37 3.5t30 11t20 19.5t7 27q0 11 -5 19t-13.5 13.5t-19.5 9t-27 6.5z" />
    <glyph glyph-name="uni021A" unicode="&#x21a;" 
d="M238 -135q0 15 5.5 28t15 22.5t22.5 15t27 5.5t27 -5.5t22.5 -16t15 -23.5t5.5 -28q0 -6 -1.5 -12.5t-4 -13t-6.5 -13.5t-9 -14l-95 -116l-35 25l54 83q-9 3 -17 9t-13.5 14.5t-9 18.5t-3.5 21zM562 570v-242h-76v138l-31 31h-106v-393l31 -31h115v-73h-376v73h115l31 31
v393h-106l-31 -31v-138h-76v242h510z" />
    <glyph glyph-name="uni021B" unicode="&#x21b;" 
d="M286 -135q0 15 5.5 28t15 22.5t22.5 15t27 5.5t27 -5.5t22.5 -16t15 -23.5t5.5 -28q0 -6 -1.5 -12.5t-4 -13t-6.5 -13.5t-9 -14l-95 -116l-35 25l54 83q-9 3 -17 9t-13.5 14.5t-9 18.5t-3.5 21zM138 351h-94v73h125v154h78v-154h235v-73h-205l-31 -31v-122
q0 -34 7.5 -59.5t22 -42.5t36 -25.5t50.5 -8.5q24 0 45 6t39 17t34 26.5t34 37.5l49 -48q-17 -25 -39.5 -46t-48 -36.5t-54.5 -24t-59 -8.5q-45 0 -80.5 11.5t-60.5 36t-38.5 63t-13.5 90.5v133z" />
    <glyph glyph-name="uni0237" unicode="&#x237;" 
d="M69 -34q0 19 6 35.5t17 29t26 19.5t32 7q16 0 30 -5t23.5 -14.5t14.5 -21.5t5 -25q0 -12 -4.5 -22.5t-12.5 -19t-19 -14t-24 -5.5q5 -14 15.5 -25.5t24 -19.5t30 -12.5t34.5 -4.5q32 0 57 10.5t41.5 31t25 50.5t8.5 70v290l-31 31h-203v73h309v-399q0 -53 -15.5 -95
t-43 -70.5t-65.5 -43t-83 -14.5q-40 0 -76.5 13t-63.5 36t-42.5 53t-15.5 62z" />
    <glyph glyph-name="circumflex" unicode="&#x2c6;" 
d="M307 692q9 0 16.5 -3t14.5 -8t12.5 -11t11.5 -14l101 -135l-28 -23l-128 94l-128 -94l-28 23l101 135q6 8 11.5 14t12.5 11t14.5 8t16.5 3z" />
    <glyph glyph-name="caron" unicode="&#x2c7;" 
d="M307 499q-9 0 -16.5 3t-14.5 8t-12.5 11t-11.5 14l-101 135l28 23l128 -94l128 94l28 -23l-101 -135q-6 -8 -11.5 -14t-12.5 -11t-14.5 -8t-16.5 -3z" />
    <glyph glyph-name="breve" unicode="&#x2d8;" 
d="M307 576q19 0 37 6t34 17.5t27.5 28t16.5 36.5l54 -13q-7 -36 -22.5 -64.5t-37.5 -48.5t-49.5 -30t-59.5 -10t-59.5 10t-49.5 29.5t-37.5 48.5t-22.5 65l54 13q5 -20 17 -36.5t27.5 -28t34 -17.5t36.5 -6z" />
    <glyph glyph-name="dotaccent" unicode="&#x2d9;" 
d="M306 508q-15 0 -28.5 5.5t-24 16t-16 24t-5.5 28.5q0 16 5.5 30t16 24.5t24 16.5t28.5 6q16 0 30.5 -6t24.5 -16t16 -24.5t6 -30.5q0 -15 -6 -28.5t-16.5 -24t-24.5 -16t-30 -5.5z" />
    <glyph glyph-name="ring" unicode="&#x2da;" 
d="M364 605q0 13 -4 23.5t-11.5 18.5t-18 12t-23.5 4t-23.5 -4t-18 -12t-11.5 -18.5t-4 -23.5t4 -23.5t11.5 -18.5t18 -12t23.5 -4t23.5 4t18 12t11.5 18.5t4 23.5zM424 605q0 -24 -9 -45t-25 -37t-37.5 -24.5t-45.5 -8.5t-45 8.5t-37 24.5t-25 37t-9 45t9 45t25 37t37 25
t45 9t45.5 -9t37.5 -25t25 -37t9 -45z" />
    <glyph glyph-name="ogonek" unicode="&#x2db;" 
d="M397 16q-41 -36 -67 -61t-43 -43.5t-25 -32t-8 -23.5q0 -6 2 -11t5 -8t7.5 -4.5t10.5 -1.5q9 0 19.5 4t21.5 11t22.5 16.5t23.5 20.5l37 -52q-16 -14 -30.5 -25.5t-31 -20.5t-35 -14.5t-38.5 -5.5q-21 0 -37.5 6t-28 17t-17 25t-5.5 31q0 22 10 43.5t30.5 45.5t51.5 53.5
t81 73.5z" />
    <glyph glyph-name="tilde" unicode="&#x2dc;" 
d="M499 641q0 -32 -8 -57.5t-23.5 -44t-36 -28t-44.5 -9.5q-22 0 -41.5 9t-44 27t-36.5 25.5t-26 7.5q-11 0 -20 -4.5t-16.5 -13t-11.5 -21t-4 -27.5h-71q0 31 8 56.5t23 44t35 28t45 9.5q22 0 40.5 -9t43 -27t38 -25.5t27.5 -7.5q10 0 19.5 4.5t16.5 13.5t11 21.5t4 27.5
h72z" />
    <glyph glyph-name="hungarumlaut" unicode="&#x2dd;" 
d="M315 518l59 136q4 10 10 19t14 15.5t18 10.5t22 4q11 0 21 -4t17.5 -12t11.5 -19t4 -23q0 -7 -2.5 -15t-7.5 -15.5t-12.5 -14.5t-16.5 -13l-116 -88zM113 518l59 136q4 10 10 19t13.5 15.5t17.5 10.5t22 4q11 0 21.5 -4t18 -12t11.5 -18.5t4 -23.5q0 -7 -2.5 -15
t-7.5 -15.5t-12.5 -14.5t-16.5 -13l-117 -88z" />
    <glyph glyph-name="uni0326" unicode="&#x326;" 
d="M242 -135q0 15 5.5 28t15 22.5t22.5 15t27 5.5t27 -5.5t22.5 -16t15 -23.5t5.5 -28q0 -6 -1.5 -12.5t-4 -13t-6.5 -13.5t-9 -14l-95 -116l-35 25l54 83q-9 3 -17 9t-13.5 14.5t-9 18.5t-3.5 21z" />
    <glyph glyph-name="Wgrave" unicode="&#x1e80;" 
d="M334 632l-117 87q-9 7 -16.5 14t-12.5 14.5t-7.5 15t-2.5 14.5q0 13 4 23.5t11.5 18.5t17.5 12t22 4t22 -4t17.5 -10.5t13.5 -15.5t10 -19l59 -136zM415 73h21l40 399l-20 25h-88v73h238v-73h-50l-55 -497h-137l-55 356l-54 -356h-142l-55 497h-50v73h243v-73h-88
l-20 -25l40 -399h21l51 351h109z" />
    <glyph glyph-name="wgrave" unicode="&#x1e81;" 
d="M413 62h19l47 272l-16 17h-71v73h206v-73h-42l-70 -351h-122l-57 244l-56 -244h-122l-70 351h-43v73h210v-73h-71l-16 -17l47 -272h18l53 243h103zM345 499l-117 88q-9 6 -16.5 13t-12.5 14.5t-7.5 15.5t-2.5 15q0 13 4 23.5t11.5 18.5t18 12t21.5 4q12 0 22 -4
t17.5 -10.5t13.5 -15.5t10 -19l59 -136z" />
    <glyph glyph-name="Wacute" unicode="&#x1e82;" 
d="M260 650l59 136q4 10 10 19t13.5 15.5t17.5 10.5t22 4t22 -4t17.5 -12t11.5 -18.5t4 -23.5q0 -7 -2.5 -14.5t-7.5 -15t-12.5 -14.5t-16.5 -14l-117 -87zM415 73h21l40 399l-20 25h-88v73h238v-73h-50l-55 -497h-137l-55 356l-54 -356h-142l-55 497h-50v73h243v-73h-88
l-20 -25l40 -399h21l51 351h109z" />
    <glyph glyph-name="wacute" unicode="&#x1e83;" 
d="M252 518l59 136q4 10 10 19t13.5 15.5t17.5 10.5t22 4q11 0 21.5 -4t18 -12t11.5 -18.5t4 -23.5q0 -7 -2.5 -15t-7.5 -15.5t-12.5 -14.5t-16.5 -13l-117 -88zM413 62h19l47 272l-16 17h-71v73h206v-73h-42l-70 -351h-122l-57 244l-56 -244h-122l-70 351h-43v73h210v-73
h-71l-16 -17l47 -272h18l53 243h103z" />
    <glyph glyph-name="Wdieresis" unicode="&#x1e84;" 
d="M415 640q-15 0 -28.5 5.5t-24 15.5t-16 23.5t-5.5 27.5q0 15 5.5 28t16 23.5t24 16t28.5 5.5t28.5 -5.5t24 -16t16 -23.5t5.5 -28q0 -14 -5.5 -27.5t-16 -23.5t-24 -15.5t-28.5 -5.5zM200 640q-15 0 -28.5 5.5t-24 15.5t-16 23.5t-5.5 27.5q0 15 5.5 28t16 23.5t24 16
t28.5 5.5t28.5 -5.5t24 -16t16 -23.5t5.5 -28q0 -14 -5.5 -27.5t-16 -23.5t-24 -15.5t-28.5 -5.5zM415 73h21l40 399l-20 25h-88v73h238v-73h-50l-55 -497h-137l-55 356l-54 -356h-142l-55 497h-50v73h243v-73h-88l-20 -25l40 -399h21l51 351h109z" />
    <glyph glyph-name="wdieresis" unicode="&#x1e85;" 
d="M415 512q-15 0 -28.5 5.5t-24 15.5t-16 23.5t-5.5 27.5q0 15 5.5 28.5t16 23.5t24 15.5t28.5 5.5t28.5 -5.5t24 -15.5t16 -23.5t5.5 -28.5q0 -14 -5.5 -27.5t-16 -23.5t-24 -15.5t-28.5 -5.5zM200 513q-15 0 -28.5 5.5t-24 15.5t-16 23t-5.5 28t5.5 28t16 23.5t24 16
t28.5 5.5t28.5 -5.5t24 -16t16 -23.5t5.5 -28t-5.5 -28t-16 -23t-24 -15.5t-28.5 -5.5zM413 62h19l47 272l-16 17h-71v73h206v-73h-42l-70 -351h-122l-57 244l-56 -244h-122l-70 351h-43v73h210v-73h-71l-16 -17l47 -272h18l53 243h103z" />
    <glyph glyph-name="Ygrave" unicode="&#x1ef2;" 
d="M349 104l31 -31h115v-73h-376v73h115l31 31v101l-193 292h-62v73h261v-73h-57l-30 -25l126 -204l126 204l-29 25h-58v73h255v-73h-62l-193 -292v-101zM334 632l-117 87q-9 7 -16.5 14t-12.5 14.5t-7.5 15t-2.5 14.5q0 13 4 23.5t11.5 18.5t17.5 12t22 4t22 -4t17.5 -10.5
t13.5 -15.5t10 -19l59 -136z" />
    <glyph glyph-name="ygrave" unicode="&#x1ef3;" 
d="M22 -78q0 18 6 34.5t17.5 29t26.5 19.5t32 7q14 0 26 -4t21.5 -12.5t14.5 -20t5 -25.5q0 -13 -5 -24.5t-14 -19t-22 -11.5t-29 -3q3 -8 8 -13.5t12 -9t15 -5t16 -1.5q16 0 31 9.5t29 28t28.5 44t34.5 65.5l-184 341h-53v73h225v-73h-49l-21 -22l125 -241l124 241l-20 22
h-49v73h217v-73h-54l-196 -366q-27 -51 -45 -81t-39 -54.5t-46.5 -38t-57.5 -13.5q-28 0 -51.5 9t-41.5 25t-27.5 39t-9.5 51zM357 499l-117 88q-9 6 -16.5 13t-12.5 14.5t-7.5 15.5t-2.5 15q0 13 4 23.5t11.5 18.5t18 12t21.5 4q12 0 22 -4t17.5 -10.5t13.5 -15.5t10 -19
l59 -136z" />
    <glyph glyph-name="endash" unicode="&#x2013;" 
d="M145 315h324v-83h-324v83z" />
    <glyph glyph-name="emdash" unicode="&#x2014;" 
d="M55 315h504v-83h-504v83z" />
    <glyph glyph-name="quoteleft" unicode="&#x2018;" 
d="M397 416q0 -19 -7 -35t-19 -28t-28 -18.5t-34 -6.5t-34.5 7t-28.5 19.5t-19 29t-7 35.5q0 8 1.5 15.5t4.5 16t8 16.5t12 17l136 172l45 -31l-85 -132q11 -4 21 -11t18 -17t12 -22.5t4 -26.5z" />
    <glyph glyph-name="quoteright" unicode="&#x2019;" 
d="M217.024 551.025q0 18.999 6.99902 34.998q7 15.999 18.999 27.998t27.998 18.499q15.999 6.49902 33.998 6.49902t34.498 -6.99902q16.499 -7 28.498 -19.499q12 -12.499 18.999 -28.998q7 -16.499 7 -35.498q0 -7.99902 -1.5 -15.499q-1.5 -7.49902 -4.5 -15.999
q-3 -8.49902 -7.99902 -16.499q-5 -7.99902 -12 -16.999l-135.991 -171.989l-44.9971 30.998l84.9941 131.992q-10.999 4 -20.998 10.999q-10 7 -17.999 16.999q-8 9.99902 -11.999 22.499q-4 12.499 -4 26.498z" />
    <glyph glyph-name="quotesinglbase" unicode="&#x201a;" 
d="M217.024 78.0254q0 18.999 6.99902 34.998q7 15.999 18.999 27.998t27.998 18.499q15.999 6.49902 33.998 6.49902t34.498 -6.99902q16.499 -7 28.498 -19.499q12 -12.499 18.999 -28.998q7 -16.499 7 -35.498q0 -7.99902 -1.5 -15.499q-1.5 -7.49902 -4.5 -15.999
q-3 -8.49902 -7.99902 -16.499q-5 -7.99902 -12 -16.999l-135.991 -171.989l-44.9971 30.998l84.9941 131.992q-10.999 4 -20.998 10.999q-10 7 -17.999 16.999q-8 9.99902 -11.999 22.499q-4 12.499 -4 26.498z" />
    <glyph glyph-name="quotedblleft" unicode="&#x201c;" 
d="M259 416q0 -19 -7 -35t-19 -28t-28 -18.5t-34 -6.5t-34.5 7t-28.5 19.5t-19 29t-7 35.5q0 8 1.5 15.5t4.5 16t8 16.5t12 17l136 172l45 -31l-85 -132q11 -4 21 -11t18 -17t12 -22.5t4 -26.5zM512 416q0 -19 -7 -35t-19 -28t-28 -18.5t-34 -6.5t-34.5 7t-28.5 19.5t-19 29
t-7 35.5q0 8 1.5 15.5t4.5 16t8 16.5t12 17l136 172l45 -31l-85 -132q11 -4 21 -11t18 -17t12 -22.5t4 -26.5z" />
    <glyph glyph-name="quotedblright" unicode="&#x201d;" 
d="M107.024 551.025q0 18.999 6.99902 34.998q7 15.999 18.999 27.998t27.998 18.499q15.999 6.49902 33.998 6.49902t34.498 -6.99902q16.499 -7 28.498 -19.499q12 -12.499 18.999 -28.998q7 -16.499 7 -35.498q0 -7.99902 -1.5 -15.499q-1.5 -7.49902 -4.5 -15.999
q-3 -8.49902 -7.99902 -16.499q-5 -7.99902 -12 -16.999l-135.991 -171.989l-44.9971 30.998l84.9941 131.992q-10.999 4 -20.998 10.999q-10 7 -17.999 16.999q-8 9.99902 -11.999 22.499q-4 12.499 -4 26.498zM360.024 551.025q0 18.999 6.99902 34.998
q7 15.999 18.999 27.998t27.998 18.499q15.999 6.49902 33.998 6.49902t34.498 -6.99902q16.499 -7 28.498 -19.499q12 -12.499 18.999 -28.998q7 -16.499 7 -35.498q0 -7.99902 -1.5 -15.499q-1.5 -7.49902 -4.5 -15.999q-3 -8.49902 -7.99902 -16.499
q-5 -7.99902 -12 -16.999l-135.991 -171.989l-44.9971 30.998l84.9941 131.992q-10.999 4 -20.998 10.999q-10 7 -17.999 16.999q-8 9.99902 -11.999 22.499q-4 12.499 -4 26.498z" />
    <glyph glyph-name="quotedblbase" unicode="&#x201e;" 
d="M107.024 79.0254q0 18.999 6.99902 34.998q7 15.999 18.999 27.998t27.998 18.499q15.999 6.49902 33.998 6.49902t34.498 -6.99902q16.499 -7 28.498 -19.499q12 -12.499 18.999 -28.998q7 -16.499 7 -35.498q0 -7.99902 -1.5 -15.499q-1.5 -7.49902 -4.5 -15.999
q-3 -8.49902 -7.99902 -16.499q-5 -7.99902 -12 -16.999l-135.991 -171.989l-44.9971 30.998l84.9941 131.992q-10.999 4 -20.998 10.999q-10 7 -17.999 16.999q-8 9.99902 -11.999 22.499q-4 12.499 -4 26.498zM360.024 79.0254q0 18.999 6.99902 34.998
q7 15.999 18.999 27.998t27.998 18.499q15.999 6.49902 33.998 6.49902t34.498 -6.99902q16.499 -7 28.498 -19.499q12 -12.499 18.999 -28.998q7 -16.499 7 -35.498q0 -7.99902 -1.5 -15.499q-1.5 -7.49902 -4.5 -15.999q-3 -8.49902 -7.99902 -16.499
q-5 -7.99902 -12 -16.999l-135.991 -171.989l-44.9971 30.998l84.9941 131.992q-10.999 4 -20.998 10.999q-10 7 -17.999 16.999q-8 9.99902 -11.999 22.499q-4 12.499 -4 26.498z" />
    <glyph glyph-name="dagger" unicode="&#x2020;" 
d="M343 231h-71v207h-134v69h134v125h71v-125h133v-69h-133v-207z" />
    <glyph glyph-name="daggerdbl" unicode="&#x2021;" 
d="M343 231h-71v87h-134v68h134v95h-134v69h134v82h71v-82h133v-69h-133v-95h133v-68h-133v-87z" />
    <glyph glyph-name="bullet" unicode="&#x2022;" 
d="M515 295q0 -42 -16 -79.5t-44.5 -65.5t-66.5 -44t-81 -16t-80.5 16t-66 44t-44.5 65.5t-16 79.5t16 79.5t44.5 65.5t66 44t80.5 16t81 -16t66.5 -44t44.5 -65.5t16 -79.5z" />
    <glyph glyph-name="ellipsis" unicode="&#x2026;" 
d="M430.582 61.3037q0 14.9932 5.83105 28.7373q5.83105 13.7432 15.8262 23.7383q9.99512 9.99609 23.7383 15.8262q13.7441 5.83105 28.7373 5.83105t28.7363 -5.83105q13.7441 -5.83008 23.7393 -15.8262q9.99512 -9.99512 15.8262 -23.7383
q5.83008 -13.7441 5.83008 -28.7373t-5.83008 -28.7363q-5.83105 -13.7441 -15.8262 -23.7393t-23.7393 -15.8262q-13.7432 -5.83008 -28.7363 -5.83008t-28.7373 5.83008q-13.7432 5.83105 -23.7383 15.8262t-15.8262 23.7393q-5.83105 13.7432 -5.83105 28.7363z
M232.582 61.3037q0 14.9932 5.83105 28.7373q5.83105 13.7432 15.8262 23.7383q9.99512 9.99609 23.7383 15.8262q13.7441 5.83105 28.7373 5.83105t28.7363 -5.83105q13.7441 -5.83008 23.7393 -15.8262q9.99512 -9.99512 15.8262 -23.7383
q5.83008 -13.7441 5.83008 -28.7373t-5.83008 -28.7363q-5.83105 -13.7441 -15.8262 -23.7393t-23.7393 -15.8262q-13.7432 -5.83008 -28.7363 -5.83008t-28.7373 5.83008q-13.7432 5.83105 -23.7383 15.8262t-15.8262 23.7393q-5.83105 13.7432 -5.83105 28.7363z
M36.582 61.3037q0 14.9932 5.83105 28.7373q5.83105 13.7432 15.8262 23.7383q9.99512 9.99609 23.7383 15.8262q13.7441 5.83105 28.7373 5.83105t28.7363 -5.83105q13.7441 -5.83008 23.7393 -15.8262q9.99512 -9.99512 15.8262 -23.7383
q5.83008 -13.7441 5.83008 -28.7373t-5.83008 -28.7363q-5.83105 -13.7441 -15.8262 -23.7393t-23.7393 -15.8262q-13.7432 -5.83008 -28.7363 -5.83008t-28.7373 5.83008q-13.7432 5.83105 -23.7383 15.8262t-15.8262 23.7393q-5.83105 13.7432 -5.83105 28.7363z" />
    <glyph glyph-name="perthousand" unicode="&#x2030;" 
d="M516 43q11 0 20 4t16 11t11 16.5t4 19.5q0 11 -4 20.5t-11 16.5t-16 11t-20 4q-10 0 -19.5 -4t-16.5 -11t-11 -16.5t-4 -20.5q0 -10 4 -19.5t11 -16.5t16.5 -11t19.5 -4zM516 192q20 0 38 -7.5t31.5 -21t21 -31.5t7.5 -38t-7.5 -38t-21 -31.5t-31.5 -21t-38 -7.5t-38 7.5
t-31.5 21t-21 31.5t-7.5 38t7.5 38t21 31.5t31.5 21t38 7.5zM282 43q11 0 20.5 4t16.5 11t11 16.5t4 19.5q0 11 -4 20.5t-11 16.5t-16.5 11t-20.5 4q-10 0 -19.5 -4t-16.5 -11t-11 -16.5t-4 -20.5q0 -10 4 -19.5t11 -16.5t16.5 -11t19.5 -4zM282 192q20 0 38 -7.5t32 -21
t21.5 -31.5t7.5 -38t-7.5 -38t-21.5 -31.5t-32 -21t-38 -7.5t-38 7.5t-31.5 21t-21 31.5t-7.5 38t7.5 38t21 31.5t31.5 21t38 7.5zM98 538q-11 0 -20 -4t-16 -11t-11 -16.5t-4 -20.5t4 -20t11 -16t16 -11t20 -4q10 0 19.5 4t17 11t11.5 16t4 20t-4 20.5t-11.5 16.5t-17 11
t-19.5 4zM381 557l-337 -568l-44 27l337 567zM98 585q20 0 38 -7.5t31.5 -21.5t21 -32t7.5 -38t-7.5 -37.5t-21 -31t-31.5 -21t-38 -7.5t-38 7.5t-31.5 21t-21 31t-7.5 37.5t7.5 38t21 32t31.5 21.5t38 7.5z" />
    <glyph glyph-name="guilsinglleft" unicode="&#x2039;" 
d="M298 222l110 -132l-61 -51l-147 183l147 183l61 -50z" />
    <glyph glyph-name="guilsinglright" unicode="&#x203a;" 
d="M316.019 222l-109.993 -132l60.9961 -51l146.99 183l-146.99 183l-60.9961 -50z" />
    <glyph glyph-name="fraction" unicode="&#x2044;" 
d="M573 547l-489 -557l-43 37l489 556z" />
    <glyph glyph-name="uni2070" unicode="&#x2070;" 
d="M144 418q0 43 11.5 80t33 65.5t52 44t66.5 15.5t66.5 -15.5t52.5 -44t33.5 -65.5t11.5 -80t-11.5 -80t-33.5 -65.5t-52.5 -44t-66.5 -15.5t-66.5 15.5t-52 44t-33 65.5t-11.5 80zM399 418q0 29 -6 54.5t-17.5 44.5t-29 30t-39.5 11t-39.5 -11t-29 -30t-17 -44.5
t-5.5 -54.5t5.5 -54.5t17 -44.5t29 -30t39.5 -11t39.5 11t29 30t17.5 44.5t6 54.5z" />
    <glyph glyph-name="uni2074" unicode="&#x2074;" 
d="M423 310l-25 -25v-62h-67v62l-24 25h-180v83q23 24 47.5 56t48.5 68t44.5 72.5t33.5 69.5l70 -22q-14 -34 -36.5 -71.5t-47 -72.5t-44 -60.5t-50.5 -64.5h138v90h67v-90h89v-58h-64z" />
    <glyph glyph-name="uni2075" unicode="&#x2075;" 
d="M168 213q47 7 85 19t66.5 28.5t44 38.5t15.5 49q0 13 -4 23t-11.5 17t-18.5 11t-25 4q-10 0 -19.5 -2.5t-17.5 -7.5t-14 -12t-9 -15h-85l10 247h247v-63h-186l-7 -124q5 8 13.5 15t20.5 12.5t25.5 8.5t28.5 3q30 0 52.5 -10t37.5 -27t22 -38t7 -42q0 -43 -22 -76.5
t-59.5 -58t-84.5 -39.5t-100 -22z" />
    <glyph glyph-name="uni2076" unicode="&#x2076;" 
d="M315 487q30 0 55 -10t43.5 -28t28.5 -43.5t10 -55.5q0 -28 -11 -53t-31 -44t-46.5 -29.5t-55.5 -10.5q-18 0 -35.5 4t-34 12t-29.5 20t-23 27q-6 9 -10.5 20t-7.5 23t-4.5 24.5t-1.5 24.5q0 45 17.5 89.5t50.5 83.5t81 69t107 46l18 -59q-34 -11 -63 -25.5t-51.5 -31.5
t-40 -36t-29.5 -40q6 5 13.5 9.5t16 7.5t17 4.5t16.5 1.5zM385 350q0 16 -6 29.5t-16.5 24t-24.5 16t-30 5.5t-29.5 -5.5t-24 -16t-16.5 -24t-6 -29.5q0 -15 6 -29t16.5 -24.5t24.5 -16t29 -5.5q16 0 30 5.5t24.5 16t16.5 24.5t6 29z" />
    <glyph glyph-name="uni2077" unicode="&#x2077;" 
d="M210 526v-70h-63v157h320v-75l-202 -387l-60 27l193 372h-164z" />
    <glyph glyph-name="uni2078" unicode="&#x2078;" 
d="M307 466q15 0 27.5 4t21.5 12t14 19t5 25t-5 25.5t-14 19t-21.5 11.5t-27.5 4t-27.5 -4t-21.5 -11.5t-14 -19t-5 -25.5t5 -25t14 -19t21.5 -12t27.5 -4zM307 277q16 0 30.5 4t25 12t16.5 20t6 27t-5.5 27t-16 19.5t-25 11.5t-31.5 4t-31.5 -4t-25 -11.5t-16 -19.5
t-5.5 -27t6 -27t16.5 -20t25 -12t30.5 -4zM307 215q-30 0 -57 8.5t-47.5 25t-32 39.5t-11.5 52q0 16 5.5 30t14.5 25.5t20 20t23 14.5v9q-9 6 -18 14t-16 19.5t-11.5 25t-4.5 28.5q0 27 10 50t28 39.5t43 25t54 8.5t54 -8.5t43 -25t28 -39.5t10 -50q0 -15 -4.5 -28.5
t-11.5 -25t-16 -19.5t-18 -14v-9q12 -6 23 -14.5t20 -20t14.5 -25.5t5.5 -30q0 -29 -11.5 -52t-32 -39.5t-47.5 -25t-57 -8.5z" />
    <glyph glyph-name="uni2079" unicode="&#x2079;" 
d="M306 623q18 0 35.5 -4t34 -12t29.5 -20t23 -27q6 -9 10.5 -20t7.5 -23t4.5 -24.5t1.5 -24.5q0 -50 -19.5 -99t-56 -91.5t-86 -74t-106.5 -46.5l-18 59q37 11 68 27.5t55 36.5t42.5 43t30.5 48q-8 -6 -15 -10t-14 -6.5t-13.5 -4t-13.5 -1.5q-30 0 -56 10t-46 28.5t-31 44
t-11 55.5q0 28 11 52.5t31 43.5t46.5 29.5t55.5 10.5zM229 487q0 -16 6 -30t16.5 -24.5t24.5 -16t30 -5.5t30 5.5t24.5 16t16 24.5t5.5 30q0 15 -5.5 29t-16 24t-24.5 15.5t-30 5.5t-30 -5.5t-24.5 -15.5t-16.5 -24t-6 -29z" />
    <glyph glyph-name="uni2080" unicode="&#x2080;" 
d="M144 45q0 43 11.5 80t33 65.5t52 44t66.5 15.5t66.5 -15.5t52.5 -44t33.5 -65.5t11.5 -80t-11.5 -80t-33.5 -65.5t-52.5 -44t-66.5 -15.5t-66.5 15.5t-52 44t-33 65.5t-11.5 80zM399 45q0 29 -6 54.5t-17.5 44.5t-29 30t-39.5 11t-39.5 -11t-29 -30t-17 -44.5t-5.5 -54.5
t5.5 -54.5t17 -44.5t29 -30t39.5 -11t39.5 11t29 30t17.5 44.5t6 54.5z" />
    <glyph glyph-name="uni2081" unicode="&#x2081;" 
d="M260 240h85v-306l24 -25h110v-59h-342v59h115l24 25v238l-103 -69l-36 54z" />
    <glyph glyph-name="uni2082" unicode="&#x2082;" 
d="M142 147q15 22 34.5 40.5t43.5 32.5t50 22t52 8q32 0 56.5 -9t40.5 -24.5t24 -36.5t8 -45q0 -23 -9.5 -42.5t-25.5 -36t-31.5 -28.5t-45.5 -33l-119 -86h159l26 25v40h63v-124h-322v80l145 111q41 31 47 35.5t16 15t15.5 21.5t5.5 25q0 9 -3.5 17.5t-10 15t-16.5 10
t-23 3.5q-17 0 -34 -5.5t-33.5 -16.5t-31.5 -25t-27 -31z" />
    <glyph glyph-name="uni2083" unicode="&#x2083;" 
d="M208 56l160 122h-200v62h266v-80l-107 -72h15q24 0 44 -8t34.5 -22.5t22.5 -34t8 -42.5q0 -43 -22.5 -77.5t-61.5 -59.5t-88 -41t-103 -23l-12 62q46 8 85.5 20.5t69.5 30t47 40t17 48.5q0 14 -5 25.5t-14 19.5t-20.5 12t-24.5 4q-11 0 -20.5 -1.5t-19 -5t-19.5 -9
t-21 -12.5z" />
    <glyph glyph-name="uni2084" unicode="&#x2084;" 
d="M423 -63l-25 -25v-62h-67v62l-24 25h-180v83q23 24 47.5 56t48.5 68t44.5 72.5t33.5 69.5l70 -22q-14 -34 -36.5 -71.5t-47 -72.5t-44 -60.5t-50.5 -64.5h138v90h67v-90h89v-58h-64z" />
    <glyph glyph-name="uni2085" unicode="&#x2085;" 
d="M168 -160q47 7 85 19t66.5 28.5t44 38.5t15.5 49q0 13 -4 23t-11.5 17t-18.5 11t-25 4q-10 0 -19.5 -2.5t-17.5 -7.5t-14 -12t-9 -15h-85l10 247h247v-63h-186l-7 -124q5 8 13.5 15t20.5 12.5t25.5 8.5t28.5 3q30 0 52.5 -10t37.5 -27t22 -38t7 -42q0 -43 -22 -76.5
t-59.5 -58t-84.5 -39.5t-100 -22z" />
    <glyph glyph-name="uni2086" unicode="&#x2086;" 
d="M315 114q30 0 55 -10t43.5 -28t28.5 -43.5t10 -55.5q0 -28 -11 -53t-31 -44t-46.5 -29.5t-55.5 -10.5q-18 0 -35.5 4t-34 12t-29.5 20t-23 27q-6 9 -10.5 20t-7.5 23t-4.5 24.5t-1.5 24.5q0 45 17.5 89.5t50.5 83.5t81 69t107 46l18 -59q-34 -11 -63 -25.5t-51.5 -31.5
t-40 -36t-29.5 -40q6 5 13.5 9.5t16 7.5t17 4.5t16.5 1.5zM385 -23q0 16 -6 29.5t-16.5 24t-24.5 16t-30 5.5t-29.5 -5.5t-24 -16t-16.5 -24t-6 -29.5q0 -15 6 -29t16.5 -24.5t24.5 -16t29 -5.5q16 0 30 5.5t24.5 16t16.5 24.5t6 29z" />
    <glyph glyph-name="uni2087" unicode="&#x2087;" 
d="M210 153v-70h-63v157h320v-75l-202 -387l-60 27l193 372h-164z" />
    <glyph glyph-name="uni2088" unicode="&#x2088;" 
d="M307 93q15 0 27.5 4t21.5 12t14 19t5 25t-5 25.5t-14 19t-21.5 11.5t-27.5 4t-27.5 -4t-21.5 -11.5t-14 -19t-5 -25.5t5 -25t14 -19t21.5 -12t27.5 -4zM307 -96q16 0 30.5 4t25 12t16.5 20t6 27t-5.5 27t-16 19.5t-25 11.5t-31.5 4t-31.5 -4t-25 -11.5t-16 -19.5
t-5.5 -27t6 -27t16.5 -20t25 -12t30.5 -4zM307 -158q-30 0 -57 8.5t-47.5 25t-32 39.5t-11.5 52q0 16 5.5 30t14.5 25.5t20 20t23 14.5v9q-9 6 -18 14t-16 19.5t-11.5 25t-4.5 28.5q0 27 10 50t28 39.5t43 25t54 8.5t54 -8.5t43 -25t28 -39.5t10 -50q0 -15 -4.5 -28.5
t-11.5 -25t-16 -19.5t-18 -14v-9q12 -6 23 -14.5t20 -20t14.5 -25.5t5.5 -30q0 -29 -11.5 -52t-32 -39.5t-47.5 -25t-57 -8.5z" />
    <glyph glyph-name="uni2089" unicode="&#x2089;" 
d="M306 250q18 0 35.5 -4t34 -12t29.5 -20t23 -27q6 -9 10.5 -20t7.5 -23t4.5 -24.5t1.5 -24.5q0 -50 -19.5 -99t-56 -91.5t-86 -74t-106.5 -46.5l-18 59q37 11 68 27.5t55 36.5t42.5 43t30.5 48q-8 -6 -15 -10t-14 -6.5t-13.5 -4t-13.5 -1.5q-30 0 -56 10t-46 28.5t-31 44
t-11 55.5q0 28 11 52.5t31 43.5t46.5 29.5t55.5 10.5zM229 114q0 -16 6 -30t16.5 -24.5t24.5 -16t30 -5.5t30 5.5t24.5 16t16 24.5t5.5 30q0 15 -5.5 29t-16 24t-24.5 15.5t-30 5.5t-30 -5.5t-24.5 -15.5t-16.5 -24t-6 -29z" />
    <glyph glyph-name="Euro" unicode="&#x20ac;" 
d="M574 103q-22 -28 -48 -49.5t-53.5 -36.5t-57 -22.5t-59.5 -7.5q-47 0 -87.5 15t-72 43t-52.5 66.5t-32 84.5h-97l12 59h76q0 4 -0.5 7.5t-0.5 7v7v8.5v9.5v7.5t0.5 8t0.5 8h-67l13 59h64q12 46 34.5 83.5t54.5 65.5t72.5 43t87.5 15q46 0 83.5 -13.5t64 -37t40 -52.5
t13.5 -59q0 -15 -5.5 -29t-15 -24.5t-22.5 -16t-27 -5.5t-25.5 5t-20.5 14.5t-14 21t-5 23.5q0 8 2.5 16t7.5 15t12 12.5t16 8.5q-8 8 -18 15.5t-23 13.5t-29 9.5t-34 3.5q-31 0 -56.5 -9t-45.5 -26.5t-34.5 -40.5t-22.5 -52h183l-12 -59h-183q0 -4 -0.5 -8t-0.5 -8v-7.5
v-9.5v-8.5v-7t0.5 -7t0.5 -7.5h175l-11 -59h-154q8 -29 22 -53t33.5 -41t44.5 -26.5t55 -9.5q22 0 44.5 6.5t44 19t41.5 30t37 38.5l51 -57v0z" />
    <glyph glyph-name="uni2117" unicode="&#x2117;" 
d="M273 305h52q17 0 30 2.5t22 8t13.5 13.5t4.5 18q0 11 -4.5 19t-13 13t-22 7.5t-30.5 2.5h-52v-84zM273 261v-72l17 -17h45v-42h-149v42h23l17 17v186l-17 17h-23v41h140q30 0 53 -5.5t38 -16.5t23 -27t8 -37t-8 -37.5t-23 -27t-38 -16t-53 -5.5h-53zM307 51q47 0 90 18
t75.5 50.5t51 75t18.5 89.5t-18.5 89.5t-51 75.5t-75.5 51t-90 18t-89.5 -18t-75.5 -51t-51.5 -75.5t-18.5 -89.5t18.5 -89.5t51.5 -75t75.5 -50.5t89.5 -18zM307 562q57 0 108 -21.5t90 -60t60.5 -89.5t21.5 -107t-21.5 -107t-60.5 -89.5t-90 -60t-108 -21.5t-108 21.5
t-90 60t-60.5 89.5t-21.5 107t21.5 107t60.5 89.5t90 60t108 21.5z" />
    <glyph glyph-name="trademark" unicode="&#x2122;" 
d="M415 395l-31 130h-12v-162l14 -14h20v-39h-102v39h13l15 14v154l-15 14h-13v39h101l34 -140l34 140h100v-39h-15l-14 -14v-154l14 -14h15v-39h-102v39h20l15 14v162h-12l-32 -130h-47zM272 570v-110h-43v57l-15 14h-35v-168l15 -14h47v-39h-169v39h44l15 14v168h-35
l-15 -14v-57h-42v110h233z" />
    <glyph glyph-name="uni2153" unicode="&#x2153;" 
d="M389 37l114 92h-142v51h196v-66l-62 -52q16 -1 30 -7.5t24 -16.5t15.5 -23.5t5.5 -30.5q0 -31 -16.5 -55.5t-45 -42t-64.5 -28t-75 -15.5l-11 50q34 6 61.5 14t49 19t33.5 25.5t12 32.5q0 10 -3.5 17.5t-9.5 12.5t-13.5 7.5t-15.5 2.5t-14.5 -1t-13.5 -3.5t-14.5 -6.5
t-15.5 -10zM284 195l-179 -211l-55 56l215 174zM127 623h70v-237h88v-49h-236v49h92v181l-73 -49l-29 45zM327 275l180 211l55 -56l-216 -174z" />
    <glyph glyph-name="uni2154" unicode="&#x2154;" 
d="M34 551q13 17 28 30.5t32 24t36 16.5t39 6q24 0 42 -6.5t30 -18t17.5 -26.5t5.5 -32t-7 -32.5t-19 -28.5t-26 -23.5t-32 -21.5l-84 -55h183v-49h-243v64l104 75q19 14 29 21t17.5 15t11.5 16.5t4 18.5q0 6 -2 11t-6.5 9t-11 6.5t-14.5 2.5q-11 0 -23.5 -4t-25 -11.5
t-23.5 -18t-21 -23.5zM327 275l180 211l55 -56l-216 -174zM284 195l-179 -211l-55 56l215 174zM389 37l114 92h-142v51h196v-66l-62 -52q16 -1 30 -7.5t24 -16.5t15.5 -23.5t5.5 -30.5q0 -31 -16.5 -55.5t-45 -42t-64.5 -28t-75 -15.5l-11 50q34 6 61.5 14t49 19t33.5 25.5
t12 32.5q0 10 -3.5 17.5t-9.5 12.5t-13.5 7.5t-15.5 2.5t-14.5 -1t-13.5 -3.5t-14.5 -6.5t-15.5 -10z" />
    <glyph glyph-name="uni215B" unicode="&#x215b;" 
d="M327 275l180 211l55 -56l-216 -174zM127 623h70v-237h88v-49h-236v49h92v181l-73 -49l-29 45zM284 195l-179 -211l-55 56l215 174zM465 142q-10 0 -18.5 -3t-15 -9t-10.5 -13.5t-4 -17.5q0 -9 4 -16.5t10.5 -13t15.5 -8.5t18 -3t18 3t15.5 8.5t10.5 13t4 16.5
q0 10 -4 17.5t-10.5 13.5t-15 9t-18.5 3zM465 -77q11 0 20.5 3t17.5 8.5t12.5 13.5t4.5 18t-4 18.5t-11.5 14t-17.5 8.5t-22 3q-11 0 -21 -3t-17.5 -8.5t-12 -14t-4.5 -18.5t4.5 -18t12.5 -13.5t17.5 -8.5t20.5 -3zM465 -127q-22 0 -42 6.5t-35.5 19t-24.5 29.5t-9 38
q0 11 4 22t11 20t16 15.5t19 9.5v6q-8 4 -15.5 10t-13 14t-8.5 17t-3 19q0 20 7.5 37t21 29.5t32 19t40.5 6.5q21 0 39.5 -6.5t32.5 -19t21.5 -29.5t7.5 -37q0 -10 -3 -19t-8.5 -17t-13 -14t-15.5 -10v-6q9 -3 18 -10t16.5 -15.5t11.5 -19.5t4 -22q0 -21 -9 -38t-24.5 -29.5
t-35.5 -19t-42 -6.5z" />
    <glyph glyph-name="uni215C" unicode="&#x215c;" 
d="M465 142q-10 0 -18.5 -3t-15 -9t-10.5 -13.5t-4 -17.5q0 -9 4 -16.5t10.5 -13t15.5 -8.5t18 -3t18 3t15.5 8.5t10.5 13t4 16.5q0 10 -4 17.5t-10.5 13.5t-15 9t-18.5 3zM465 -77q11 0 20.5 3t17.5 8.5t12.5 13.5t4.5 18t-4 18.5t-11.5 14t-17.5 8.5t-22 3q-11 0 -21 -3
t-17.5 -8.5t-12 -14t-4.5 -18.5t4.5 -18t12.5 -13.5t17.5 -8.5t20.5 -3zM465 -127q-22 0 -42 6.5t-35.5 19t-24.5 29.5t-9 38q0 11 4 22t11 20t16 15.5t19 9.5v6q-8 4 -15.5 10t-13 14t-8.5 17t-3 19q0 20 7.5 37t21 29.5t32 19t40.5 6.5q21 0 39.5 -6.5t32.5 -19
t21.5 -29.5t7.5 -37q0 -10 -3 -19t-8.5 -17t-13 -14t-15.5 -10v-6q9 -3 18 -10t16.5 -15.5t11.5 -19.5t4 -22q0 -21 -9 -38t-24.5 -29.5t-35.5 -19t-42 -6.5zM85 469l115 92h-142v51h196v-66l-62 -52q16 -1 30 -7.5t23.5 -16.5t15 -23.5t5.5 -30.5q0 -31 -16.5 -55.5
t-45 -42t-64.5 -28t-75 -15.5l-11 50q34 6 62 14t49.5 19t33.5 25.5t12 32.5q0 10 -3.5 17.5t-10 12.5t-14 7.5t-15.5 2.5t-14.5 -1t-13.5 -3.5t-14.5 -6.5t-15.5 -10zM284 195l-179 -211l-55 56l215 174zM327 275l180 211l55 -56l-216 -174z" />
    <glyph glyph-name="uni215D" unicode="&#x215d;" 
d="M465 142q-10 0 -18.5 -3t-15 -9t-10.5 -13.5t-4 -17.5q0 -9 4 -16.5t10.5 -13t15.5 -8.5t18 -3t18 3t15.5 8.5t10.5 13t4 16.5q0 10 -4 17.5t-10.5 13.5t-15 9t-18.5 3zM465 -127q-22 0 -42 6.5t-35.5 19t-24.5 29.5t-9 38q0 11 4 22t11 20t16 15.5t19 9.5v6
q-8 4 -15.5 10t-13 14t-8.5 17t-3 19q0 20 7.5 37t21 29.5t32 19t40.5 6.5q21 0 39.5 -6.5t32.5 -19t21.5 -29.5t7.5 -37q0 -10 -3 -19t-8.5 -17t-13 -14t-15.5 -10v-6q9 -3 18 -10t16.5 -15.5t11.5 -19.5t4 -22q0 -21 -9 -38t-24.5 -29.5t-35.5 -19t-42 -6.5zM465 -77
q11 0 20.5 3t17.5 8.5t12.5 13.5t4.5 18t-4 18.5t-11.5 14t-17.5 8.5t-22 3q-11 0 -21 -3t-17.5 -8.5t-12 -14t-4.5 -18.5t4.5 -18t12.5 -13.5t17.5 -8.5t20.5 -3zM50 325q33 5 60 13.5t47 20t31 26.5t11 33q0 8 -3 15t-8 11.5t-11.5 7t-14.5 2.5q-7 0 -13 -2t-11.5 -5.5
t-9.5 -8.5t-6 -11h-67l8 185h181v-53h-134l-4 -81q4 6 10 10.5t14.5 8t17 5.5t17.5 2q23 0 40.5 -7t28.5 -19.5t16 -27.5t5 -32q0 -31 -16 -55.5t-43.5 -42.5t-62.5 -30t-74 -17zM284 195l-179 -211l-55 56l215 174zM327 275l180 211l55 -56l-216 -174z" />
    <glyph glyph-name="uni215E" unicode="&#x215e;" 
d="M465 -127q-22 0 -42 6.5t-35.5 19t-24.5 29.5t-9 38q0 11 4 22t11 20t16 15.5t19 9.5v6q-8 4 -15.5 10t-13 14t-8.5 17t-3 19q0 20 7.5 37t21 29.5t32 19t40.5 6.5q21 0 39.5 -6.5t32.5 -19t21.5 -29.5t7.5 -37q0 -10 -3 -19t-8.5 -17t-13 -14t-15.5 -10v-6q9 -3 18 -10
t16.5 -15.5t11.5 -19.5t4 -22q0 -21 -9 -38t-24.5 -29.5t-35.5 -19t-42 -6.5zM465 -77q11 0 20.5 3t17.5 8.5t12.5 13.5t4.5 18t-4 18.5t-11.5 14t-17.5 8.5t-22 3q-11 0 -21 -3t-17.5 -8.5t-12 -14t-4.5 -18.5t4.5 -18t12.5 -13.5t17.5 -8.5t20.5 -3zM465 142
q-10 0 -18.5 -3t-15 -9t-10.5 -13.5t-4 -17.5q0 -9 4 -16.5t10.5 -13t15.5 -8.5t18 -3t18 3t15.5 8.5t10.5 13t4 16.5q0 10 -4 17.5t-10.5 13.5t-15 9t-18.5 3zM103 490h-51v123h242v-63l-155 -276l-50 23l148 262h-134v-69zM327 275l180 211l55 -56l-216 -174zM284 195
l-179 -211l-55 56l215 174z" />
    <glyph glyph-name="minus" unicode="&#x2212;" 
d="M82 319h451v-73h-451v73z" />
    <glyph glyph-name="approxequal" unicode="&#x2248;" 
d="M551 191q-17 -13 -34.5 -23t-34.5 -17t-34.5 -11t-34.5 -4q-25 0 -48 7t-56 20.5t-56 20t-48 6.5q-18 0 -35.5 -5t-35 -13.5t-34.5 -19t-36 -24.5v79q16 13 33.5 23t35 17t34.5 11t34 4q26 0 49 -7t56 -20.5t55.5 -20t47.5 -6.5q18 0 36 5t35.5 13.5t34.5 19t36 24.5v-79
zM551 353q-17 -13 -34.5 -23t-34.5 -17t-34.5 -11t-34.5 -4q-25 0 -48 7t-56 20.5t-56 20t-48 6.5q-18 0 -36 -4.5t-35.5 -13t-34.5 -19.5t-35 -25v80q16 13 33.5 23t35 17t34.5 11t34 4q26 0 49 -7t56 -20.5t55.5 -20t47.5 -6.5q18 0 36 4.5t35.5 13t35 19.5t35.5 25v-80z
" />
    <glyph glyph-name="notequal" unicode="&#x2260;" 
d="M179 60l-46 31l58 80h-110v66h157l66 91h-223v67h272l79 110l45 -32l-56 -78h112v-67h-161l-65 -91h226v-66h-274z" />
    <glyph glyph-name="lessequal" unicode="&#x2264;" 
d="M104 392l395 150v-80l-318 -115l318 -114v-80l-395 149v90zM104 110h395v-72h-395v72z" />
    <glyph glyph-name="greaterequal" unicode="&#x2265;" 
d="M510.006 392l-394.976 150v-80l317.98 -115l-317.98 -114v-80l394.976 149v90zM510.006 110h-394.976v-72h394.976v72z" />
    <glyph glyph-name="i.dot" 
d="M398 73h141v-73h-441v73h163l31 31v216l-31 31h-163v73h269v-320zM238 582q0 16 5.5 30t16 24.5t24 16.5t28.5 6q16 0 30.5 -6t24.5 -16t16 -24.5t6 -30.5q0 -15 -6 -28.5t-16.5 -24t-24.5 -16t-30 -5.5q-15 0 -28.5 5.5t-24 16t-16 24t-5.5 28.5z" />
    <glyph glyph-name="braceleft.cap" 
d="M85 234v78h60q21 0 37 3t27.5 10.5t17.5 20t6 30.5q0 8 -3 19t-12.5 47t-14 58t-4.5 38q0 29 11 54t31.5 43t49.5 28t65 10q16 0 32.5 -2t32 -5.5t29.5 -8.5t25 -11l-17 -72q-10 6 -23 11t-26.5 8t-25.5 4.5t-21 1.5q-21 0 -36.5 -5t-25.5 -13.5t-15 -21t-5 -28.5
q0 -14 4.5 -33t13 -49t12.5 -46t4 -27q0 -21 -8 -38.5t-20.5 -30.5t-27.5 -21.5t-30 -12.5q15 -4 30 -12.5t27.5 -21.5t20.5 -30.5t8 -38.5q0 -10 -4 -26t-12.5 -46t-13 -49t-4.5 -33q0 -16 5 -28.5t15 -21.5t25.5 -14t36.5 -5q9 0 21 1.5t25.5 5t26.5 8t23 10.5l17 -71
q-11 -6 -25 -11.5t-29.5 -9t-32 -5.5t-32.5 -2q-36 0 -65 10t-49.5 28.5t-31.5 43.5t-11 54q0 16 4.5 38t14.5 59t12.5 47t2.5 17q0 19 -6 31.5t-17.5 19.5t-27.5 10t-37 3h-60z" />
    <glyph glyph-name="braceright.cap" 
d="M529.005 234v78h-59.9961q-20.999 0 -36.998 3t-27.498 10.5t-17.499 20q-5.99902 12.5 -5.99902 30.5q0 8 2.99902 19q3 11 12.5 47q9.49902 36 13.999 58q4.49902 22 4.49902 38q0 29 -10.999 54t-31.498 43t-49.4971 28t-64.9961 10q-15.999 0 -32.498 -2
t-31.998 -5.5t-29.498 -8.5t-24.998 -11l16.999 -72q9.99902 6 22.998 11t26.499 8q13.499 3 25.498 4.5t20.999 1.5q20.998 0 36.4971 -5t25.499 -13.5q9.99902 -8.5 14.999 -21t5 -28.5q0 -14 -4.5 -33t-12.999 -49q-8.5 -30 -12.5 -46q-3.99902 -16 -3.99902 -27
q0 -21 7.99902 -38.5q8 -17.5 20.499 -30.5t27.498 -21.5t29.998 -12.5q-14.999 -4 -29.998 -12.5t-27.498 -21.5t-20.499 -30.5q-7.99902 -17.5 -7.99902 -38.5q0 -10 3.99902 -26q4 -16 12.5 -46q8.49902 -30 12.999 -49t4.5 -33q0 -16 -5 -28.5t-14.999 -21.5
q-10 -9 -25.499 -14t-36.4971 -5q-9 0 -20.999 1.5t-25.498 5q-13.5 3.5 -26.499 8t-22.998 10.5l-16.999 -71q10.999 -6 24.998 -11.5t29.498 -9t31.998 -5.5t32.498 -2q35.998 0 64.9961 10t49.4971 28.5t31.498 43.5t10.999 54q0 16 -4.49902 38q-4.5 22 -14.499 59
q-10 37 -12.5 47q-2.49902 10 -2.49902 17q0 19 5.99902 31.5q6 12.5 17.499 19.5t27.498 10t36.998 3h59.9961z" />
    <glyph glyph-name="bracketleft.cap" 
d="M239 -46h218v-73h-292v789h292v-73h-218v-643z" />
    <glyph glyph-name="bracketright.cap" 
d="M375.015 -46h-217.986v-73h291.981v789h-291.981v-73h217.986v-643z" />
    <glyph glyph-name="parenleft.cap" 
d="M245 276q0 -53 15.5 -102.5t43.5 -93.5t67.5 -81t87.5 -66l-43 -61q-53 32 -98 72t-79.5 90t-54 111t-19.5 131t19.5 131t54 111t79.5 90t98 72l43 -61q-48 -29 -87.5 -66t-67.5 -81t-43.5 -93.5t-15.5 -102.5z" />
    <glyph glyph-name="parenright.cap" 
d="M369.015 276q0 -53 -15.499 -102.5t-43.4971 -93.5t-67.4961 -81q-39.4971 -37 -87.4941 -66l42.9971 -61q52.9971 32 97.9941 72t79.4951 90t53.9971 111q19.498 61 19.498 131t-19.498 131q-19.499 61 -53.9971 111t-79.4951 90t-97.9941 72l-42.9971 -61
q47.9971 -29 87.4941 -66q39.498 -37 67.4961 -81t43.4971 -93.5t15.499 -102.5z" />
    <glyph glyph-name="guillemotleft.cap" 
d="M510 150l-60 -51l-147 183l147 183l60 -50l-109 -133zM288 150l-61 -51l-147 183l147 183l61 -50l-110 -133z" />
    <glyph glyph-name="guillemotright.cap" 
d="M104.031 150l59.9961 -51l146.991 183l-146.991 183l-59.9961 -50l108.993 -133zM326.018 150l60.9961 -51l146.991 183l-146.991 183l-60.9961 -50l109.993 -133z" />
    <glyph glyph-name="guilsinglleft.cap" 
d="M298 282l110 -132l-61 -51l-147 183l147 183l61 -50z" />
    <glyph glyph-name="guilsinglright.cap" 
d="M316.019 282l-109.993 -132l60.9961 -51l146.99 183l-146.99 183l-60.9961 -50z" />
    <glyph glyph-name="questiondown.cap" 
d="M366.016 382.012v-108.993q-45.998 -8 -78.4961 -16.999q-32.498 -9 -56.9961 -21.499t-37.498 -30.998q-12.999 -18.499 -12.999 -44.4971q0 -24.999 10.499 -44.498q10.5 -19.498 28.999 -31.498q18.499 -11.999 42.4971 -17.998q23.998 -6 51.9971 -6
q21.998 0 41.9971 4.5q19.999 4.49902 35.498 11.499q15.499 6.99902 26.498 16.499q11 9.49902 15.999 19.499q-10.999 3.99902 -18.999 9.99902q-7.99902 6 -13.499 12.999q-5.49902 7 -8.49902 14.999q-3 8 -3 15.999q0 12 5 23.499q4.99902 11.499 14.499 20.999
q9.49902 9.49902 21.998 14.499q12.5 4.99902 27.499 4.99902t28.998 -5.99902q13.999 -6 24.498 -16.999q10.5 -11 15.999 -25.499q5.5 -14.499 5.5 -31.498q0 -32.998 -16.499 -62.4961t-46.4971 -52.4961q-29.998 -22.999 -70.4961 -35.498
q-40.4971 -12.5 -86.4941 -12.5q-48.9971 0 -89.4951 12q-40.4971 11.999 -69.9951 34.498q-29.498 22.498 -44.9971 54.4961q-15.5 31.998 -15.5 71.9961q0 35.9971 12.5 62.9961q12.499 26.998 35.9971 46.4971q23.499 19.499 55.4971 32.998t73.9951 24.498v55.9971
h93.9951zM398.014 507.004q0 -14.999 -6 -28.498t-16.499 -23.999q-10.499 -10.499 -23.999 -16.499q-13.499 -5.99902 -28.498 -5.99902t-28.998 5.99902q-13.999 6 -24.498 16.499q-10.5 10.5 -15.999 23.999q-5.5 13.499 -5.5 28.498t5.5 28.998
q5.49902 13.999 15.999 24.499q10.499 10.499 24.498 16.499q13.999 5.99902 28.998 5.99902t28.498 -5.99902q13.5 -6 23.999 -16.499q10.499 -10.5 16.499 -24.499t6 -28.998z" />
    <glyph glyph-name="exclamdown.cap" 
d="M307 583.999q-15 0 -28.5 -5.99902q-13.5 -6 -24 -16.499q-10.5 -10.5 -16.5 -24.499t-6 -28.998t6 -28.498t16.5 -23.999q10.5 -10.499 24 -16.499q13.5 -5.99902 28.5 -5.99902t29 5.99902q14 6 24.5 16.499q10.5 10.5 16 23.999t5.5 28.498t-5.5 28.998t-16 24.499
q-10.5 10.499 -24.5 16.499q-14 5.99902 -29 5.99902zM284 374.012l-46 -298.981q-3 -17.999 0.5 -33.498t12.5 -27.998t23.5 -19.499t32.5 -7t32.5 7t23.5 19.499t12.5 27.998t0.5 33.498l-46 298.981h-46z" />
    <glyph glyph-name="slash.cap" 
d="M487 666l69 -39l-429 -746l-69 40z" />
    <glyph glyph-name="bar.cap" 
d="M349 -121h-83v788h83v-788z" />
    <glyph glyph-name="backslash.cap" 
d="M127.029 666l-68.9951 -39l428.974 -746l68.9961 40z" />
    <glyph glyph-name="a.ord" 
d="M366 420l-133 -45q-8 -2 -14 -4.5t-11 -6.5t-7.5 -9t-2.5 -11q0 -7 2.5 -12.5t8 -9.5t12.5 -5.5t16 -1.5q15 0 31.5 4.5t33 12.5t32.5 18.5t32 23.5v46zM140 494q0 21 13 38t35 28t49 16.5t55 5.5q33 0 59.5 -8.5t44 -23t26.5 -35t9 -43.5v-124q0 -6 1 -10.5t3 -8t5.5 -5
t9.5 -1.5q4 0 7.5 1.5t8 4t9.5 6t15 11.5l30 -44q-12 -12 -22.5 -19.5t-20 -12.5t-19.5 -7t-22 -2t-23.5 4t-20.5 11t-15.5 18t-9.5 25q-13 -11 -28.5 -21t-34 -18.5t-38 -13.5t-39.5 -5q-23 0 -41.5 5t-31.5 15.5t-20 25.5t-7 35q0 17 6 29t17.5 21t27 15.5t37.5 13.5
l151 44v9q0 13 -6 23t-17.5 17t-27 11t-34.5 4q-13 0 -23 -0.5t-18 -1.5t-15 -3t-15 -4q4 -2 8 -5t7 -6.5t4.5 -9t1.5 -12.5q0 -8 -3.5 -15t-9.5 -12t-14 -8t-17 -3q-10 0 -18.5 3t-15 9t-10 14.5t-3.5 18.5z" />
    <glyph glyph-name="b.ord" 
d="M224 386q10 -16 20.5 -27.5t23 -20.5t28 -13.5t34.5 -4.5q21 0 38 7.5t29 21t18.5 32t6.5 39.5t-6.5 39.5t-18.5 32t-29 21t-38 7.5q-19 0 -34.5 -5t-28 -13.5t-23 -20.5t-20.5 -28v-67zM117 269v60h34l12 11v294l-12 11h-37v59h110v-179q7 10 17.5 19.5t24.5 17.5
t31.5 13t37.5 5q33 0 61.5 -12.5t49.5 -34.5t32.5 -51t11.5 -62t-11.5 -62.5t-32.5 -51.5t-49.5 -34.5t-61.5 -12.5q-20 0 -37.5 5t-31.5 13t-24 17.5t-18 19.5v-45h-107z" />
    <glyph glyph-name="c.ord" 
d="M373 466q0 5 1.5 10t5 9.5t8 8.5t11.5 7q-7 4 -14.5 8t-16.5 6.5t-20 4t-23 1.5q-22 0 -43 -6.5t-37 -19.5t-25.5 -32t-9.5 -43q0 -19 6.5 -36.5t19.5 -31.5t34 -22t50 -8q17 0 32.5 3t30 8.5t28.5 14t29 19.5l37 -49q-19 -15 -38.5 -26.5t-39 -18.5t-39.5 -10.5
t-40 -3.5q-39 0 -72.5 12t-58 34t-37.5 51.5t-13 63.5q0 33 14 62.5t39.5 51.5t58.5 34t70 12q34 0 62.5 -8.5t49 -23.5t31 -34t10.5 -40q0 -11 -4 -21t-11.5 -17.5t-17 -12t-19.5 -4.5q-11 0 -20 3.5t-15.5 10.5t-10 15.5t-3.5 17.5z" />
    <glyph glyph-name="d.ord" 
d="M391 453q-11 16 -21.5 28t-23 20.5t-27.5 13.5t-34 5q-21 0 -38.5 -7.5t-29.5 -21t-18 -32t-6 -39.5q0 -22 6 -40.5t18 -32t29.5 -21t38.5 -7.5q19 0 34 5t27.5 13.5t23 20.5t21.5 28v67zM451 704v-364l11 -11h36v-60h-107v45q-8 -10 -18.5 -19.5t-24.5 -17.5t-31.5 -13
t-37.5 -5q-33 0 -61.5 12.5t-49.5 34.5t-32.5 51.5t-11.5 62.5t11.5 62t32.5 51t49.5 34.5t61.5 12.5q20 0 37.5 -5t31.5 -13t24.5 -17.5t18.5 -19.5v109l-12 11h-64v59h136z" />
    <glyph glyph-name="e.ord" 
d="M404 454q-5 13 -13.5 25t-20.5 20.5t-27.5 13.5t-32.5 5t-33 -4.5t-30 -13t-24 -21.5t-15 -29h197zM473 319q-19 -15 -38.5 -26.5t-39 -19t-39 -11t-38.5 -3.5q-39 0 -72 12t-57 34t-37 51.5t-13 63.5q0 33 13 62.5t36 51.5t54.5 34t67.5 12q43 0 75.5 -15.5t54.5 -41.5
t32.5 -59t10.5 -68h-276q4 -15 12.5 -28.5t22.5 -23.5t33 -16t43 -6q16 0 31.5 2.5t30 8t29 14t29.5 19.5z" />
    <glyph glyph-name="f.ord" 
d="M383 558v-60h-86l-25 -24v-121l25 -24h86v-60h-249v60h53l24 24v121l-24 24h-53v60h77q0 33 11 61.5t32 49.5t52.5 33t71.5 12q28 0 51.5 -7.5t40 -20.5t25.5 -29.5t9 -34.5q0 -13 -4.5 -24t-12 -19t-18.5 -12.5t-24 -4.5q-12 0 -22 3.5t-17.5 10t-11.5 15t-4 17.5
q0 8 3 15t8 12.5t11.5 9.5t14.5 5q-5 4 -10.5 7t-11.5 5t-12.5 3t-13.5 1q-24 0 -44 -7.5t-34 -21.5t-21.5 -34t-7.5 -45h111z" />
    <glyph glyph-name="g.ord" 
d="M343 470q0 12 -4.5 21.5t-13 16.5t-20.5 10.5t-25 3.5t-24 -3.5t-19.5 -10.5t-13.5 -16.5t-5 -21.5t5 -22t13.5 -17t19.5 -11t24 -4t25 4t20.5 11t13 17t4.5 22zM493 241q0 -23 -13.5 -44t-39 -37t-60.5 -25t-77 -9q-46 0 -81.5 6.5t-60 19.5t-36.5 32t-12 43
q0 11 2.5 20t7.5 16t12 13.5t16 12.5q-4 5 -7.5 10.5t-5.5 11t-3 11t-1 10.5q0 12 3 21.5t8.5 17.5t13.5 15t19 13q-6 7 -11 15.5t-8.5 17.5t-5.5 18.5t-2 19.5q0 23 9.5 43t26.5 35t41 23.5t52 8.5q8 0 15.5 -0.5t14.5 -2t13.5 -3t12.5 -4.5q9 14 19.5 25.5t24 20
t29.5 13.5t33 5t32 -5.5t26 -15t17 -23t6 -29.5q0 -12 -3.5 -22t-10.5 -17t-15.5 -11t-18.5 -4q-11 0 -19.5 3.5t-14.5 9.5t-9 14t-3 17q0 4 1 8.5t3.5 9t6 7.5t7.5 5q-1 1 -2 1.5t-2.5 1t-3.5 1t-5 0.5q-9 0 -17 -2.5t-15 -7.5t-13.5 -12t-12.5 -16q8 -8 14.5 -16.5
t11 -18.5t7 -20.5t2.5 -21.5q0 -23 -9.5 -43.5t-27 -36t-41.5 -24t-53 -8.5q-9 0 -17.5 1t-16 2.5t-15 4t-14.5 5.5q-6 -3 -10 -6.5t-7 -7.5t-4.5 -7.5t-1.5 -7.5t1.5 -7t4 -5.5t6.5 -3.5t9 -1h170q25 0 44.5 -5t34 -15t22 -26t7.5 -38zM193 261q-4 -3 -6.5 -6.5t-4 -7
t-2.5 -7.5t-1 -8q0 -12 8 -20.5t23.5 -14.5t38.5 -9t54 -3q28 0 51.5 4t40.5 11t26 17t9 21q0 7 -3 11.5t-8.5 7t-12.5 3.5t-15 1h-198z" />
    <glyph glyph-name="h.ord" 
d="M235 353l25 -24h30v-60h-175v60h34l25 24v267l-25 25h-34v59h120v-179q8 10 19 19.5t24.5 17.5t29.5 13t34 5q24 0 45.5 -7.5t38 -22t25.5 -36t9 -48.5v-113l25 -24h33v-60h-173v60h29l25 24v88q0 16 -2 29.5t-8 25t-18.5 18t-31.5 6.5q-18 0 -33 -4.5t-28 -13t-23.5 -21
t-19.5 -29.5v-99z" />
    <glyph glyph-name="i.ord" 
d="M380 329h92v-60h-316v60h113l25 24v133l-25 25h-113v59h199v-217zM254 680q0 12 4.5 23t12.5 19t18.5 12.5t22.5 4.5q13 0 24 -4.5t19 -12.5t12.5 -18.5t4.5 -23.5q0 -12 -4.5 -22.5t-12.5 -18.5t-19 -12.5t-24 -4.5q-12 0 -22.5 4.5t-18.5 12.5t-12.5 18.5t-4.5 22.5z
" />
    <glyph glyph-name="j.ord" 
d="M137 249q0 14 5 27.5t14 23.5t20.5 15.5t25.5 5.5q13 0 23.5 -4t18.5 -11.5t12 -17t4 -19.5q0 -9 -3.5 -17.5t-10 -15t-15 -11t-17.5 -4.5q4 -9 10.5 -16.5t16 -12.5t19.5 -7.5t21 -2.5q23 0 39.5 7t27.5 21t16 34t5 46v196l-24 25h-137v59h223v-283q0 -37 -11 -66.5
t-31 -50t-47.5 -31.5t-60.5 -11q-29 0 -55.5 9.5t-46.5 26.5t-31 39t-11 46zM328 680q0 13 4.5 23.5t12 18.5t18 12.5t22.5 4.5q13 0 24 -4.5t19 -12.5t12.5 -18.5t4.5 -23.5q0 -12 -4.5 -22.5t-12.5 -18.5t-19 -12.5t-24 -4.5q-12 0 -22.5 4.5t-18 12.5t-12 18.5t-4.5 22.5
z" />
    <glyph glyph-name="k.ord" 
d="M280 269h-166v60h28l25 24v267l-25 25h-35v59h120v-279l130 75l-1 11h-32v59h168v-59h-29l-126 -75l93 -107h76v-60h-159v60l-64 76l-56 -34v-18l25 -24h28v-60z" />
    <glyph glyph-name="l.ord" 
d="M380 329h92v-60h-316v60h113l25 24v267l-25 25h-113v59h199v-351z" />
    <glyph glyph-name="m.ord" 
d="M399 269v226q0 5 -1 9t-4 7t-7 5t-10 2t-11 -2t-9.5 -7t-9.5 -13.5t-9 -20.5v-206h-58v226q0 5 -1.5 9t-4 7t-7 5t-10.5 2q-5 0 -10.5 -2t-10 -7t-9.5 -13.5t-9 -20.5v-206h-104v60h34l11 11v160l-11 11h-34v59h104v-39q3 11 8.5 20t13 15.5t16.5 10t20 3.5q12 0 21.5 -4
t17 -10.5t12.5 -15t8 -17.5q3 10 9 18.5t14.5 15t18.5 10t22 3.5q14 0 24.5 -5t18 -13.5t11.5 -20.5t4 -26v-175l12 -11h39v-60h-109z" />
    <glyph glyph-name="n.ord" 
d="M235 353l25 -24h30v-60h-175v60h34l25 24v133l-25 25h-34v59h120v-45q8 10 19 19.5t24.5 17.5t29.5 13t34 5q24 0 45.5 -7.5t38 -22t25.5 -36t9 -48.5v-113l25 -24h33v-60h-174v60h30l25 24v88q0 16 -2 29.5t-8 25t-18.5 18t-31.5 6.5q-18 0 -33 -4.5t-28 -13t-23.5 -21
t-19.5 -29.5v-99z" />
    <glyph glyph-name="o.ord" 
d="M135 420q0 33 13 62.5t36.5 51.5t55 34t67.5 12t68 -12t55.5 -34t36.5 -51.5t13 -62.5q0 -34 -13 -63.5t-36.5 -51.5t-55.5 -34t-68 -12t-67.5 12t-55 34t-36.5 51.5t-13 63.5zM409 420q0 21 -7.5 39t-21 31t-32 20t-41.5 7t-41.5 -7t-32 -20t-20.5 -31t-7 -39t7 -39
t20.5 -31.5t32 -20.5t41.5 -7t41.5 7t32 20.5t21 31.5t7.5 39z" />
    <glyph glyph-name="p.ord" 
d="M224 386q10 -16 20.5 -27.5t23 -20.5t28 -13.5t34.5 -4.5q21 0 38 7.5t29 21t18.5 32t6.5 39.5t-6.5 39.5t-18.5 32t-29 21t-38 7.5q-19 0 -34.5 -5t-28 -13.5t-23 -20.5t-20.5 -28v-67zM224 207l11 -11h65v-60h-183v60h34l12 11v293l-12 11h-34v59h107v-45
q7 10 17.5 19.5t24.5 17.5t31.5 13t37.5 5q33 0 61.5 -12.5t49.5 -34.5t32.5 -51t11.5 -62t-11.5 -62.5t-32.5 -51.5t-49.5 -34.5t-61.5 -12.5q-20 0 -37.5 5t-31.5 13t-24 17.5t-18 19.5v-107z" />
    <glyph glyph-name="q.ord" 
d="M391 453q-11 16 -21.5 28t-23 20.5t-27.5 13.5t-34 5q-21 0 -38.5 -7.5t-29.5 -21t-18 -32t-6 -39.5t6 -39.5t18 -32t29.5 -21t38.5 -7.5q19 0 34 4.5t27.5 13.5t23.5 20.5t21 27.5v67zM391 314q-8 -10 -18.5 -19.5t-24.5 -17.5t-31.5 -13t-37.5 -5q-33 0 -61.5 12.5
t-49.5 34.5t-32.5 51.5t-11.5 62.5t11.5 62t32.5 51t49.5 34.5t61.5 12.5q20 0 37.5 -5t31.5 -13t24.5 -17.5t18.5 -19.5v45h107v-59h-36l-11 -11v-293l11 -11h36v-60h-183v60h64l12 11v107z" />
    <glyph glyph-name="r.ord" 
d="M391 469q0 8 3 15.5t8.5 12.5t13 7.5t16.5 2.5h3h2t2 -0.5t2 -0.5q-1 3 -2 4l-2 2l-2 2q-2 2 -5 4t-7 3t-9.5 2t-11.5 1q-17 0 -33.5 -6.5t-33 -19t-34.5 -30.5t-40 -44v-71l25 -24h114v-60h-273v60h48l25 24v133l-25 25h-48v59h134v-75q15 19 31 34.5t33.5 27t36.5 17.5
t39 6q25 0 44.5 -8t31.5 -21t18 -29.5t6 -32.5q0 -12 -4 -24t-11.5 -22t-19 -16t-25.5 -6q-10 0 -19 3t-16 9t-11 15t-4 21z" />
    <glyph glyph-name="s.ord" 
d="M250 402q-24 5 -42 12.5t-30.5 18.5t-19 25.5t-6.5 33.5t8.5 35.5t23 28t34.5 18t43 6.5q16 0 31.5 -2.5t29.5 -7.5t26.5 -11.5t21.5 -14.5l14 4v22h58v-109h-47q-10 14 -24.5 25.5t-31.5 20.5t-34 13.5t-33 4.5q-12 0 -22 -2t-17 -6t-11 -9.5t-4 -12.5t3.5 -12.5
t10.5 -9t16 -6.5t22 -5l114 -24q19 -4 34 -10.5t25.5 -16.5t16.5 -24t6 -33q0 -22 -9 -40t-25 -30t-38.5 -18.5t-49.5 -6.5q-22 0 -41 4t-34.5 10t-28 14t-22.5 17l-14 -10v-25h-57v118h53q14 -16 29 -28.5t32 -22.5t37.5 -16t42.5 -6q12 0 23 2t19 6.5t12.5 12t4.5 16.5
q0 7 -3 11.5t-8.5 7.5t-12.5 5t-18 5z" />
    <glyph glyph-name="t.ord" 
d="M185 511h-65v59h89v109h64v-109h158v-59h-134l-25 -25v-77q0 -21 4 -37t13 -27.5t23 -17.5t34 -6q17 0 31.5 4t26.5 12t23.5 18.5t25.5 26.5l39 -39q-13 -18 -29 -33.5t-35 -27t-40 -17.5t-42 -6q-32 0 -57.5 8t-43 25.5t-27 44t-9.5 63.5v86z" />
    <glyph glyph-name="u.ord" 
d="M452 570v-217l24 -24h34v-60h-119v45q-8 -10 -19 -19.5t-24.5 -17.5t-29.5 -13t-34 -5q-25 0 -46.5 7.5t-38 22.5t-25.5 36t-9 48v113l-24 25h-34v59h120v-172q0 -19 3 -33.5t9.5 -24.5t18 -15t28.5 -5q18 0 33.5 4t28.5 12.5t23.5 21t19.5 29.5v99l-25 25h-34v59h120z
" />
    <glyph glyph-name="v.ord" 
d="M347 570h156v-59h-37l-132 -242h-54l-132 242h-37v59h163v-59h-26l-17 -17l79 -154l80 154l-17 17h-26v59z" />
    <glyph glyph-name="w.ord" 
d="M384 319h12l30 179l-12 13h-48v59h151v-59h-29l-48 -242h-97l-36 166l-36 -166h-97l-48 242h-28v59h152v-59h-47l-12 -13l29 -179h13l33 163h85z" />
    <glyph glyph-name="x.ord" 
d="M348 423l132 -94h24v-60h-174v60h41l9 12l-73 53l-73 -53l10 -12h40v-60h-174v60h24l132 93l-123 89h-26v59h169v-59h-34l-10 -13l65 -46l65 46l-10 13h-34v59h169v-59h-26z" />
    <glyph glyph-name="y.ord" 
d="M97 221q0 15 4.5 28t12.5 22.5t18.5 14.5t23.5 5q10 0 18.5 -3t15.5 -9t10.5 -14.5t3.5 -18.5t-3 -18t-9 -14t-15 -8.5t-21 -1.5q1 -6 4 -11t8 -8.5t12.5 -5.5t16.5 -2q11 0 21.5 7t20 20t19 29t24.5 45l-127 233h-38v59h163v-59h-27l-16 -17l80 -152l79 152l-16 17h-27
v59h156v-59h-37l-137 -251q-20 -37 -32 -57.5t-27.5 -38.5t-35 -28t-43.5 -10q-21 0 -39.5 6.5t-32 19t-21 30.5t-7.5 39z" />
    <glyph glyph-name="z.ord" 
d="M391 325l25 25v57h59v-138h-335v65l242 180h-148l-25 -25v-53h-59v134h315v-64l-243 -181h169z" />
    <glyph glyph-name="zero.dnom" 
d="M144 195q0 43 11.5 80t33 65.5t52 44t66.5 15.5t66.5 -15.5t52.5 -44t33.5 -65.5t11.5 -80t-11.5 -80t-33.5 -65.5t-52.5 -44t-66.5 -15.5t-66.5 15.5t-52 44t-33 65.5t-11.5 80zM399 195q0 29 -6 54.5t-17.5 44.5t-29 30t-39.5 11t-39.5 -11t-29 -30t-17 -44.5
t-5.5 -54.5t5.5 -54.5t17 -44.5t29 -30t39.5 -11t39.5 11t29 30t17.5 44.5t6 54.5z" />
    <glyph glyph-name="one.dnom" 
d="M260 390h85v-306l24 -25h110v-59h-342v59h115l24 25v238l-103 -69l-36 54z" />
    <glyph glyph-name="two.dnom" 
d="M142 297q15 22 34.5 40.5t43.5 32.5t50 22t52 8q32 0 56.5 -9t40.5 -24.5t24 -36.5t8 -45q0 -23 -9.5 -42.5t-25.5 -36t-31.5 -28.5t-45.5 -33l-119 -86h159l26 25v40h63v-124h-322v80l145 111q41 31 47 35.5t16 15t15.5 21.5t5.5 25q0 9 -3.5 17.5t-10 15t-16.5 10
t-23 3.5q-17 0 -34 -5.5t-33.5 -16.5t-31.5 -25t-27 -31z" />
    <glyph glyph-name="three.dnom" 
d="M208 206l160 122h-200v62h266v-80l-107 -72h15q24 0 44 -8t34.5 -22.5t22.5 -34t8 -42.5q0 -43 -22.5 -77.5t-61.5 -59.5t-88 -41t-103 -23l-12 62q46 8 85.5 20.5t69.5 30t47 40t17 48.5q0 14 -5 25.5t-14 19.5t-20.5 12t-24.5 4q-11 0 -20.5 -1.5t-19 -5t-19.5 -9
t-21 -12.5z" />
    <glyph glyph-name="four.dnom" 
d="M423 87l-25 -25v-62h-67v62l-24 25h-180v83q23 24 47.5 56t48.5 68t44.5 72.5t33.5 69.5l70 -22q-14 -34 -36.5 -71.5t-47 -72.5t-44 -60.5t-50.5 -64.5h138v90h67v-90h89v-58h-64z" />
    <glyph glyph-name="five.dnom" 
d="M168 -10q47 7 85 19t66.5 28.5t44 38.5t15.5 49q0 13 -4 23t-11.5 17t-18.5 11t-25 4q-10 0 -19.5 -2.5t-17.5 -7.5t-14 -12t-9 -15h-85l10 247h247v-63h-186l-7 -124q5 8 13.5 15t20.5 12.5t25.5 8.5t28.5 3q30 0 52.5 -10t37.5 -27t22 -38t7 -42q0 -43 -22 -76.5
t-59.5 -58t-84.5 -39.5t-100 -22z" />
    <glyph glyph-name="six.dnom" 
d="M315 264q30 0 55 -10t43.5 -28t28.5 -43.5t10 -55.5q0 -28 -11 -53t-31 -44t-46.5 -29.5t-55.5 -10.5q-18 0 -35.5 4t-34 12t-29.5 20t-23 27q-6 9 -10.5 20t-7.5 23t-4.5 24.5t-1.5 24.5q0 45 17.5 89.5t50.5 83.5t81 69t107 46l18 -59q-34 -11 -63 -25.5t-51.5 -31.5
t-40 -36t-29.5 -40q6 5 13.5 9.5t16 7.5t17 4.5t16.5 1.5zM385 127q0 16 -6 29.5t-16.5 24t-24.5 16t-30 5.5t-29.5 -5.5t-24 -16t-16.5 -24t-6 -29.5q0 -15 6 -29t16.5 -24.5t24.5 -16t29 -5.5q16 0 30 5.5t24.5 16t16.5 24.5t6 29z" />
    <glyph glyph-name="seven.dnom" 
d="M210 302v-70h-63v157h320v-75l-202 -387l-60 27l193 372h-164z" />
    <glyph glyph-name="eight.dnom" 
d="M307 243q15 0 27.5 4t21.5 12t14 19t5 25t-5 25.5t-14 19t-21.5 11.5t-27.5 4t-27.5 -4t-21.5 -11.5t-14 -19t-5 -25.5t5 -25t14 -19t21.5 -12t27.5 -4zM307 54q16 0 30.5 4t25 12t16.5 20t6 27t-5.5 27t-16 19.5t-25 11.5t-31.5 4t-31.5 -4t-25 -11.5t-16 -19.5
t-5.5 -27t6 -27t16.5 -20t25 -12t30.5 -4zM307 -8q-30 0 -57 8.5t-47.5 25t-32 39.5t-11.5 52q0 16 5.5 30t14.5 25.5t20 20t23 14.5v9q-9 6 -18 14t-16 19.5t-11.5 25t-4.5 28.5q0 27 10 50t28 39.5t43 25t54 8.5t54 -8.5t43 -25t28 -39.5t10 -50q0 -15 -4.5 -28.5
t-11.5 -25t-16 -19.5t-18 -14v-9q12 -6 23 -14.5t20 -20t14.5 -25.5t5.5 -30q0 -29 -11.5 -52t-32 -39.5t-47.5 -25t-57 -8.5z" />
    <glyph glyph-name="nine.dnom" 
d="M306 400q18 0 35.5 -4t34 -12t29.5 -20t23 -27q6 -9 10.5 -20t7.5 -23t4.5 -24.5t1.5 -24.5q0 -50 -19.5 -99t-56 -91.5t-86 -74t-106.5 -46.5l-18 59q37 11 68 27.5t55 36.5t42.5 43t30.5 48q-8 -6 -15 -10t-14 -6.5t-13.5 -4t-13.5 -1.5q-30 0 -56 10t-46 28.5t-31 44
t-11 55.5q0 28 11 52.5t31 43.5t46.5 29.5t55.5 10.5zM229 264q0 -16 6 -30t16.5 -24.5t24.5 -16t30 -5.5t30 5.5t24.5 16t16 24.5t5.5 30q0 15 -5.5 29t-16 24t-24.5 15.5t-30 5.5t-30 -5.5t-24.5 -15.5t-16.5 -24t-6 -29z" />
    <glyph glyph-name="caron.Slovak" 
d="M229 433l41 159q3 13 8 24t12.5 19.5t18.5 13.5t24 5q11 0 20.5 -4t17 -11t12 -17t4.5 -22q0 -6 -1.5 -13t-5 -14t-8.5 -14t-11 -14l-106 -124z" />
    <glyph glyph-name="commaturn" 
d="M375 575q0 -15 -5.5 -27.5t-15 -22.5t-22.5 -15t-27 -5t-27 5.5t-22.5 15.5t-15 23.5t-5.5 28.5q0 6 1.5 12.5t4 13t6.5 13.5t9 14l95 116l35 -26l-54 -82q9 -4 17 -10t13.5 -14.5t9 -18.5t3.5 -21z" />
    <glyph glyph-name="dotbelow" 
d="M306 -215q-15 0 -28.5 5.5t-24 16t-16 24.5t-5.5 29q0 16 5.5 30t16 24.5t24 16t28.5 5.5q16 0 30.5 -5.5t24.5 -16t16 -24.5t6 -30t-6 -29.5t-16.5 -24t-24.5 -16t-30 -5.5z" />
    <glyph glyph-name="grave.cap" 
d="M374 632l-117 87q-9 7 -16.5 14t-12.5 14.5t-7.5 15t-2.5 14.5q0 13 4 23.5t11.5 18.5t17.5 12t22 4t22 -4t17.5 -10.5t13.5 -15.5t10 -19l59 -136z" />
    <glyph glyph-name="acute.cap" 
d="M219 650l59 136q4 10 10 19t13.5 15.5t17.5 10.5t22 4t22 -4t17.5 -12t11.5 -18.5t4 -23.5q0 -7 -2.5 -14.5t-7.5 -15t-12.5 -14.5t-16.5 -14l-117 -87z" />
    <glyph glyph-name="circumflex.cap" 
d="M307 823q9 0 16.5 -3t14.5 -8t12.5 -11t11.5 -14l101 -135l-28 -23l-128 94l-128 -94l-28 23l101 135q6 8 11.5 14t12.5 11t14.5 8t16.5 3z" />
    <glyph glyph-name="tilde.cap" 
d="M499 771q0 -32 -8 -57.5t-23.5 -44t-36 -28t-44.5 -9.5q-22 0 -41.5 9t-44 27t-36.5 25.5t-26 7.5q-11 0 -20 -4.5t-16.5 -13t-11.5 -21t-4 -27.5h-71q0 31 8 56.5t23 44t35 28t45 9.5q22 0 40.5 -9t43 -27t38 -25.5t27.5 -7.5q10 0 19.5 4.5t16.5 13.5t11 21.5t4 27.5
h72z" />
    <glyph glyph-name="macron.cap" 
d="M153 727h309v-74h-309v74z" />
    <glyph glyph-name="breve.cap" 
d="M307 707q19 0 37 6t34 17.5t27.5 28t16.5 36.5l54 -13q-7 -36 -22.5 -64.5t-37.5 -48.5t-49.5 -30t-59.5 -10t-59.5 10t-49.5 29.5t-37.5 48.5t-22.5 65l54 13q5 -20 17 -36.5t27.5 -28t34 -17.5t36.5 -6z" />
    <glyph glyph-name="dotaccent.cap" 
d="M306 635q-15 0 -28.5 5.5t-24 16t-16 24.5t-5.5 29q0 16 5.5 30t16 24.5t24 16t28.5 5.5q16 0 30.5 -5.5t24.5 -16t16 -24.5t6 -30t-6 -29.5t-16.5 -24t-24.5 -16t-30 -5.5z" />
    <glyph glyph-name="dieresis.cap" 
d="M415 640q-15 0 -28.5 5.5t-24 15.5t-16 23.5t-5.5 27.5q0 15 5.5 28t16 23.5t24 16t28.5 5.5t28.5 -5.5t24 -16t16 -23.5t5.5 -28q0 -14 -5.5 -27.5t-16 -23.5t-24 -15.5t-28.5 -5.5zM200 640q-15 0 -28.5 5.5t-24 15.5t-16 23.5t-5.5 27.5q0 15 5.5 28t16 23.5t24 16
t28.5 5.5t28.5 -5.5t24 -16t16 -23.5t5.5 -28q0 -14 -5.5 -27.5t-16 -23.5t-24 -15.5t-28.5 -5.5z" />
    <glyph glyph-name="ring.cap" 
d="M363 738q0 12 -4 22.5t-11.5 18t-17.5 11.5t-23 4q-12 0 -22.5 -4t-18 -11.5t-11.5 -18t-4 -22.5q0 -13 4 -23.5t11.5 -18t18 -11.5t22.5 -4q13 0 23 4t17.5 11.5t11.5 18t4 23.5zM424 738q0 -24 -9 -45.5t-25 -37.5t-37.5 -24.5t-45.5 -8.5t-45 8.5t-37 24.5t-25 37.5
t-9 45.5t9 45t25 37t37 25t45 9t45.5 -9t37.5 -25t25 -37t9 -45z" />
    <glyph glyph-name="hungarumlaut.cap" 
d="M315 650l59 136q4 10 10 19t14 15.5t18 10.5t22 4q11 0 21 -4t17.5 -12t11.5 -18.5t4 -23.5q0 -7 -2.5 -14.5t-7.5 -15t-12.5 -14.5t-16.5 -14l-116 -87zM113 650l59 136q4 10 10 19t13.5 15.5t17.5 10.5t22 4t22 -4t17.5 -12t11.5 -18.5t4 -23.5q0 -7 -2.5 -14.5
t-7.5 -15t-12.5 -14.5t-16.5 -14l-117 -87z" />
    <glyph glyph-name="caron.cap" 
d="M307 632q-9 0 -16.5 3t-14.5 8t-12.5 11t-11.5 14l-101 135l28 23l128 -95l128 95l28 -23l-101 -135q-6 -8 -11.5 -14t-12.5 -11t-14.5 -8t-16.5 -3z" />
  </font>
</defs>
</svg>
